<svg width="48" height="43" viewBox="0 0 48 43" fill="none" xmlns="http://www.w3.org/2000/svg">
<path d="M45.8907 17.8118H45.188V15.702V8.20204C45.188 5.74654 43.1903 3.74883 40.7349 3.74883H21.4244L8.39661 0.0265827C8.39286 0.0255515 8.38902 0.0249888 8.38527 0.0239576C8.38142 0.0229263 8.37776 0.0214265 8.37392 0.020489C8.36605 0.0185202 8.35826 0.0175827 8.35048 0.0158952C8.33839 0.013364 8.3263 0.010739 8.3142 0.00877023C8.30323 0.00698898 8.29245 0.00586398 8.28148 0.00455148C8.26873 0.00305148 8.25608 0.00173898 8.24342 0.000988979C8.23311 0.00042648 8.22289 0.000332657 8.21258 0.000145157C8.19945 -4.23422e-05 8.18642 -0.000136068 8.17339 0.000426431C8.16373 0.000801431 8.15408 0.00173887 8.14452 0.00248887C8.13111 0.00361387 8.1177 0.00483275 8.10448 0.00680149C8.09548 0.00811399 8.08658 0.00980147 8.07767 0.0113952C8.06398 0.0138327 8.05048 0.0164576 8.03708 0.0197388C8.02873 0.0218013 8.02058 0.0241451 8.01233 0.0264889C7.99864 0.0304264 7.98514 0.0344576 7.97164 0.0391451C7.96405 0.0418639 7.95655 0.0447702 7.94895 0.0477702C7.93536 0.0530202 7.92186 0.0585513 7.90864 0.064645C7.90161 0.0679263 7.89477 0.0714888 7.88783 0.0749575C7.87461 0.0816138 7.86158 0.0883639 7.84883 0.0959576C7.84217 0.0998013 7.8358 0.103926 7.82924 0.108051C7.81667 0.115926 7.8043 0.123989 7.7923 0.132708C7.78602 0.137208 7.77992 0.142082 7.77374 0.146864C7.7622 0.15577 7.75077 0.164864 7.7398 0.17452C7.73361 0.179957 7.7277 0.185676 7.7217 0.191301C7.71139 0.201051 7.70117 0.210801 7.69142 0.221114C7.68533 0.227582 7.67961 0.234332 7.6737 0.241082C7.6648 0.251301 7.65598 0.261614 7.64764 0.272395C7.64164 0.280176 7.63602 0.288145 7.6303 0.296113C7.62289 0.30652 7.61558 0.31702 7.60883 0.327801C7.60302 0.336988 7.59767 0.346551 7.59233 0.35602C7.58642 0.366426 7.58052 0.376926 7.57517 0.387707C7.56992 0.398207 7.56524 0.408988 7.56045 0.41977C7.55577 0.430363 7.55117 0.440957 7.54705 0.451832C7.54274 0.463269 7.53899 0.474988 7.53514 0.486801C7.5327 0.494394 7.5297 0.501519 7.52745 0.509207C7.52633 0.51305 7.52586 0.5168 7.52483 0.52055C7.5238 0.524394 7.5223 0.52805 7.52136 0.531894L6.71736 3.74864H4.45359C2.00306 3.74864 0.00881248 5.73829 0.000749999 8.18704C0.000656249 8.1921 0 8.19688 0 8.20185V32.5768C0 32.9649 0.315937 33.2799 0.703124 33.2799C1.09125 33.2799 1.40625 32.9649 1.40625 32.5768V11.4449C2.2035 12.1946 3.27543 12.6552 4.45359 12.6552H40.7349C40.7357 12.6552 40.7365 12.6552 40.7373 12.6552C42.4162 12.6565 43.7817 14.0228 43.7817 15.7021V20.6244H36.0462C36.0458 20.6244 36.0454 20.6245 36.0449 20.6245C36.0246 20.6245 36.0043 20.6257 35.9842 20.6274C35.9618 20.6294 35.9397 20.6326 35.9179 20.6366C35.9146 20.6372 35.9114 20.6375 35.9081 20.6381C35.8898 20.6418 35.8718 20.6467 35.8539 20.6517C35.8499 20.6529 35.8459 20.6536 35.8421 20.6548C35.8261 20.6597 35.8106 20.6655 35.7952 20.6714C35.7893 20.6737 35.7833 20.6755 35.7774 20.678C35.7644 20.6833 35.752 20.6896 35.7395 20.6957C35.7312 20.6996 35.7229 20.7033 35.7148 20.7075C35.7051 20.7127 35.6959 20.7186 35.6865 20.7242C35.6761 20.7304 35.6655 20.7364 35.6554 20.7431C35.6486 20.7476 35.6423 20.7528 35.6357 20.7576C35.6237 20.7662 35.6116 20.7747 35.6002 20.7842C35.5952 20.7883 35.5906 20.7929 35.5858 20.7971C35.5736 20.8078 35.5613 20.8184 35.5496 20.83C35.5428 20.8369 35.5366 20.8444 35.5302 20.8515C35.5211 20.8614 35.5117 20.871 35.5031 20.8815C35.4885 20.8992 35.4749 20.9176 35.4622 20.9366C35.4619 20.9369 35.4616 20.9373 35.4614 20.9377L31.7116 26.5627C31.6855 26.6019 31.6633 26.6435 31.6458 26.6867C31.6392 26.7028 31.6338 26.7192 31.6285 26.7355C31.6269 26.7405 31.6248 26.7453 31.6233 26.7502C31.6181 26.7676 31.614 26.7851 31.6102 26.8026C31.6092 26.8072 31.6078 26.8117 31.6069 26.8163C31.6038 26.832 31.6018 26.8478 31.5998 26.8637C31.5989 26.8704 31.5976 26.8772 31.597 26.884C31.5957 26.8971 31.5954 26.91 31.5949 26.923C31.5944 26.933 31.5936 26.9429 31.5936 26.9529C31.5936 26.9626 31.5944 26.9722 31.5948 26.9819C31.5953 26.9952 31.5957 27.0086 31.597 27.0219C31.5976 27.0284 31.5988 27.0349 31.5997 27.0413C31.6018 27.0575 31.6038 27.0736 31.607 27.0896C31.6078 27.094 31.6092 27.0983 31.6102 27.1028C31.614 27.1204 31.6182 27.138 31.6234 27.1555C31.6249 27.1605 31.627 27.1653 31.6286 27.1703C31.6339 27.1867 31.6393 27.2031 31.6459 27.2192C31.6635 27.2623 31.6857 27.3039 31.7119 27.3432L35.4616 32.9675C35.4618 32.9677 35.462 32.9679 35.4622 32.9682C35.4773 32.9906 35.4938 33.012 35.5112 33.0325C35.5169 33.0393 35.523 33.0456 35.5289 33.0519C35.5408 33.065 35.5532 33.0775 35.5661 33.0896C35.5737 33.0967 35.5812 33.1037 35.5888 33.1103C35.6025 33.1221 35.6167 33.133 35.6312 33.1437C35.6378 33.1485 35.6441 33.1537 35.6507 33.1582C35.6718 33.1726 35.6936 33.1858 35.7162 33.1978C35.722 33.2008 35.7279 33.2033 35.7336 33.2061C35.7516 33.2151 35.77 33.2235 35.7888 33.2309C35.7961 33.2338 35.8034 33.2364 35.8108 33.239C35.8287 33.2454 35.8469 33.251 35.8655 33.256C35.8731 33.258 35.8806 33.2601 35.8883 33.2619C35.9073 33.2663 35.9266 33.2697 35.9462 33.2725C35.9533 33.2736 35.9604 33.275 35.9675 33.2758C35.9917 33.2785 36.0162 33.28 36.0412 33.2802C36.0432 33.2802 36.0451 33.2806 36.0472 33.2806C36.0476 33.2806 36.048 33.2805 36.0485 33.2805H43.782V38.2031C43.782 39.8833 42.4151 41.2502 40.7351 41.2502H4.45396C2.77396 41.2502 1.40709 39.8833 1.40709 38.2031C1.40709 38.1994 1.40662 38.1959 1.40653 38.1922V35.3897C1.40653 35.0025 1.09153 34.6865 0.703405 34.6865C0.316218 34.6865 0.000281249 35.0025 0.000281249 35.3897V38.2031C0.000281249 38.2104 0.001125 38.2175 0.00140625 38.2248C0.013125 40.6703 2.00578 42.6564 4.45396 42.6564H40.7351C43.1904 42.6564 45.1879 40.6591 45.1883 38.2039C45.1883 38.2038 45.1883 38.2037 45.1883 38.2035V33.2805H45.891C47.0539 33.2805 48 32.3344 48 31.1715V19.9208C47.9997 18.7579 47.0536 17.8118 45.8907 17.8118ZM8.70936 1.57842L21.1161 5.12339C21.1167 5.12357 21.1173 5.12367 21.1179 5.12385L29.4331 7.49966H7.22942L8.70936 1.57842ZM43.7816 12.4588C42.9845 11.7094 41.9127 11.2488 40.7349 11.2488C40.7336 11.2488 40.7325 11.249 40.7312 11.249H4.45359C2.77349 11.249 1.40662 9.88213 1.40662 8.20204C1.40662 6.52195 2.77349 5.15507 4.45359 5.15507H6.36589L5.77996 7.49966H4.45377C4.06546 7.49966 3.75065 7.81447 3.75065 8.20279C3.75065 8.5911 4.06546 8.90591 4.45377 8.90591H6.32652C6.32746 8.90591 6.32849 8.9061 6.32952 8.9061C6.33027 8.9061 6.33102 8.90591 6.33168 8.90591H34.4511C34.452 8.90591 34.4529 8.9061 34.4537 8.9061C34.4545 8.9061 34.4552 8.90591 34.456 8.90591H39.7965C40.1848 8.90591 40.4996 8.5911 40.4996 8.20279C40.4996 7.81447 40.1848 7.49966 39.7965 7.49966H34.5519L26.346 5.15507H40.7348C42.4148 5.15507 43.7816 6.52195 43.7816 8.20204V12.4588ZM46.5935 31.1711C46.5935 31.5586 46.2782 31.8739 45.8907 31.8739H36.4226L33.1414 26.9526L36.4226 22.0305H45.8907C45.9006 22.0305 45.9101 22.0294 45.9199 22.029C46.1558 22.0257 46.3823 21.9837 46.5935 21.9089V31.1711ZM45.8907 20.6235C45.8859 20.6235 45.8811 20.6242 45.8762 20.6243H45.188V19.218H45.8907C46.2782 19.218 46.5935 19.5333 46.5935 19.9208C46.5935 20.3082 46.2782 20.6235 45.8907 20.6235Z" fill="#424242"/>
</svg>
