<svg width="56" height="41" viewBox="0 0 56 41" fill="none" xmlns="http://www.w3.org/2000/svg">
<path d="M14.4324 17.1788H5.41811V18.9838H14.4324V17.1788Z" fill="#424242"/>
<path d="M18.9451 22.5941H5.41811V24.3992H18.9451V22.5941Z" fill="#424242"/>
<path d="M37.8872 28.0093H5.41811V29.8143H37.8872V28.0093Z" fill="#424242"/>
<path d="M10.8333 33.4135H5.41811V35.2185H10.8333V33.4135Z" fill="#424242"/>
<path d="M19.8442 33.4133H14.429V35.2184H19.8442V33.4133Z" fill="#424242"/>
<path d="M28.8679 33.4133H23.4527V35.2183H28.8679V33.4133Z" fill="#424242"/>
<path d="M36.9863 16.2764C36.3259 16.2764 35.7205 16.4635 35.1922 16.7717C34.6419 16.4525 34.0255 16.2764 33.3761 16.2764C31.384 16.2764 29.766 17.8944 29.766 19.8866C29.766 21.8787 31.384 23.4967 33.3761 23.4967C34.0255 23.4967 34.6419 23.3206 35.1922 23.0014C35.7205 23.3096 36.3259 23.4967 36.9863 23.4967C38.9784 23.4967 40.5964 21.8787 40.5964 19.8866C40.5964 17.8944 38.9784 16.2764 36.9863 16.2764ZM33.8384 21.6256C33.6843 21.6696 33.5302 21.6916 33.3761 21.6916C32.3855 21.6916 31.5711 20.8771 31.5711 19.8866C31.5711 18.896 32.3855 18.0815 33.3761 18.0815C33.5302 18.0815 33.6953 18.1145 33.8384 18.1475C33.5522 18.6648 33.3761 19.2482 33.3761 19.8866C33.3761 20.5249 33.5522 21.1083 33.8384 21.6256ZM36.9863 21.6916C35.9957 21.6916 35.1812 20.8771 35.1812 19.8866C35.1812 18.896 35.9957 18.0815 36.9863 18.0815C37.9768 18.0815 38.7913 18.896 38.7913 19.8866C38.7913 20.8771 37.9768 21.6916 36.9863 21.6916Z" fill="#424242"/>
<path d="M54.0308 12.1049L16.1905 0.15188C15.9264 0.0638279 13.8131 -0.62958 12.8005 1.91292L9.6857 11.7637H2.70759C1.21071 11.7747 0 12.9854 0 14.4713V37.9261C0 39.423 1.21071 40.6337 2.70759 40.6337H42.3969C43.3435 40.6337 44.169 40.1494 44.6533 39.412C44.6533 39.412 45.875 39.7532 46.1501 39.7532C47.3388 39.7532 48.3734 38.9937 48.7257 37.8601L55.7918 15.4949C56.0119 14.8125 56.166 12.6772 54.0308 12.1049ZM13.4279 5.89726L32.0178 11.7637H20.0318L12.3383 9.33128L13.4279 5.89726ZM11.7989 11.0593L14.0553 11.7747H11.5788L11.7989 11.0593ZM43.2995 37.9261H43.2885C43.2885 38.4214 42.8812 38.8286 42.3859 38.8286H2.70759C2.2123 38.8286 1.80506 38.4214 1.80506 37.9261V14.4713C1.80506 13.976 2.2123 13.5688 2.70759 13.5688H42.3969C42.8922 13.5688 43.2995 13.976 43.2995 14.4713V37.9261ZM47.0086 37.3207C46.8656 37.783 46.3372 38.0582 45.875 37.9041L45.0935 37.6619V21.5815L51.3562 23.5626L47.0086 37.3207ZM51.8955 21.8346L45.0935 19.6884V15.9021L52.9852 18.3896L51.8955 21.8346ZM54.0748 14.9556L53.5355 16.6726L45.0495 13.998C44.8184 12.7323 43.7177 11.7747 42.3969 11.7747H38.0053L13.9672 4.18025L14.5065 2.46324C14.6496 2.00097 15.1669 1.7258 15.6402 1.8799L53.4804 13.8219C54.2399 14.02 54.1408 14.7244 54.0748 14.9556Z" fill="#424242"/>
</svg>
