<svg width="32" height="28" viewBox="0 0 32 28" fill="none" xmlns="http://www.w3.org/2000/svg">
<path d="M10.375 18.3334H27.3127C27.7321 18.3334 28.1 18.0622 28.2135 17.6683L31.9638 4.83489C32.0443 4.55822 31.9892 4.26102 31.8117 4.03114C31.6339 3.80198 31.3576 3.66663 31.0627 3.66663H8.21067L7.54051 0.718048C7.44529 0.298152 7.06443 0 6.62498 0H0.937497C0.419432 0 0 0.410108 0 0.916657C0 1.42344 0.419432 1.83331 0.937497 1.83331H5.87254L9.25803 16.729C8.26194 17.1525 7.56248 18.1219 7.56248 19.25C7.56248 20.7663 8.82419 22 10.375 22H27.3127C27.831 22 28.2502 21.5901 28.2502 21.0833C28.2502 20.5768 27.831 20.1667 27.3127 20.1667H10.375C9.85861 20.1667 9.43747 19.7559 9.43747 19.25C9.43747 18.7442 9.85861 18.3334 10.375 18.3334Z" fill="#666666"/>
<path d="M9 25C9 26.6544 10.3458 28 12.0001 28C13.6542 28 15 26.6544 15 25C15 23.3458 13.6542 22 12.0001 22C10.3458 22 9 23.3458 9 25Z" fill="#666666"/>
<path d="M23 25C23 26.6544 24.3458 28 26 28C27.6544 28 29 26.6544 29 25C29 23.3458 27.6544 22 26 22C24.3458 22 23 23.3458 23 25Z" fill="#666666"/>
</svg>
