<svg width="17" height="12" viewBox="0 0 17 12" fill="none" xmlns="http://www.w3.org/2000/svg">
<path fill-rule="evenodd" clip-rule="evenodd" d="M16.7126 1.79946L7.17612 11.6891C6.98411 11.8882 6.72373 12 6.45223 12C6.18073 12 5.92035 11.8882 5.72834 11.6891L0.287417 6.04668C0.100908 5.84642 -0.00229413 5.57821 3.87056e-05 5.2998C0.00237155 5.0214 0.110051 4.75509 0.299888 4.55822C0.489724 4.36135 0.746528 4.24968 1.01499 4.24726C1.28345 4.24484 1.54208 4.35187 1.73519 4.54529L6.45223 9.43703L15.2648 0.298061C15.4579 0.104645 15.7166 -0.0023791 15.985 4.01391e-05C16.2535 0.00245938 16.5103 0.114128 16.7001 0.310996C16.8899 0.507863 16.9976 0.774178 17 1.05258C17.0023 1.33098 16.8991 1.5992 16.7126 1.79946Z" fill="#000000"/>
</svg>
