<svg width="33" height="27" viewBox="0 0 33 27" fill="none" xmlns="http://www.w3.org/2000/svg">
<path d="M26.046 0.175972C27.87 0.175972 29.352 0.821974 30.492 2.11398C31.632 3.48198 32.202 5.22998 32.202 7.35798C32.202 11.006 31.1 14.616 28.896 18.188C26.616 21.836 23.88 24.496 20.688 26.168L18.18 21.836C20.08 20.544 21.676 19.176 22.968 17.732C24.184 16.364 24.944 14.616 25.248 12.488C23.728 12.412 22.474 11.728 21.486 10.436C20.422 9.21997 19.89 7.85198 19.89 6.33198C19.89 4.73598 20.498 3.29197 21.714 1.99997C22.854 0.783972 24.298 0.175972 26.046 0.175972ZM8.26196 0.175972C9.93396 0.175972 11.378 0.821974 12.594 2.11398C13.81 3.48198 14.418 5.22998 14.418 7.35798C14.418 11.006 13.316 14.616 11.112 18.188C8.83196 21.836 6.05796 24.496 2.78996 26.168L0.509964 21.836C2.33397 20.544 3.89196 19.176 5.18396 17.732C6.39996 16.364 7.08396 14.616 7.23596 12.488C5.79196 12.412 4.57596 11.728 3.58796 10.436C2.52396 9.21997 1.99196 7.85198 1.99196 6.33198C1.99196 4.73598 2.63796 3.29197 3.92996 1.99997C5.14596 0.783972 6.58996 0.175972 8.26196 0.175972Z" fill="#3C5B3F"/>
</svg>
