<svg width="36" height="36" viewBox="0 0 36 36" fill="none" xmlns="http://www.w3.org/2000/svg">
<path d="M27.833 11.0323C27.7203 11.0323 27.6071 10.9992 27.509 10.9335C27.3191 10.8058 27.2222 10.5794 27.2605 10.3535L27.642 8.12903H26.0911C25.1307 8.12903 24.3491 7.34748 24.3491 6.3871V1.74194C24.3491 0.781548 25.1307 0 26.0911 0H34.2201C35.1805 0 35.962 0.781548 35.962 1.74194V6.3871C35.962 7.34748 35.1805 8.12903 34.2201 8.12903H32.6448L28.1407 10.944C28.0467 11.0026 27.9398 11.0323 27.833 11.0323Z" fill="#F09939"/>
<path d="M5.81103 24.4287L7.3125 22.9272L3.82884 19.4436L2.32737 20.9451L5.81103 24.4287Z" fill="#F0BC5E"/>
<path d="M15.1242 33.7482L16.7953 32.217L13.3114 28.7332L11.6299 30.2539L15.1242 33.7482Z" fill="#F0BC5E"/>
<path d="M27.8716 27.3214C27.4019 25.9133 26.2035 24.874 24.7425 24.608L20.8621 23.902V23.6012C21.5374 23.2092 22.125 22.6849 22.593 22.0642H23.7653C24.7257 22.0642 25.5073 21.2827 25.5073 20.3223V13.3545C25.5073 9.19247 22.1209 5.80615 17.9589 5.80615C13.7968 5.80615 10.4105 9.19247 10.4105 13.3545V17.4191C10.4105 18.5385 11.2065 19.4751 12.2622 19.6934C12.5879 21.3622 13.6307 22.7743 15.0556 23.6012V23.902L11.1746 24.608C9.71429 24.874 8.51525 25.9133 8.04609 27.3214L7.81384 28.0187L5.83616 26.0411C5.60971 25.8146 5.60971 25.4459 5.83616 25.2194L8.12971 22.9265L3.8248 18.6216L1.2328 21.2136C0.46519 21.9812 0.0424805 23.002 0.0424805 24.0878C0.0424805 25.1736 0.46519 26.1938 1.2328 26.9614L9.08022 34.8088C9.84784 35.5764 10.8686 35.9997 11.9544 35.9997C13.0402 35.9997 14.0604 35.5764 14.81 34.8262L17.6384 32.2348L16.7564 31.3545H29.2158L27.8716 27.3214ZM17.9589 25.8883L16.2169 24.1464V24.1191C16.7674 24.2922 17.3521 24.3868 17.9589 24.3868C18.5656 24.3868 19.1504 24.2922 19.7008 24.1191V24.1464L17.9589 25.8883ZM23.7653 20.9029H23.277C23.4454 20.5191 23.5731 20.1144 23.6556 19.6934C23.9041 19.6418 24.1329 19.5431 24.346 19.4188V20.3223C24.346 20.6428 24.0853 20.9029 23.7653 20.9029ZM23.7653 16.4192C24.1108 16.6207 24.346 16.9911 24.346 17.4191C24.346 17.847 24.1108 18.2174 23.7653 18.4189V16.4192ZM11.5718 17.4191C11.5718 16.9911 11.8069 16.6207 12.1524 16.4192V18.4189C11.8069 18.2174 11.5718 17.847 11.5718 17.4191ZM12.1524 14.5158V15.1789C11.9457 15.2329 11.7518 15.3142 11.5718 15.4193V13.3545C11.5718 9.83293 14.4373 6.96744 17.9589 6.96744C21.4805 6.96744 24.346 9.83293 24.346 13.3545V15.4193C24.166 15.3142 23.972 15.2323 23.7653 15.1789V14.5158H23.1847C21.4677 14.5158 19.8535 13.8469 18.6388 12.6328L17.9589 11.9529L17.2789 12.6328C16.0642 13.8469 14.45 14.5158 12.7331 14.5158H12.1524ZM13.3137 18.5803V15.6551C15.0574 15.5238 16.6832 14.8044 17.9589 13.5914C19.2345 14.8044 20.8604 15.5244 22.604 15.6551V18.5803C22.604 19.4269 22.3729 20.2189 21.9758 20.9029H17.9589V22.0642H21.0212C20.2025 22.7848 19.1324 23.2255 17.9589 23.2255C15.3976 23.2255 13.3137 21.1416 13.3137 18.5803ZM6.48706 22.9265L5.85648 23.5571L3.19364 20.8942L3.82422 20.2636L6.48706 22.9265ZM11.9533 34.8384C11.1781 34.8384 10.4488 34.5359 9.90009 33.9878L2.05267 26.1409C1.50454 25.5928 1.20261 24.8635 1.20261 24.0883C1.20261 23.3126 1.50454 22.5833 2.05267 22.0352L2.37203 21.7158L5.03487 24.3787L5.01396 24.3996C4.33519 25.0789 4.33519 26.1839 5.01396 26.8632L9.17777 31.0271C9.507 31.3557 9.94422 31.5374 10.4099 31.5374C10.8756 31.5374 11.3128 31.3563 11.6205 31.0474L11.6641 31.0085L14.3391 33.6835L14.0058 33.9889C13.4577 34.5359 12.7284 34.8384 11.9533 34.8384ZM15.1962 32.8973L12.5269 30.2281L13.294 29.5348L15.9585 32.1994L15.1962 32.8973ZM15.5951 30.1932L13.3334 27.9316L10.8204 30.2049C10.6015 30.4249 10.2189 30.4249 9.99938 30.2049L8.73126 28.9367L9.147 27.6883C9.48203 26.6827 10.3385 25.94 11.3819 25.7496L15.4406 25.0121L17.9589 27.5304L20.4765 25.0127L24.5347 25.7501C25.5781 25.9406 26.4345 26.6827 26.7696 27.6889L27.6051 30.1932H15.5951Z" fill="black"/>
<path d="M33.6372 2.32214H26.6694V3.48343H33.6372V2.32214Z" fill="black"/>
<path d="M31.3146 4.64575H26.6694V5.80704H31.3146V4.64575Z" fill="black"/>
<path d="M33.6388 4.64575H32.4775V5.80704H33.6388V4.64575Z" fill="black"/>
<path d="M5.4838 14.4332L4.88631 13.4374L3.31277 14.3815C4.95831 7.68497 10.9802 2.90336 17.959 2.90336C19.4843 2.90336 20.9893 3.12981 22.4322 3.5769L22.776 2.46787C21.2216 1.98594 19.601 1.74207 17.959 1.74207C10.3722 1.74207 3.83709 6.98994 2.13812 14.3101L1.0378 12.4759L0.0419922 13.0734L2.08296 16.4742L5.4838 14.4332Z" fill="black"/>
<path d="M35.6812 12.8568L32.2803 10.8158L30.2393 14.2166L31.2352 14.8141L32.2513 13.1204C32.7861 14.6852 33.0595 16.3221 33.0595 17.9996C33.0595 21.4527 31.8634 24.8285 29.6924 27.5047L30.5941 28.2364C32.933 25.354 34.2208 21.718 34.2208 17.9996C34.2208 16.2234 33.9346 14.489 33.3766 12.8283L35.0831 13.852L35.6812 12.8568Z" fill="black"/>
</svg>
