<svg width="45" height="52" viewBox="0 0 45 52" fill="none" xmlns="http://www.w3.org/2000/svg">
<path d="M36.6623 11.7108C36.3861 11.2326 35.8716 10.9355 35.3194 10.9355H8.91762C8.36535 10.9355 7.85086 11.2326 7.57483 11.7108L5.69065 14.9742C5.48002 15.339 5.60503 15.8054 5.96983 16.016C6.33452 16.2267 6.80107 16.1016 7.0117 15.7369L8.46274 13.2236L13.9696 22.7616H2.95592L5.28422 18.7288C5.49484 18.364 5.36983 17.8975 5.00504 17.6869C4.64024 17.4761 4.17369 17.6013 3.96316 17.9661L1.14537 22.8467C0.877967 23.3097 0.937682 23.8888 1.29374 24.2877L21.1763 46.5564C21.4103 46.8185 21.7461 46.9689 22.0976 46.9691H22.0982C22.4494 46.9691 22.785 46.819 23.0192 46.5573L42.9422 24.2883C43.2991 23.8894 43.359 23.31 43.0914 22.8464L36.6623 11.7108ZM23.7276 22.7617H16.6116L22.1184 13.2236L27.6252 22.7617H27.5591C27.1378 22.7617 26.7964 23.1033 26.7964 23.5244C26.7964 23.9457 27.1379 24.2871 27.5591 24.2871H27.9263L22.0999 44.0621L16.3087 24.2872H23.7276C24.1488 24.2872 24.4902 23.9457 24.4902 23.5245C24.4904 23.1033 24.1488 22.7617 23.7276 22.7617ZM28.9464 21.9991L23.4395 12.4609H34.4532L28.9464 21.9991ZM29.5168 24.2872H40.8964L23.9288 43.2527L29.5168 24.2872ZM41.2811 22.7617H30.2674L35.7742 13.2237L41.2811 22.7617ZM9.78379 12.4609H20.7974L15.2906 21.9989L9.78379 12.4609ZM14.7192 24.2872L20.2742 43.2556L3.33828 24.2872H14.7192Z" fill="white"/>
<path d="M40.5775 44.1263C40.5412 44.1021 40.5029 44.0811 40.463 44.0634C39.9788 43.8492 39.5323 43.5963 39.1358 43.3118C38.7936 43.0662 38.317 43.1445 38.0714 43.4868C37.8258 43.829 37.9041 44.3055 38.2463 44.5512C38.4789 44.7182 38.7248 44.8757 38.9822 45.0228C37.335 45.9627 36.1926 47.3093 35.6331 48.9741C35.0736 47.3096 33.9314 45.9631 32.2846 45.0232C33.9316 44.0833 35.0738 42.7368 35.6332 41.0721C35.6409 41.095 35.6488 41.1179 35.6566 41.1407C35.7952 41.5385 36.2298 41.7486 36.6278 41.6102C37.0256 41.4717 37.2358 41.0369 37.0973 40.639C37.0393 40.4728 36.9885 40.3 36.9457 40.1257L36.6286 38.8305C36.516 38.3705 36.1066 38.0493 35.6331 38.0493C35.1595 38.0493 34.7502 38.3705 34.6374 38.8306L34.3205 40.1257C33.7801 42.3333 32.1094 43.4856 30.803 44.0635C30.7631 44.0812 30.7248 44.1022 30.6885 44.1265C30.3879 44.3269 30.2085 44.6621 30.2085 45.0233C30.2085 45.3846 30.388 45.7198 30.6885 45.9202C30.7247 45.9444 30.763 45.9654 30.803 45.9831C32.1094 46.561 33.78 47.7134 34.3205 49.9209L34.6375 51.2162C34.7502 51.6761 35.1595 51.9973 35.6331 51.9973C36.1066 51.9973 36.516 51.6761 36.6286 51.2161L36.9457 49.9209C37.4861 47.7134 39.1568 46.5611 40.4631 45.9831C40.5029 45.9655 40.5412 45.9444 40.5776 45.9203C40.8782 45.72 41.0576 45.3847 41.0576 45.0233C41.0576 44.662 40.8781 44.3266 40.5775 44.1263Z" fill="white"/>
<path d="M44.1945 10.5269C44.1581 10.5026 44.1198 10.4816 44.0798 10.4639C43.2347 10.0901 42.7102 9.50824 42.5208 8.73458L42.361 8.08157V8.08147C42.2626 7.67991 41.9052 7.39941 41.4918 7.39941C41.4918 7.39941 41.4917 7.39941 41.4916 7.39941C41.0782 7.39952 40.7208 7.68012 40.6226 8.08157L40.4627 8.73458C40.2733 9.50824 39.7488 10.0901 38.9037 10.4639C38.8638 10.4816 38.8254 10.5026 38.7891 10.5269C38.5322 10.6982 38.3787 10.985 38.3788 11.2938C38.3788 11.6027 38.5324 11.8893 38.7894 12.0606C38.8256 12.0847 38.8638 12.1058 38.9037 12.1234C39.7489 12.4973 40.2733 13.0791 40.4627 13.8528L40.6226 14.5057C40.7209 14.9073 41.0783 15.1878 41.4917 15.1879H41.4919C41.9054 15.1879 42.2627 14.9075 42.3612 14.5058L42.521 13.8528C42.7104 13.0792 43.2349 12.4974 44.08 12.1235C44.1198 12.1059 44.1581 12.0849 44.1944 12.0607C44.4514 11.8894 44.6048 11.6028 44.6049 11.2939C44.6048 10.9849 44.4514 10.6982 44.1945 10.5269ZM41.4917 12.3908C41.2372 11.9721 40.9018 11.6042 40.4913 11.2937C40.9019 10.9833 41.2373 10.6153 41.4918 10.1966C41.7463 10.6153 42.0818 10.9833 42.4923 11.2937C42.0817 11.6042 41.7462 11.972 41.4917 12.3908Z" fill="white"/>
<path d="M2.97562 8.83565L3.20463 9.77099C3.30923 10.1982 3.68956 10.4967 4.1294 10.4967C4.56935 10.4967 4.94968 10.1982 5.05418 9.77099L5.28319 8.83565C5.65306 7.32509 6.8034 6.53346 7.70339 6.13525C7.74331 6.11758 7.78159 6.09656 7.81785 6.07229C8.09398 5.88827 8.25881 5.58025 8.25881 5.24846C8.25881 4.91657 8.09408 4.60855 7.81795 4.42443C7.78159 4.40016 7.74331 4.37913 7.70329 4.36146C6.8034 3.96336 5.65306 3.17172 5.28319 1.66117L5.05418 0.725827C4.94958 0.298476 4.56925 0 4.1293 0C3.68946 0 3.30913 0.298476 3.20453 0.725725L2.97551 1.66106C2.60585 3.17162 1.45541 3.96326 0.555516 4.36136C0.515604 4.37903 0.477216 4.40005 0.44096 4.42433C0.164725 4.60855 0 4.91657 0 5.24846C0 5.58035 0.164928 5.88837 0.441061 6.07239C0.477317 6.09656 0.515604 6.11758 0.555414 6.13525C1.45541 6.53336 2.60585 7.32509 2.97562 8.83565ZM4.1293 2.97186C4.54965 3.89196 5.22855 4.66116 6.13901 5.24836C5.22866 5.83556 4.54965 6.60485 4.1293 7.52496C3.70896 6.60485 3.02995 5.83566 2.11959 5.24836C3.02995 4.66116 3.70896 3.89186 4.1293 2.97186Z" fill="white"/>
</svg>
