<svg width="58" height="36" viewBox="0 0 58 36" fill="none" xmlns="http://www.w3.org/2000/svg">
<rect width="57.5" height="36" rx="5" fill="#3C5B3F"/>
<path d="M21.783 16.2641H16.9218V17.2376H21.783V16.2641Z" fill="white"/>
<path d="M24.2166 19.1845H16.9218V20.1579H24.2166V19.1845Z" fill="white"/>
<path d="M34.4317 22.1048H16.9218V23.0782H34.4317V22.1048Z" fill="white"/>
<path d="M19.8421 25.0191H16.9218V25.9925H19.8421V25.0191Z" fill="white"/>
<path d="M24.7015 25.0191H21.7812V25.9925H24.7015V25.0191Z" fill="white"/>
<path d="M29.5679 25.019H26.6476V25.9925H29.5679V25.019Z" fill="white"/>
<path d="M33.9458 15.7775C33.5897 15.7775 33.2633 15.8784 32.9783 16.0446C32.6816 15.8725 32.3492 15.7775 31.999 15.7775C30.9247 15.7775 30.0521 16.65 30.0521 17.7244C30.0521 18.7987 30.9247 19.6712 31.999 19.6712C32.3492 19.6712 32.6816 19.5762 32.9783 19.4041C33.2633 19.5703 33.5897 19.6712 33.9458 19.6712C35.0202 19.6712 35.8927 18.7987 35.8927 17.7244C35.8927 16.65 35.0202 15.7775 33.9458 15.7775ZM32.2483 18.6622C32.1652 18.6859 32.0821 18.6978 31.999 18.6978C31.4648 18.6978 31.0256 18.2586 31.0256 17.7244C31.0256 17.1902 31.4648 16.7509 31.999 16.7509C32.0821 16.7509 32.1711 16.7687 32.2483 16.7865C32.094 17.0655 31.999 17.3801 31.999 17.7244C31.999 18.0686 32.094 18.3832 32.2483 18.6622ZM33.9458 18.6978C33.4116 18.6978 32.9724 18.2586 32.9724 17.7244C32.9724 17.1902 33.4116 16.7509 33.9458 16.7509C34.48 16.7509 34.9193 17.1902 34.9193 17.7244C34.9193 18.2586 34.48 18.6978 33.9458 18.6978Z" fill="white"/>
<path d="M43.1376 13.5279L22.7312 7.08191C22.5887 7.03442 21.4491 6.66048 20.903 8.03159L19.2233 13.3439H15.4601C14.6529 13.3498 14 14.0027 14 14.804V27.4527C14 28.2599 14.6529 28.9128 15.4601 28.9128H36.8637C37.3742 28.9128 37.8193 28.6517 38.0805 28.254C38.0805 28.254 38.7393 28.438 38.8877 28.438C39.5288 28.438 40.0867 28.0284 40.2767 27.4171L44.0873 15.3561C44.206 14.988 44.2891 13.8366 43.1376 13.5279ZM21.2414 10.1803L31.2665 13.3439H24.8027L20.6537 12.0321L21.2414 10.1803ZM20.3629 12.964L21.5797 13.3498H20.2442L20.3629 12.964ZM37.3504 27.4527H37.3445C37.3445 27.7198 37.1249 27.9394 36.8578 27.9394H15.4601C15.193 27.9394 14.9734 27.7198 14.9734 27.4527V14.804C14.9734 14.5369 15.193 14.3173 15.4601 14.3173H36.8637C37.1308 14.3173 37.3504 14.5369 37.3504 14.804V27.4527ZM39.3507 27.1262C39.2735 27.3755 38.9886 27.5239 38.7393 27.4408L38.3179 27.3102V18.6384L41.6952 19.7068L39.3507 27.1262ZM41.9861 18.7749L38.3179 17.6175V15.5757L42.5737 16.9171L41.9861 18.7749ZM43.1613 15.0652L42.8705 15.9912L38.2942 14.5488C38.1695 13.8662 37.576 13.3498 36.8637 13.3498H34.4954L21.5322 9.25431L21.823 8.32837C21.9002 8.07908 22.1792 7.93069 22.4344 8.01379L42.8408 14.4539C43.2504 14.5607 43.1969 14.9406 43.1613 15.0652Z" fill="white"/>
</svg>
