<svg width="18" height="16" viewBox="0 0 18 16" fill="none" xmlns="http://www.w3.org/2000/svg">
<path d="M17.3884 4.06431C17.442 3.65975 17.3476 2.87107 16.1068 2.13473L16.0669 2.11156C15.3008 1.66638 14.2728 1.34031 13.1619 1.19164C12.9572 1.16445 12.7566 1.14344 12.5585 1.13147L12.5548 1.1179C12.3299 0.318376 11.5127 -0.156596 10.7123 0.047144L6.79121 1.04403C6.2722 1.17432 5.82773 1.51226 5.55971 1.97949L0.78642 10.3008C0.401662 10.9716 0.630362 11.8306 1.29678 12.2179L6.79332 15.412C7.45974 15.7992 8.31325 15.5691 8.69801 14.8983L13.4713 6.57696C13.6078 6.33904 13.6942 6.07586 13.7219 5.80913C14.4271 5.81763 15.0887 5.7434 15.6518 5.5891C17.0346 5.20404 17.3348 4.46886 17.3884 4.06431ZM4.94145 6.56582C5.27359 5.9868 6.01481 5.7869 6.59008 6.1212C7.16537 6.4555 7.36398 7.20154 7.03184 7.78057C6.6997 8.35959 5.95848 8.55949 5.3832 8.22519C4.80792 7.89089 4.61051 7.14937 4.94145 6.56582ZM4.25152 9.83399C4.19591 9.6794 4.27375 9.5106 4.42452 9.45295L9.07893 7.72036C9.23254 7.66439 9.40025 7.74273 9.45749 7.89449C9.5131 8.0491 9.43526 8.21789 9.28449 8.27552L4.63008 10.0081C4.47647 10.0641 4.30876 9.98572 4.25152 9.83399ZM7.12506 11.6032C6.54977 11.2689 6.35116 10.5228 6.6833 9.94386C7.01545 9.36479 7.75666 9.16489 8.33195 9.49915C8.90724 9.8335 9.10584 10.5795 8.7737 11.1586C8.44156 11.7375 7.70035 11.9374 7.12506 11.6032ZM12.7171 4.54876C12.0681 4.46209 11.4411 4.3041 10.9085 4.09397C10.8953 4.1169 10.8866 4.13863 10.8735 4.16156C10.5545 4.71765 9.84923 4.90786 9.29673 4.5868C8.74423 4.26574 8.55525 3.55587 8.87424 2.99978C9.19323 2.44368 9.8985 2.25348 10.451 2.57454C10.7814 2.76651 10.9798 3.09584 11.0207 3.44828C11.5309 3.63777 12.116 3.78286 12.7254 3.86564C12.9402 3.89493 13.1453 3.91473 13.3436 3.92671L12.9027 2.35193C12.9376 2.35701 12.9727 2.36209 13.0094 2.3643C13.958 2.49131 14.8562 2.77246 15.4827 3.13655L15.5113 3.1531C16.1088 3.50803 16.2402 3.80216 16.225 3.90801C16.1791 4.23296 14.9344 4.8473 12.7171 4.54876Z" fill="white"/>
</svg>
