<svg width="17" height="13" viewBox="0 0 17 13" fill="none" xmlns="http://www.w3.org/2000/svg">
<path d="M0.354873 1.03448C2.68806 3.01043 6.78207 6.48673 7.98535 7.57064C8.14688 7.71694 8.32014 7.79131 8.5 7.79131C8.67949 7.79131 8.85245 7.71763 9.01362 7.57204C10.2179 6.48706 14.3119 3.01043 16.6452 1.03448C16.7904 0.911691 16.8126 0.695871 16.695 0.54576C16.4231 0.198887 16.0177 0 15.5833 0H1.41668C0.982279 0 0.576902 0.198887 0.305068 0.545793C0.187462 0.695871 0.209609 0.911691 0.354873 1.03448Z" fill="#F09939"/>
<path d="M16.7946 2.10528C16.669 2.04685 16.5213 2.06723 16.4169 2.15648C13.8294 4.34995 10.5271 7.16152 9.48812 8.09775C8.90498 8.62415 8.09565 8.62415 7.51114 8.09705C6.40369 7.09923 2.6953 3.94666 0.583113 2.15645C0.477959 2.0672 0.329939 2.04751 0.205428 2.10525C0.0802519 2.16339 0 2.2886 0 2.42659V11.3333C0 12.1147 0.635342 12.75 1.41668 12.75H15.5834C16.3647 12.75 17 12.1147 17 11.3333V2.42659C17 2.2886 16.9197 2.16306 16.7946 2.10528Z" fill="#F09939"/>
</svg>
