<svg width="21" height="21" viewBox="0 0 21 21" fill="none" xmlns="http://www.w3.org/2000/svg">
<path d="M19.1543 2.50195H1.8457C0.829254 2.50195 0 3.3303 0 4.34766V16.6523C0 17.6663 0.825563 18.498 1.8457 18.498H19.1543C20.1682 18.498 21 17.6725 21 16.6523V4.34766C21 3.33375 20.1744 2.50195 19.1543 2.50195ZM18.8994 3.73242L10.5391 12.0928L2.10652 3.73242H18.8994ZM1.23047 16.3976V4.59658L7.15637 10.4717L1.23047 16.3976ZM2.10053 17.2676L8.03016 11.3379L10.1079 13.3978C10.3484 13.6363 10.7365 13.6355 10.9761 13.3959L13.002 11.3701L18.8995 17.2676H2.10053ZM19.7695 16.3975L13.872 10.5L19.7695 4.60245V16.3975Z" fill="#F09939"/>
</svg>
