<svg width="36" height="36" viewBox="0 0 36 36" fill="none" xmlns="http://www.w3.org/2000/svg">
<path d="M20.3142 23.7682C24.7881 23.7682 28.415 20.1414 28.415 15.6674C28.415 11.1935 24.7881 7.56665 20.3142 7.56665C15.8402 7.56665 12.2134 11.1935 12.2134 15.6674C12.2134 20.1414 15.8402 23.7682 20.3142 23.7682Z" fill="#F09939"/>
<path d="M32.333 2.35908C28.2711 2.35908 24.3 1.59411 20.5296 0.0862851L20.3144 0L20.0997 0.0861616C16.3288 1.59411 12.3576 2.35895 8.29569 2.35895H7.00586V14.5102H4.11278C3.15574 14.5102 2.37695 15.289 2.37695 16.246V26.0828C2.37695 27.0398 3.15574 27.8187 4.11278 27.8187H9.32037C9.32148 27.8187 9.3221 27.8187 9.32321 27.8187C10.6899 29.9903 12.5838 31.784 14.8416 33.0148L20.3142 36L25.7869 33.0148C30.6207 30.3786 33.6226 25.3208 33.6226 19.8152V2.35908H32.333ZM3.53409 26.0828V16.246C3.53409 15.9272 3.79331 15.6675 4.11265 15.6675H9.32024C9.63959 15.6675 9.89881 15.9273 9.89881 16.246V26.0828C9.89881 26.4016 9.63959 26.6615 9.32024 26.6615H4.11278C3.79331 26.6615 3.53409 26.4016 3.53409 26.0828ZM11.0563 17.3982C12.9884 17.2935 14.5281 15.6883 14.5281 13.7309V10.7492C14.5281 9.95191 15.1768 9.30262 15.9747 9.30262C16.7726 9.30262 17.4213 9.95179 17.4213 10.7492V14.3911C17.4213 15.414 18.2534 16.2462 19.2764 16.2462H23.5183C24.6228 16.2462 25.5221 17.1448 25.5221 18.25V24.6577C25.5221 25.7628 24.6229 26.6615 23.5183 26.6615H14.9927C14.5333 26.6615 14.1074 26.4329 13.8522 26.0511C13.3824 25.3463 12.596 24.9256 11.7489 24.9256H11.0563V17.3982ZM32.4655 19.8151C32.4655 24.8966 29.6945 29.5655 25.2332 31.9987L20.3144 34.6818L15.3955 31.9987C13.3824 30.9004 11.6813 29.319 10.4303 27.4061C10.7815 27.1109 11.0125 26.6828 11.0448 26.1967C12.2125 28.2109 13.894 29.8612 15.9499 30.9825L20.3145 33.3636L24.6791 30.9825C28.7683 28.7524 31.3085 24.4735 31.3085 19.8156V11.0384H30.1512V19.8157C30.1512 24.0495 27.8425 27.9397 24.1254 29.9666L20.3145 32.0451L16.5036 29.9666C14.8731 29.0772 13.5034 27.8204 12.474 26.2998C12.6355 26.401 12.7802 26.5295 12.8895 26.6933C13.3593 27.398 14.1458 27.8187 14.9928 27.8187H23.5184C25.2617 27.8187 26.6795 26.4005 26.6795 24.6577V18.25C26.6795 16.5071 25.2619 15.0889 23.5184 15.0889H19.2765C18.8917 15.0889 18.5787 14.7759 18.5787 14.3911V10.7492C18.5787 9.3136 17.4104 8.14536 15.9748 8.14536C14.5392 8.14536 13.371 9.3136 13.371 10.7492V13.7303C13.371 15.0496 12.3474 16.1223 11.0541 16.2259C11.0483 15.7231 10.8255 15.2752 10.4777 14.9616V5.76431C13.8384 5.55779 17.1442 4.87097 20.3144 3.71939C23.4847 4.87085 26.7898 5.55767 30.151 5.76431V6.40953H31.3082V4.66322L30.7562 4.63779C27.2532 4.47756 23.8075 3.77852 20.5151 2.56053L20.3142 2.48585L20.1134 2.55991C16.8204 3.7779 13.3747 4.47695 9.87227 4.63717L9.32024 4.66322V14.5103H8.16299V3.51633H8.29544C12.4286 3.51633 16.4703 2.75248 20.3141 1.24576C24.1579 2.75248 28.1996 3.51633 32.3328 3.51633H32.4653V19.8151H32.4655Z" fill="#111111"/>
<path d="M31.3086 8.72388H30.1514V9.88113H31.3086V8.72388Z" fill="#333333"/>
<path d="M8.74223 24.3469H4.69189V25.5042H8.74223V24.3469Z" fill="#111111"/>
</svg>
