<svg width="27" height="27" viewBox="0 0 27 27" fill="none" xmlns="http://www.w3.org/2000/svg">
<path d="M19.3085 0H7.16657C3.21486 0 0 3.21486 0 7.16657V19.3087C0 23.2602 3.21486 26.4751 7.16657 26.4751H19.3087C23.2602 26.4751 26.4751 23.2602 26.4751 19.3087V7.16657C26.4751 3.21486 23.2602 0 19.3085 0V0ZM13.2375 20.4766C9.24584 20.4766 5.99847 17.2293 5.99847 13.2375C5.99847 9.24584 9.24584 5.99847 13.2375 5.99847C17.2293 5.99847 20.4766 9.24584 20.4766 13.2375C20.4766 17.2293 17.2293 20.4766 13.2375 20.4766ZM20.6497 7.70568C19.4701 7.70568 18.5107 6.74623 18.5107 5.56661C18.5107 4.387 19.4701 3.42735 20.6497 3.42735C21.8294 3.42735 22.789 4.387 22.789 5.56661C22.789 6.74623 21.8294 7.70568 20.6497 7.70568Z" fill="#3C5B3F"/>
<path d="M13.2379 7.55106C10.1022 7.55106 7.55089 10.1022 7.55089 13.2381C7.55089 16.3737 10.1022 18.9251 13.2379 18.9251C16.3738 18.9251 18.9249 16.3737 18.9249 13.2381C18.9249 10.1022 16.3738 7.55106 13.2379 7.55106Z" fill="#3C5B3F"/>
<path d="M20.6502 4.97975C20.3266 4.97975 20.0632 5.24315 20.0632 5.56673C20.0632 5.89032 20.3266 6.15371 20.6502 6.15371C20.974 6.15371 21.2374 5.89052 21.2374 5.56673C21.2374 5.24294 20.974 4.97975 20.6502 4.97975Z" fill="#3C5B3F"/>
</svg>
