<svg width="48" height="48" viewBox="0 0 48 48" fill="none" xmlns="http://www.w3.org/2000/svg">
<path d="M36.7809 21.1942C36.7809 19.6746 35.5448 18.4385 34.0252 18.4385H28.9606C30.1911 17.0554 30.9953 15.4805 31.1506 14.0676C31.2455 13.2046 30.9789 12.348 30.4189 11.7174C29.9071 11.1409 29.2073 10.8196 28.4483 10.8126C28.4395 10.8125 28.4306 10.8125 28.4219 10.8125C27.6878 10.8125 26.9987 11.0952 26.4787 11.6105C25.9585 12.1258 25.6707 12.8124 25.6674 13.545C25.6406 13.7054 25.3585 14.2585 24.668 14.9151C24.1027 15.4528 23.1262 16.1921 21.6844 16.6601C21.1191 16.8437 20.6024 17.1817 20.1489 17.6647C19.9108 17.918 19.5544 18.2679 19.1131 18.6191C18.8966 18.5043 18.6503 18.4387 18.3886 18.4387H13.5786C12.7221 18.4387 12.0253 19.1354 12.0253 19.9919V32.8186C12.0253 33.6751 12.7221 34.3718 13.5786 34.3718H18.3886C18.9725 34.3718 19.4816 34.0477 19.747 33.5702H32.021C33.3195 33.5702 34.3759 32.5138 34.3759 31.2153C34.3759 30.7787 34.2565 30.3696 34.0486 30.0186C34.7252 29.6044 35.1775 28.8583 35.1775 28.0086C35.1775 27.572 35.0582 27.1629 34.8503 26.8119C35.5268 26.3977 35.9792 25.6516 35.9792 24.8019C35.9792 24.3104 35.8279 23.8537 35.5694 23.4757C36.3 22.9795 36.7809 22.1419 36.7809 21.1942ZM34.0252 22.4468H33.6243C33.2093 22.4468 32.8727 22.7832 32.8727 23.1984C32.8727 23.6134 33.2092 23.95 33.6243 23.95C34.094 23.95 34.4761 24.3321 34.4761 24.8018C34.4761 25.2715 34.094 25.6536 33.6243 25.6536H32.8226C32.4076 25.6536 32.071 25.99 32.071 26.4052C32.071 26.8202 32.4075 27.1568 32.8226 27.1568C33.2923 27.1568 33.6744 27.5389 33.6744 28.0086C33.6744 28.4783 33.2923 28.8604 32.8226 28.8604H32.021C31.6059 28.8604 31.2694 29.1969 31.2694 29.612C31.2694 30.027 31.6059 30.3636 32.021 30.3636C32.4907 30.3636 32.8728 30.7457 32.8728 31.2154C32.8728 31.6851 32.4907 32.0672 32.021 32.0672H19.9419V24.802C19.9419 24.387 19.6054 24.0505 19.1903 24.0505C18.7751 24.0505 18.4387 24.3869 18.4387 24.802V32.8187C18.4387 32.8464 18.4163 32.8688 18.3886 32.8688H13.5786C13.5509 32.8688 13.5285 32.8464 13.5285 32.8187V19.9916C13.5285 19.964 13.5509 19.9416 13.5786 19.9416H18.3886C18.4163 19.9416 18.4387 19.964 18.4387 19.9916V21.5951C18.4387 22.0101 18.7751 22.3466 19.1903 22.3466C19.6054 22.3466 19.9419 22.0102 19.9419 21.5951V19.9916C19.9419 19.9552 19.9389 19.9195 19.9363 19.8836C20.4999 19.4474 20.9505 19.0064 21.2445 18.6935C21.5227 18.3971 21.8268 18.1941 22.1485 18.0897C23.9175 17.5154 25.108 16.5907 25.7951 15.9161C26.6563 15.0705 27.1704 14.1891 27.1704 13.5581C27.1704 13.2247 27.3004 12.9122 27.5365 12.6782C27.7756 12.4413 28.0922 12.3162 28.4343 12.3157C28.8556 12.3196 29.1346 12.5352 29.2946 12.7153C29.5689 13.0242 29.7039 13.4684 29.6562 13.9033C29.4921 15.3967 28.2978 17.2426 26.6137 18.6059C26.3663 18.8063 26.2719 19.1408 26.3781 19.4409C26.4843 19.741 26.7682 19.9416 27.0865 19.9416H34.025C34.7157 19.9416 35.2776 20.5034 35.2776 21.1942C35.2776 21.8849 34.7158 22.4468 34.0252 22.4468Z" fill="white"/>
<path d="M15.9834 29.6536C15.5684 29.6536 15.2279 29.9941 15.2279 30.4091C15.2279 30.8241 15.5684 31.1646 15.9834 31.1646C16.3985 31.1646 16.739 30.8241 16.739 30.4091C16.739 29.9942 16.3985 29.6536 15.9834 29.6536Z" fill="white"/>
<path d="M46.6603 23.9999L47.9514 20.5834C48.0454 20.3349 48.0011 20.0552 47.8349 19.8478L45.5512 16.9974L45.7234 13.3491C45.7359 13.0838 45.6073 12.8313 45.3853 12.6855L42.3326 10.6803L41.369 7.15739C41.2989 6.90108 41.0987 6.70083 40.8424 6.6308L37.3195 5.66724L35.3143 2.61465C35.1684 2.39256 34.916 2.26449 34.6507 2.27659L31.0025 2.44871L28.1521 0.165058C27.9447 -0.00106631 27.6651 -0.04541 27.4164 0.0485274L23.9999 1.33965L20.5836 0.0486211C20.3348 -0.04541 20.0553 -0.00106632 19.8479 0.165152L16.9975 2.44881L13.3493 2.27668C13.0826 2.26412 12.8315 2.39274 12.6857 2.61474L10.6806 5.66743L7.15765 6.63099C6.90133 6.70111 6.70108 6.90136 6.63105 7.15758L5.66749 10.6805L2.61481 12.6856C2.39271 12.8315 2.26418 13.0839 2.27674 13.3492L2.44887 16.9975L0.165216 19.8478C-0.000908854 20.0552 -0.0452525 20.3349 0.0486848 20.5835L1.33971 23.9999L0.0485911 27.4164C-0.04544 27.6649 -0.00109635 27.9446 0.165122 28.152L2.44878 31.0024L2.27665 34.6507C2.26409 34.916 2.39271 35.1685 2.61471 35.3142L5.6674 37.3195L6.63096 40.8424C6.70108 41.0987 6.90133 41.2989 7.15755 41.369L10.6805 42.3325L12.6856 45.3852C12.8315 45.6073 13.0843 45.735 13.3492 45.7233L16.9974 45.5512L19.8478 47.8348C20.0552 48.001 20.3349 48.0454 20.5835 47.9513L24 46.6602L27.4165 47.9513C27.5028 47.9839 27.5927 47.9998 27.6821 47.9998C27.8505 47.9998 28.0167 47.9433 28.1521 47.8348L31.0025 45.5512L34.6507 45.7233C34.9169 45.7351 35.1684 45.6072 35.3143 45.3852L37.3195 42.3325L40.8424 41.369C41.0988 41.2989 41.299 41.0986 41.369 40.8424L42.3326 37.3195L45.3853 35.3142C45.6074 35.1684 45.7359 34.916 45.7234 34.6507L45.5512 31.0024L47.8349 28.152C48.001 27.9447 48.0453 27.665 47.9514 27.4164L46.6603 23.9999ZM45.1538 24.2656L46.3938 27.5468L44.2006 30.2842C44.0861 30.427 44.0277 30.6067 44.0363 30.7895L44.2017 34.2932L41.27 36.2189C41.1171 36.3193 41.0059 36.4722 40.9577 36.6489L40.0323 40.0322L36.6489 40.9576C36.4724 41.0059 36.3196 41.117 36.219 41.27L34.2933 44.2016L30.7896 44.0363C30.6066 44.0278 30.427 44.086 30.2842 44.2005L27.5468 46.3937L24.2657 45.1538C24.1801 45.1214 24.09 45.1053 24 45.1053C23.91 45.1053 23.8199 45.1215 23.7343 45.1538L20.4532 46.3937L17.7158 44.2005C17.573 44.086 17.393 44.0278 17.2104 44.0363L13.7067 44.2016L11.781 41.27C11.6806 41.1171 11.5277 41.0059 11.3511 40.9576L7.96774 40.0322L7.04233 36.6489C6.99405 36.4723 6.88296 36.3195 6.72996 36.2189L3.79831 34.2932L3.96368 30.7895C3.97231 30.6066 3.9139 30.427 3.79943 30.2842L1.60625 27.5468L2.84628 24.2656C2.91096 24.0944 2.91096 23.9054 2.84628 23.7342L1.60625 20.4531L3.79943 17.7157C3.9139 17.5729 3.97231 17.3932 3.96368 17.2104L3.79831 13.7067L6.72996 11.781C6.88286 11.6805 6.99405 11.5276 7.04233 11.351L7.96774 7.96767L11.3511 7.04227C11.5276 6.99399 11.6804 6.88289 11.781 6.72989L13.7067 3.79824L17.2104 3.96362C17.3931 3.97215 17.573 3.91384 17.7158 3.79937L20.4532 1.60618L23.7343 2.84621C23.9056 2.9109 24.0945 2.9109 24.2657 2.84621L27.5468 1.60618L30.2842 3.79937C30.427 3.91393 30.6068 3.97224 30.7896 3.96362L34.2933 3.79824L36.219 6.72989C36.3194 6.8828 36.4723 6.99399 36.6489 7.04227L40.0323 7.96767L40.9577 11.351C41.0059 11.5275 41.117 11.6804 41.27 11.781L44.2017 13.7067L44.0363 17.2104C44.0277 17.3933 44.0861 17.5729 44.2006 17.7157L46.3938 20.4531L45.1537 23.7342C45.0891 23.9055 45.0891 24.0944 45.1538 24.2656Z" fill="white"/>
<path d="M38.1221 11.0224C37.9351 10.8188 37.7411 10.6163 37.5453 10.4205C37.3495 10.2248 37.147 10.0307 36.9434 9.84369C36.6377 9.563 36.1623 9.58325 35.8815 9.88906C35.6008 10.1948 35.6211 10.6703 35.9269 10.951C36.1147 11.1235 36.3016 11.3025 36.4824 11.4833C36.663 11.6639 36.8422 11.851 37.0148 12.0388C37.163 12.2003 37.3655 12.2821 37.5686 12.2821C37.7502 12.2821 37.9324 12.2167 38.0767 12.0842C38.3825 11.8036 38.4028 11.3281 38.1221 11.0224Z" fill="white"/>
<path d="M34.274 7.79287C30.6497 5.48381 26.286 4.45762 21.9873 4.90265C17.6256 5.35452 13.5128 7.31408 10.4063 10.4205C6.98748 13.8393 4.99698 18.3809 4.80142 23.2087C4.60707 28.0082 6.1967 32.6679 9.2776 36.3294C9.42619 36.506 9.63882 36.597 9.85313 36.597C10.0239 36.597 10.1957 36.5391 10.3366 36.4206C10.6541 36.1533 10.695 35.6792 10.4278 35.3617C7.58898 31.9877 6.12423 27.6934 6.30329 23.2697C6.48348 18.8201 8.31798 14.6344 11.469 11.4834C14.3321 8.62021 18.1226 6.81412 22.1421 6.39777C26.1053 5.98715 30.1268 6.93299 33.4663 9.06055C33.8165 9.28358 34.2809 9.18064 34.5039 8.83058C34.727 8.48043 34.624 8.0159 34.274 7.79287Z" fill="white"/>
<path d="M40.1727 13.6914C39.9496 13.3412 39.4848 13.2383 39.1349 13.4613C38.7848 13.6844 38.6819 14.149 38.905 14.4989C41.0325 17.8385 41.9782 21.8602 41.5678 25.8232C41.1514 29.8426 39.3453 33.633 36.4822 36.4963C33.3312 39.6473 29.1454 41.4818 24.696 41.662C20.2729 41.8419 15.9778 40.3764 12.6039 37.5377C12.2864 37.2704 11.8123 37.3113 11.545 37.6289C11.2777 37.9464 11.3186 38.4205 11.6362 38.6878C15.0976 41.6002 19.4504 43.18 23.9705 43.1799C24.232 43.1799 24.4945 43.1746 24.757 43.164C29.5848 42.9685 34.1264 40.978 37.5452 37.5593C40.6517 34.4528 42.6114 30.3399 43.0631 25.9782C43.5082 21.6792 42.4817 17.3157 40.1727 13.6914Z" fill="white"/>
</svg>
