<svg width="13" height="18" viewBox="0 0 13 18" fill="none" xmlns="http://www.w3.org/2000/svg">
<path d="M6.5 0C2.91593 0 0 2.80679 0 6.25671C0 10.5929 6.50639 18 6.50639 18C6.50639 18 13 10.3797 13 6.25671C13 2.80679 10.0842 0 6.5 0ZM8.46119 8.08868C7.92041 8.60911 7.21026 8.86937 6.5 8.86937C5.78985 8.86937 5.07947 8.60911 4.53893 8.08868C3.4575 7.04784 3.4575 5.35419 4.53893 4.31323C5.06258 3.80896 5.75915 3.53123 6.5 3.53123C7.24085 3.53123 7.9373 3.80907 8.46119 4.31323C9.54262 5.35419 9.54262 7.04784 8.46119 8.08868Z" fill="#F09939"/>
</svg>
