<svg width="240" height="70" viewBox="0 0 240 70" fill="none" xmlns="http://www.w3.org/2000/svg">
<path d="M12 1H172C188.016 1 201 13.9837 201 30V65H41C24.9837 65 12 52.0163 12 36V1Z" fill="#3C5B3F" stroke="#FEC88C" stroke-width="2"/>
<path d="M36.8809 24.1792C39.0296 21.8703 41.2051 20.7158 43.4072 20.7158C45.6094 20.7158 47.3911 21.4499 48.7524 22.918C50.1138 24.3727 50.7944 26.4281 50.7944 29.084C50.7944 30.3252 50.8812 31.3662 51.0547 32.207C51.2415 33.0479 51.4417 33.6084 51.6553 33.8887C51.8688 34.1689 52.0623 34.4025 52.2358 34.5894C52.4227 34.7629 52.5161 34.883 52.5161 34.9497C52.5161 35.0031 52.4561 35.0765 52.3359 35.1699C52.2158 35.25 52.069 35.3968 51.8955 35.6104C51.7354 35.8105 51.5685 36.0775 51.395 36.4111C50.9946 37.2253 50.7944 38.4865 50.7944 40.1948C50.7944 41.8898 50.9746 43.2178 51.335 44.1787C51.6953 45.1396 52.3493 46.0539 53.2969 46.9214C52.9365 47.6421 52.1491 48.0024 50.9346 48.0024C49.7201 48.0024 48.5589 47.2884 47.4512 45.8604C46.3835 47.2884 45.3491 48.0024 44.3481 48.0024C43.3605 48.0024 42.7733 47.6421 42.5864 46.9214C43.3739 46.0272 43.9344 45.0729 44.2681 44.0586C44.6017 43.0309 44.7686 41.8831 44.7686 40.6152C44.7686 39.334 44.7018 38.373 44.5684 37.7324C44.4349 37.0918 44.2681 36.6047 44.0679 36.271C43.881 35.924 43.6875 35.6437 43.4873 35.4302C43.3005 35.2166 43.1403 35.0632 43.0068 34.9697C42.8734 34.863 42.8066 34.7896 42.8066 34.7495C42.8066 34.6961 42.9067 34.556 43.1069 34.3291C43.3205 34.1022 43.5474 33.8286 43.7876 33.5083C44.0278 33.1746 44.248 32.6141 44.4482 31.8267C44.6618 31.0392 44.7686 30.125 44.7686 29.084C44.7686 25.694 43.9811 23.999 42.4062 23.999C41.4053 23.999 40.5778 24.4528 39.9238 25.3604C39.2699 26.2679 38.9429 27.6292 38.9429 29.4443C38.9429 30.4854 39.0296 31.3796 39.2031 32.127C39.39 32.8743 39.5902 33.3949 39.8037 33.6885C40.0306 33.9688 40.2308 34.2023 40.4043 34.3892C40.5911 34.576 40.6846 34.6961 40.6846 34.7495C40.6846 34.8029 40.6245 34.883 40.5044 34.9897C40.3843 35.0965 40.2375 35.27 40.064 35.5103C39.9038 35.7371 39.7437 36.0241 39.5835 36.3711C39.1831 37.2653 38.9829 38.5532 38.9829 40.2349C38.9829 41.9032 39.1631 43.2178 39.5234 44.1787C39.8838 45.1396 40.5378 46.0539 41.4854 46.9214C41.3919 47.1883 41.1584 47.4352 40.7847 47.6621C40.4243 47.889 40.0173 48.0024 39.5635 48.0024C38.2288 48.0024 36.9743 47.2884 35.7998 45.8604C34.7321 47.2884 33.6377 48.0024 32.5166 48.0024C31.9827 48.0024 31.5423 47.9224 31.1953 47.7622C30.7415 47.5487 30.4613 47.2684 30.3545 46.9214C31.2887 46.0539 31.9427 45.133 32.3164 44.1587C32.6901 43.1844 32.877 42.0633 32.877 40.7954C32.877 39.5142 32.8236 38.5666 32.7168 37.9526C32.6234 37.3254 32.4766 36.8249 32.2764 36.4512C32.0895 36.0775 31.9227 35.7972 31.7759 35.6104C31.6424 35.4102 31.4622 35.2233 31.2354 35.0498C31.0085 34.8763 30.8883 34.7829 30.875 34.7695C30.875 34.7295 30.9417 34.6628 31.0752 34.5693C31.222 34.4626 31.3888 34.3024 31.5757 34.0889C31.7759 33.8753 31.9761 33.5951 32.1763 33.248C32.6434 32.4206 32.877 31.1326 32.877 29.3843C32.877 27.6359 32.6768 26.2412 32.2764 25.2002C31.876 24.1592 31.1553 23.1649 30.1143 22.2173C30.4613 21.5233 31.3822 21.1763 32.877 21.1763C34.3851 21.1763 35.7197 22.1772 36.8809 24.1792ZM69.0522 44.8394C68.6785 46.1873 67.9512 47.1283 66.8701 47.6621C66.363 47.9157 65.8491 48.0959 65.3286 48.2026C64.8081 48.3228 64.1341 48.3828 63.3066 48.3828C62.4792 48.3828 61.6117 48.2093 60.7041 47.8623C60.1436 47.6488 59.6431 47.3685 59.2026 47.0215C58.7756 46.6745 58.3818 46.194 58.0215 45.5801C57.6611 44.9528 57.4076 44.2454 57.2607 43.458C57.1139 42.6572 56.6668 41.8031 55.9194 40.8955C55.6792 40.6152 55.5591 40.4417 55.5591 40.375C55.5591 40.3083 55.7926 40.008 56.2598 39.4741C56.7402 38.9269 57.0405 38.373 57.1606 37.8125C57.5477 36.0107 58.4285 34.7428 59.8032 34.0088C60.4038 33.6751 61.0511 33.3949 61.7451 33.168C62.4391 32.9411 63.1064 32.7342 63.7471 32.5474C64.401 32.3605 64.995 32.1403 65.5288 31.8867C66.0627 31.6198 66.4897 31.2394 66.8101 30.7456C67.1304 30.2384 67.2905 29.5044 67.2905 28.5435C67.2905 27.5692 67.2572 26.6683 67.1904 25.8408C67.1504 25.3337 67.077 24.9466 66.9702 24.6797C66.8768 24.4128 66.75 24.1525 66.5898 23.8989C66.4297 23.6453 66.2228 23.4718 65.9692 23.3784C65.7157 23.2716 65.362 23.2183 64.9082 23.2183C64.4544 23.2183 64.0607 23.4118 63.7271 23.7988C63.3934 24.1859 63.2266 24.673 63.2266 25.2603C63.2266 25.8475 63.4268 26.5615 63.8271 27.4023C64.2409 28.2298 64.8014 28.7303 65.5088 28.9038C65.1484 29.758 64.5479 30.1851 63.707 30.1851C62.8796 30.1851 62.1121 29.9115 61.4048 29.3643C61.4715 29.431 61.3247 29.758 60.9644 30.3452C60.8042 30.6121 60.6107 30.8791 60.3838 31.146C60.1569 31.4129 59.8633 31.6398 59.5029 31.8267C59.1426 32.0135 58.7756 32.1069 58.4019 32.1069C58.0282 32.1069 57.7612 32.0068 57.6011 31.8066C58.2951 31.1126 58.6421 30.4587 58.6421 29.8447C58.6421 29.6178 58.5487 29.1374 58.3618 28.4033C58.175 27.6559 58.0815 27.1021 58.0815 26.7417C58.0815 25.1134 58.7021 23.7988 59.9434 22.7979C60.4906 22.3441 61.2513 21.8836 62.2256 21.4165C63.1999 20.9494 64.321 20.7158 65.5889 20.7158C70.9141 20.7158 73.5767 23.6253 73.5767 29.4443C73.5767 30.8457 73.8436 32.1003 74.3774 33.208C74.631 33.7152 75.1916 34.2223 76.0591 34.7295C76.0591 34.7829 75.979 34.863 75.8188 34.9697C75.672 35.0765 75.4852 35.25 75.2583 35.4902C75.0314 35.7171 74.8045 36.0107 74.5776 36.3711C74.3507 36.7314 74.1572 37.252 73.9971 37.9326C73.8503 38.6133 73.7769 39.6143 73.7769 40.9355C73.7769 42.2568 73.9504 43.418 74.2974 44.4189C74.6444 45.4066 75.1515 46.2541 75.8188 46.9614C75.6987 47.1883 75.4451 47.4085 75.0581 47.6221C74.8713 47.7155 74.6043 47.7956 74.2573 47.8623C73.9237 47.9424 73.5299 47.9824 73.0762 47.9824C72.6357 47.9824 72.1886 47.869 71.7349 47.6421C70.6004 47.0815 69.7062 46.1473 69.0522 44.8394ZM62.9062 40.6953C62.9062 43.6982 63.5402 45.1997 64.8081 45.1997C65.342 45.1997 65.7424 45.0996 66.0093 44.8994C66.1694 44.7926 66.3096 44.6859 66.4297 44.5791C66.5498 44.4723 66.6499 44.3055 66.73 44.0786C66.8234 43.8517 66.9368 43.5648 67.0703 43.2178C67.2171 42.8708 67.2905 41.743 67.2905 39.8345C67.2905 39.8345 67.2905 38.68 67.2905 36.3711C67.2905 34.3291 67.2972 33.3081 67.3105 33.3081C66.9635 33.6685 66.4097 34.1356 65.6489 34.7095C64.8882 35.2834 64.2809 35.8639 63.8271 36.4512C63.2132 37.2386 62.9062 38.5065 62.9062 40.2549V40.6953ZM81.1841 24.4795L79.2222 24.7798C78.7951 24.7798 78.4614 24.5996 78.2212 24.2393C77.9943 23.8656 77.8809 23.4118 77.8809 22.8779C77.8809 22.3307 78.061 22.0171 78.4214 21.937C79.3957 21.7368 80.2832 21.3298 81.084 20.7158C81.8848 20.1019 82.5054 19.4346 82.9458 18.7139C83.84 17.2324 84.4006 15.9378 84.6274 14.8301L84.7876 14.1294C84.881 13.8892 85.0612 13.6956 85.3281 13.5488C85.6084 13.402 85.902 13.3286 86.209 13.3286C86.516 13.3286 86.7762 13.4087 86.9897 13.5688C87.2033 13.729 87.3101 13.9626 87.3101 14.2695C87.3101 14.2695 87.2567 16.0112 87.1499 19.4946C87.1499 20.3621 87.21 21.1763 87.3301 21.937L90.6133 21.4565C91.1338 21.4565 91.5609 21.61 91.8945 21.917C92.2282 22.2106 92.395 22.6444 92.395 23.2183C92.395 23.7788 92.2282 24.2126 91.8945 24.5195C91.5609 24.8132 91.1338 24.96 90.6133 24.96L87.3301 24.4795C87.3034 25.1602 87.29 26.2078 87.29 27.6226C87.29 29.0373 87.3501 30.1851 87.4702 31.0659C87.5903 31.9468 87.7371 32.5874 87.9106 32.9878C88.0975 33.3748 88.2777 33.6751 88.4512 33.8887C88.6247 34.1022 88.7715 34.269 88.8916 34.3892C89.0117 34.4959 89.0718 34.6027 89.0718 34.7095C89.0718 34.8162 88.9784 34.9631 88.7915 35.1499C88.6047 35.3234 88.3978 35.5503 88.1709 35.8306C87.9574 36.1108 87.7572 36.6647 87.5703 37.4922C87.3835 38.3197 87.29 39.3407 87.29 40.5552C87.29 44.0252 88.1842 45.7603 89.9727 45.7603C91.9479 45.7603 92.9355 43.2178 92.9355 38.1328C92.9355 37.8926 93.0957 37.7057 93.416 37.5723C93.7497 37.4388 94.1167 37.3721 94.5171 37.3721C94.9175 37.3721 95.2511 37.4455 95.5181 37.5923C95.785 37.7391 95.9185 37.9393 95.9185 38.1929C95.9185 43.8517 94.4303 47.1483 91.4541 48.0825C90.8135 48.2827 90.1261 48.3828 89.3921 48.3828C87.1499 48.3828 85.3415 47.6955 83.9668 46.3208C83.2194 47.4419 82.2251 48.0024 80.9839 48.0024C80.3032 48.0024 79.8561 47.9157 79.6426 47.7422C79.2956 47.4486 79.1021 47.175 79.062 46.9214C79.8361 46.4943 80.3232 46.0872 80.5234 45.7002C80.737 45.2998 80.8838 44.9862 80.9639 44.7593C81.0573 44.519 81.124 44.1387 81.1641 43.6182C81.2174 42.9108 81.2441 41.9766 81.2441 40.8154C81.2441 39.6543 81.1774 38.7134 81.0439 37.9927C80.9105 37.2586 80.7437 36.7114 80.5435 36.3511C80.3566 35.9907 80.1631 35.7038 79.9629 35.4902C79.7627 35.2767 79.5959 35.1232 79.4624 35.0298C79.3289 34.923 79.2622 34.8162 79.2622 34.7095C79.2622 34.6027 79.3289 34.4959 79.4624 34.3892C79.5959 34.269 79.7627 34.1022 79.9629 33.8887C80.1631 33.6751 80.3566 33.3682 80.5435 32.9678C81.0106 32.0335 81.2441 30.6388 81.2441 28.7837C81.2441 26.9285 81.2241 25.4938 81.1841 24.4795ZM110.993 44.479C109.725 45.8804 108.324 46.5811 106.789 46.5811C105.268 46.5811 103.893 46.3008 102.665 45.7402C101.451 45.1797 100.443 44.3255 99.6421 43.1777C98.8547 42.0299 98.4609 40.702 98.4609 39.1938C98.4609 38.2863 98.3675 37.5189 98.1807 36.8916C98.0072 36.251 97.807 35.8172 97.5801 35.5903C97.3665 35.3634 97.1663 35.1766 96.9795 35.0298C96.806 34.883 96.7192 34.7762 96.7192 34.7095C96.7192 34.6427 96.806 34.5226 96.9795 34.3491C97.1663 34.1623 97.3665 33.9287 97.5801 33.6484C97.807 33.3548 98.0072 32.7943 98.1807 31.9668C98.3675 31.126 98.4609 30.0382 98.4609 28.7036C98.4609 27.369 98.6878 26.1678 99.1416 25.1001C99.6087 24.019 100.243 23.1715 101.043 22.5576C102.605 21.3431 104.54 20.7358 106.849 20.7358C107.903 20.7358 108.998 20.9894 110.132 21.4966C111.28 22.0037 112.254 22.651 113.055 23.4385C113.629 22.4775 114.35 21.8035 115.217 21.4165C115.564 21.2563 115.991 21.1763 116.499 21.1763C117.019 21.1763 117.493 21.2497 117.92 21.3965C118.534 21.61 118.874 21.8836 118.941 22.2173C117.9 23.1248 117.179 24.0791 116.779 25.0801C116.392 26.0677 116.198 27.2489 116.198 28.6235C116.198 29.9982 116.265 31.0259 116.398 31.7065C116.532 32.3739 116.692 32.881 116.879 33.228C117.079 33.5617 117.279 33.8353 117.479 34.0488C117.68 34.249 117.847 34.4025 117.98 34.5093C118.113 34.6027 118.18 34.6961 118.18 34.7896C118.18 34.8696 118.073 35.0965 117.86 35.4702C117.66 35.8306 117.433 36.2243 117.179 36.6514C116.525 37.7725 116.198 38.8402 116.198 39.8545C116.198 40.8555 116.192 41.703 116.178 42.397C116.165 43.091 116.125 43.8918 116.058 44.7993C116.005 45.7069 115.925 46.4876 115.818 47.1416C115.711 47.8089 115.558 48.5229 115.357 49.2837C115.171 50.0578 114.944 50.7118 114.677 51.2456C114.41 51.7928 114.076 52.3333 113.676 52.8672C113.289 53.401 112.842 53.8281 112.334 54.1484C111.187 54.8691 109.819 55.2295 108.23 55.2295C106.656 55.2295 105.228 54.8491 103.946 54.0884C102.678 53.3276 101.831 52.2199 101.404 50.7651C101.164 49.7241 100.91 48.9233 100.643 48.3628C100.376 47.8022 100.009 47.3018 99.542 46.8613C99.7555 46.7012 100.076 46.6211 100.503 46.6211C100.943 46.6211 101.37 46.6945 101.784 46.8413C102.198 46.9881 102.525 47.1683 102.765 47.3818C103.019 47.5954 103.232 47.8156 103.406 48.0425C103.739 48.4562 103.906 48.7432 103.906 48.9033C103.906 48.8099 104.086 48.6898 104.447 48.543C104.981 48.3027 105.434 48.1826 105.808 48.1826C106.182 48.1826 106.529 48.2427 106.849 48.3628C107.503 48.603 107.83 48.8166 107.83 49.0034C107.83 49.0301 107.737 49.0501 107.55 49.0635C107.376 49.0768 107.169 49.1702 106.929 49.3438C106.502 49.6774 106.289 50.1712 106.289 50.8252C106.289 51.5192 106.669 52.0397 107.43 52.3867C107.777 52.5335 108.124 52.6069 108.471 52.6069C108.818 52.6069 109.138 52.5469 109.432 52.4268C109.725 52.3066 109.999 52.1198 110.252 51.8662C110.786 51.3057 111.053 50.4382 111.053 49.2637C111.053 48.7031 111.04 47.889 111.013 46.8213C111 45.7536 110.993 44.9728 110.993 44.479ZM109.051 34.8896C108.931 34.8096 108.871 34.7428 108.871 34.6895C108.871 34.6361 108.931 34.5693 109.051 34.4893C109.171 34.3958 109.312 34.2557 109.472 34.0688C109.645 33.8687 109.819 33.6084 109.992 33.2881C110.406 32.5007 110.613 31.186 110.613 29.3442C110.613 26.021 109.505 24.3594 107.29 24.3594C105.154 24.3594 104.086 26.021 104.086 29.3442C104.086 30.492 104.18 31.453 104.367 32.2271C104.554 32.9878 104.754 33.495 104.967 33.7485C105.181 34.0021 105.381 34.209 105.568 34.3691C105.755 34.5293 105.848 34.6361 105.848 34.6895C105.848 34.7428 105.788 34.8162 105.668 34.9097C105.548 34.9897 105.401 35.1232 105.228 35.3101C105.054 35.4836 104.881 35.7038 104.707 35.9707C104.293 36.5846 104.086 37.4989 104.086 38.7134C104.086 39.9279 104.407 40.8822 105.047 41.5762C105.701 42.2568 106.469 42.5972 107.35 42.5972C108.244 42.5972 109.011 42.2568 109.652 41.5762C110.292 40.8955 110.613 39.9412 110.613 38.7134C110.613 36.925 110.092 35.6504 109.051 34.8896ZM137.199 31.9668L136.658 32.147C135.564 32.147 134.776 31.5664 134.296 30.4053C134.096 29.9382 133.996 29.6045 133.996 29.4043V29.3843C133.488 29.6646 133.001 29.8047 132.534 29.8047C132.08 29.8047 131.707 29.7446 131.413 29.6245C131.133 29.5044 130.926 29.3643 130.792 29.2041C130.512 28.8438 130.339 28.4701 130.272 28.083C130.339 28.0964 130.445 28.103 130.592 28.103C131.353 28.103 131.98 27.8161 132.474 27.2422C132.981 26.6683 133.235 26.1411 133.235 25.6606C133.235 25.1668 133.181 24.7865 133.075 24.5195C132.981 24.2526 132.848 24.0257 132.674 23.8389C132.314 23.4385 131.934 23.2383 131.533 23.2383C131.133 23.2383 130.792 23.3317 130.512 23.5186C130.232 23.7054 129.965 23.9857 129.711 24.3594C129.178 25.2002 128.911 26.5148 128.911 28.3032C128.911 29.7179 129.071 30.859 129.391 31.7266C129.725 32.5807 129.998 33.208 130.212 33.6084C130.626 34.4092 130.913 34.8096 131.073 34.8096L130.672 35.1699C130.419 35.4102 130.179 35.6838 129.952 35.9907C129.725 36.2843 129.505 36.8049 129.291 37.5522C129.091 38.2863 128.991 39.334 128.991 40.6953C128.991 42.0566 129.171 43.2178 129.531 44.1787C129.892 45.1396 130.546 46.0539 131.493 46.9214C131.4 47.1883 131.166 47.4352 130.792 47.6621C130.432 47.889 130.025 48.0024 129.571 48.0024C128.237 48.0024 126.982 47.2884 125.808 45.8604C124.74 47.2884 123.646 48.0024 122.524 48.0024C121.991 48.0024 121.55 47.9224 121.203 47.7622C120.749 47.5487 120.469 47.2684 120.362 46.9214C121.297 46.0539 121.951 45.133 122.324 44.1587C122.698 43.1844 122.885 42.0633 122.885 40.7954C122.885 39.5142 122.831 38.5666 122.725 37.9526C122.631 37.3254 122.484 36.8249 122.284 36.4512C122.097 36.0775 121.931 35.7972 121.784 35.6104C121.65 35.4102 121.47 35.2233 121.243 35.0498C121.016 34.8763 120.896 34.7829 120.883 34.7695C120.883 34.7295 120.95 34.6628 121.083 34.5693C121.23 34.4626 121.397 34.3024 121.583 34.0889C121.784 33.8753 121.984 33.5951 122.184 33.248C122.651 32.4206 122.885 31.1326 122.885 29.3843C122.885 27.6359 122.685 26.2412 122.284 25.2002C121.884 24.1592 121.163 23.1649 120.122 22.2173C120.469 21.5233 121.317 21.1763 122.665 21.1763C124.026 21.1763 125.314 22.2039 126.528 24.2593C128.303 21.9237 130.339 20.7559 132.634 20.7559C135.41 20.7559 137.112 21.7835 137.739 23.8389C137.913 24.3994 138 25.02 138 25.7007C138 27.1955 137.512 28.7236 136.538 30.2852C136.498 30.3652 136.478 30.452 136.478 30.5454C136.478 30.6388 136.491 30.7256 136.518 30.8057C136.545 30.8857 136.585 30.9792 136.638 31.0859C136.692 31.1794 136.738 31.2661 136.778 31.3462C136.832 31.4129 136.905 31.5197 136.999 31.6665C137.092 31.8 137.159 31.9001 137.199 31.9668ZM152.173 44.8394C151.8 46.1873 151.072 47.1283 149.991 47.6621C149.484 47.9157 148.97 48.0959 148.45 48.2026C147.929 48.3228 147.255 48.3828 146.428 48.3828C145.6 48.3828 144.733 48.2093 143.825 47.8623C143.265 47.6488 142.764 47.3685 142.324 47.0215C141.897 46.6745 141.503 46.194 141.143 45.5801C140.782 44.9528 140.529 44.2454 140.382 43.458C140.235 42.6572 139.788 41.8031 139.041 40.8955C138.8 40.6152 138.68 40.4417 138.68 40.375C138.68 40.3083 138.914 40.008 139.381 39.4741C139.861 38.9269 140.162 38.373 140.282 37.8125C140.669 36.0107 141.55 34.7428 142.924 34.0088C143.525 33.6751 144.172 33.3949 144.866 33.168C145.56 32.9411 146.228 32.7342 146.868 32.5474C147.522 32.3605 148.116 32.1403 148.65 31.8867C149.184 31.6198 149.611 31.2394 149.931 30.7456C150.251 30.2384 150.412 29.5044 150.412 28.5435C150.412 27.5692 150.378 26.6683 150.312 25.8408C150.271 25.3337 150.198 24.9466 150.091 24.6797C149.998 24.4128 149.871 24.1525 149.711 23.8989C149.551 23.6453 149.344 23.4718 149.09 23.3784C148.837 23.2716 148.483 23.2183 148.029 23.2183C147.576 23.2183 147.182 23.4118 146.848 23.7988C146.514 24.1859 146.348 24.673 146.348 25.2603C146.348 25.8475 146.548 26.5615 146.948 27.4023C147.362 28.2298 147.923 28.7303 148.63 28.9038C148.27 29.758 147.669 30.1851 146.828 30.1851C146.001 30.1851 145.233 29.9115 144.526 29.3643C144.593 29.431 144.446 29.758 144.085 30.3452C143.925 30.6121 143.732 30.8791 143.505 31.146C143.278 31.4129 142.984 31.6398 142.624 31.8267C142.264 32.0135 141.897 32.1069 141.523 32.1069C141.149 32.1069 140.882 32.0068 140.722 31.8066C141.416 31.1126 141.763 30.4587 141.763 29.8447C141.763 29.6178 141.67 29.1374 141.483 28.4033C141.296 27.6559 141.203 27.1021 141.203 26.7417C141.203 25.1134 141.823 23.7988 143.064 22.7979C143.612 22.3441 144.372 21.8836 145.347 21.4165C146.321 20.9494 147.442 20.7158 148.71 20.7158C154.035 20.7158 156.698 23.6253 156.698 29.4443C156.698 30.8457 156.965 32.1003 157.499 33.208C157.752 33.7152 158.313 34.2223 159.18 34.7295C159.18 34.7829 159.1 34.863 158.94 34.9697C158.793 35.0765 158.606 35.25 158.379 35.4902C158.153 35.7171 157.926 36.0107 157.699 36.3711C157.472 36.7314 157.278 37.252 157.118 37.9326C156.971 38.6133 156.898 39.6143 156.898 40.9355C156.898 42.2568 157.071 43.418 157.418 44.4189C157.765 45.4066 158.273 46.2541 158.94 46.9614C158.82 47.1883 158.566 47.4085 158.179 47.6221C157.992 47.7155 157.725 47.7956 157.378 47.8623C157.045 47.9424 156.651 47.9824 156.197 47.9824C155.757 47.9824 155.31 47.869 154.856 47.6421C153.722 47.0815 152.827 46.1473 152.173 44.8394ZM146.027 40.6953C146.027 43.6982 146.661 45.1997 147.929 45.1997C148.463 45.1997 148.863 45.0996 149.13 44.8994C149.291 44.7926 149.431 44.6859 149.551 44.5791C149.671 44.4723 149.771 44.3055 149.851 44.0786C149.944 43.8517 150.058 43.5648 150.191 43.2178C150.338 42.8708 150.412 41.743 150.412 39.8345C150.412 39.8345 150.412 38.68 150.412 36.3711C150.412 34.3291 150.418 33.3081 150.432 33.3081C150.085 33.6685 149.531 34.1356 148.77 34.7095C148.009 35.2834 147.402 35.8639 146.948 36.4512C146.334 37.2386 146.027 38.5065 146.027 40.2549V40.6953ZM167.929 24.1792C170.077 21.8703 172.253 20.7158 174.455 20.7158C176.657 20.7158 178.439 21.4499 179.8 22.918C181.162 24.3727 181.842 26.4281 181.842 29.084C181.842 30.3252 181.929 31.3662 182.103 32.207C182.289 33.0479 182.49 33.6084 182.703 33.8887C182.917 34.1689 183.11 34.4025 183.284 34.5894C183.471 34.7629 183.564 34.883 183.564 34.9497C183.564 35.0031 183.504 35.0765 183.384 35.1699C183.264 35.25 183.117 35.3968 182.943 35.6104C182.783 35.8105 182.616 36.0775 182.443 36.4111C182.042 37.2253 181.842 38.4865 181.842 40.1948C181.842 41.8898 182.022 43.2178 182.383 44.1787C182.743 45.1396 183.397 46.0539 184.345 46.9214C183.984 47.6421 183.197 48.0024 181.982 48.0024C180.768 48.0024 179.607 47.2884 178.499 45.8604C177.431 47.2884 176.397 48.0024 175.396 48.0024C174.408 48.0024 173.821 47.6421 173.634 46.9214C174.422 46.0272 174.982 45.0729 175.316 44.0586C175.65 43.0309 175.816 41.8831 175.816 40.6152C175.816 39.334 175.75 38.373 175.616 37.7324C175.483 37.0918 175.316 36.6047 175.116 36.271C174.929 35.924 174.735 35.6437 174.535 35.4302C174.348 35.2166 174.188 35.0632 174.055 34.9697C173.921 34.863 173.854 34.7896 173.854 34.7495C173.854 34.6961 173.955 34.556 174.155 34.3291C174.368 34.1022 174.595 33.8286 174.835 33.5083C175.076 33.1746 175.296 32.6141 175.496 31.8267C175.71 31.0392 175.816 30.125 175.816 29.084C175.816 25.694 175.029 23.999 173.454 23.999C172.453 23.999 171.626 24.4528 170.972 25.3604C170.318 26.2679 169.991 27.6292 169.991 29.4443C169.991 30.4854 170.077 31.3796 170.251 32.127C170.438 32.8743 170.638 33.3949 170.852 33.6885C171.078 33.9688 171.279 34.2023 171.452 34.3892C171.639 34.576 171.732 34.6961 171.732 34.7495C171.732 34.8029 171.672 34.883 171.552 34.9897C171.432 35.0965 171.285 35.27 171.112 35.5103C170.952 35.7371 170.792 36.0241 170.631 36.3711C170.231 37.2653 170.031 38.5532 170.031 40.2349C170.031 41.9032 170.211 43.2178 170.571 44.1787C170.932 45.1396 171.586 46.0539 172.533 46.9214C172.44 47.1883 172.206 47.4352 171.833 47.6621C171.472 47.889 171.065 48.0024 170.611 48.0024C169.277 48.0024 168.022 47.2884 166.848 45.8604C165.78 47.2884 164.686 48.0024 163.564 48.0024C163.031 48.0024 162.59 47.9224 162.243 47.7622C161.789 47.5487 161.509 47.2684 161.402 46.9214C162.337 46.0539 162.991 45.133 163.364 44.1587C163.738 43.1844 163.925 42.0633 163.925 40.7954C163.925 39.5142 163.871 38.5666 163.765 37.9526C163.671 37.3254 163.524 36.8249 163.324 36.4512C163.137 36.0775 162.971 35.7972 162.824 35.6104C162.69 35.4102 162.51 35.2233 162.283 35.0498C162.056 34.8763 161.936 34.7829 161.923 34.7695C161.923 34.7295 161.99 34.6628 162.123 34.5693C162.27 34.4626 162.437 34.3024 162.624 34.0889C162.824 33.8753 163.024 33.5951 163.224 33.248C163.691 32.4206 163.925 31.1326 163.925 29.3843C163.925 27.6359 163.725 26.2412 163.324 25.2002C162.924 24.1592 162.203 23.1649 161.162 22.2173C161.509 21.5233 162.43 21.1763 163.925 21.1763C165.433 21.1763 166.768 22.1772 167.929 24.1792Z" fill="#ECF0F5"/>
<g filter="url(#filter0_d)">
<path d="M210 61L34 61C17.9837 61 5 48.0163 5 32L5 6L181 6C197.016 6 210 18.9837 210 35V61Z" stroke="#FEC88C" stroke-width="2"/>
</g>
<defs>
<filter id="filter0_d" x="0" y="5" width="215" height="65" filterUnits="userSpaceOnUse" color-interpolation-filters="sRGB">
<feFlood flood-opacity="0" result="BackgroundImageFix"/>
<feColorMatrix in="SourceAlpha" type="matrix" values="0 0 0 0 0 0 0 0 0 0 0 0 0 0 0 0 0 0 127 0"/>
<feOffset dy="4"/>
<feGaussianBlur stdDeviation="2"/>
<feColorMatrix type="matrix" values="0 0 0 0 0 0 0 0 0 0 0 0 0 0 0 0 0 0 0.25 0"/>
<feBlend mode="normal" in2="BackgroundImageFix" result="effect1_dropShadow"/>
<feBlend mode="normal" in="SourceGraphic" in2="effect1_dropShadow" result="shape"/>
</filter>
</defs>
</svg>
