<svg width="58" height="36" viewBox="0 0 58 36" fill="none" xmlns="http://www.w3.org/2000/svg">
<rect width="57.5" height="36" rx="5" fill="#3C5B3F"/>
<path fill-rule="evenodd" clip-rule="evenodd" d="M48 18.8081C48 25.3296 42.778 30.6157 36.335 30.6157C29.8932 30.6157 24.6707 25.3296 24.6707 18.8081C24.6707 12.2864 29.8932 7 36.335 7C42.778 7 48 12.2864 48 18.8081Z" fill="#D82332"/>
<path fill-rule="evenodd" clip-rule="evenodd" d="M27.3188 26.3063C26.9967 25.9109 26.7001 25.4933 26.4304 25.0559H30.5645C30.8126 24.6551 31.0366 24.2375 31.2366 23.8055H25.7586C25.5718 23.4009 25.4061 22.9837 25.2647 22.5554H31.7296C32.119 21.3778 32.3294 20.1182 32.3294 18.8081C32.3294 17.9501 32.239 17.1134 32.0676 16.3077H24.9276C25.018 15.8816 25.1319 15.4648 25.2661 15.0572H31.7289C31.5871 14.629 31.4221 14.2119 31.2355 13.8074H25.7597C25.9597 13.3754 26.1842 12.9585 26.4317 12.5568H30.5632C30.2936 12.1205 29.9963 11.7035 29.6747 11.3075H27.3203C27.6825 10.8623 28.0762 10.4447 28.4976 10.0576C26.427 8.15767 23.6793 7 20.6652 7C14.2226 7 9 12.2864 9 18.8081C9 25.3296 14.2226 30.6157 20.6652 30.6157C23.6795 30.6157 26.4276 29.4586 28.4976 27.5588C28.9196 27.1712 29.3138 26.7525 29.676 26.3063H27.3188Z" fill="#0092C7"/>
<path fill-rule="evenodd" clip-rule="evenodd" d="M46.4252 25.295C46.4252 25.0847 46.5939 24.9137 46.8021 24.9137C47.0102 24.9137 47.1787 25.0847 47.1787 25.295C47.1787 25.5054 47.0102 25.6766 46.8021 25.6766C46.5939 25.6766 46.4252 25.5054 46.4252 25.295ZM46.8021 25.5849C46.9602 25.5849 47.0886 25.4552 47.0886 25.2949C47.0886 25.1348 46.9602 25.0059 46.8021 25.0059C46.6441 25.0059 46.5156 25.1348 46.5156 25.2949C46.5156 25.4552 46.6441 25.5849 46.8021 25.5849ZM46.7512 25.4625H46.6741V25.1272H46.8139C46.8428 25.1272 46.8727 25.1276 46.8985 25.1444C46.9254 25.163 46.9403 25.1953 46.9403 25.2278C46.9403 25.2664 46.9184 25.3011 46.883 25.3145L46.9438 25.4625H46.8581L46.8078 25.3302H46.7512V25.4625ZM46.7512 25.2729H46.7938C46.8098 25.2729 46.8268 25.2737 46.841 25.2664C46.8537 25.2576 46.8603 25.2423 46.8603 25.2274C46.8603 25.2151 46.8524 25.2001 46.8417 25.1936C46.8281 25.1856 46.8067 25.1873 46.7923 25.1873H46.7512V25.2729Z" fill="#D82332"/>
<path fill-rule="evenodd" clip-rule="evenodd" d="M42.426 19.2216C42.426 20.3255 41.9788 20.9788 41.2721 20.9788C40.7572 20.9865 40.4451 20.5496 40.4451 19.895C40.4451 19.1193 40.9006 18.2431 41.6325 18.2431C42.2234 18.2431 42.426 18.7172 42.426 19.2216ZM43.9842 19.2526C43.9842 18.0304 43.1909 17.0764 41.6969 17.0764C39.9781 17.0764 38.8664 18.236 38.8664 19.9443C38.8664 21.1669 39.522 22.1673 41.151 22.1673C42.7944 22.1673 43.9842 21.2789 43.9842 19.2526Z" fill="#0C2D5A"/>
<path fill-rule="evenodd" clip-rule="evenodd" d="M36.3711 17.1302C36.1876 18.6452 35.8628 20.1811 35.6091 21.6989L35.5479 22.0296H37.0058C37.5313 19.0979 37.7077 18.263 38.8089 18.5568L39.3386 17.1697C38.5703 16.8844 38.076 17.292 37.6288 17.871C37.669 17.6105 37.7449 17.3588 37.7267 17.1302H36.3711Z" fill="#0C2D5A"/>
<path fill-rule="evenodd" clip-rule="evenodd" d="M35.1611 21.948C34.7633 22.0583 34.453 22.1065 34.1177 22.1065C33.3747 22.1065 32.9689 21.7221 32.9689 21.0376C32.9457 20.8495 33.1271 19.9807 33.1684 19.7387C33.2093 19.4959 33.8529 15.9568 33.8529 15.9568H35.2965L35.0782 17.128H35.8186L35.6174 18.3228H34.8739C34.8739 18.3228 34.4657 20.3972 34.4657 20.5558C34.4657 20.8072 34.6162 20.9165 34.9618 20.9165C35.1272 20.9165 35.2548 20.9008 35.3534 20.871L35.1611 21.948Z" fill="#0C2D5A"/>
<path fill-rule="evenodd" clip-rule="evenodd" d="M29.2859 18.7361C29.2859 19.3545 29.6299 19.782 30.412 20.1001C31.0101 20.3479 31.1041 20.4198 31.1041 20.6413C31.1041 20.9482 30.8401 21.0889 30.2534 21.0852C29.813 21.082 29.4109 21.0277 28.9365 20.8947L28.7266 22.0231C29.1484 22.1221 29.7396 22.1546 30.2638 22.1669C31.8251 22.1669 32.546 21.6495 32.546 20.531C32.546 19.8585 32.2453 19.4631 31.5038 19.1682C30.8839 18.9175 30.8113 18.8635 30.8113 18.6366C30.8113 18.37 31.0569 18.2351 31.5357 18.2351C31.826 18.2351 32.2233 18.2623 32.6005 18.3084L32.812 17.174C32.4278 17.1199 31.845 17.0764 31.5075 17.0764C29.8534 17.0764 29.2809 17.8303 29.2859 18.7361Z" fill="#0C2D5A"/>
<path fill-rule="evenodd" clip-rule="evenodd" d="M28.4492 21.9697C27.9506 22.1033 27.4685 22.1686 26.959 22.1675C25.3331 22.166 24.4863 21.4164 24.4863 19.9829C24.4863 18.3084 25.5643 17.0764 27.0276 17.0764C28.2244 17.0764 28.9884 17.7672 28.9884 18.849C28.9884 19.2082 28.9368 19.5581 28.8101 20.0525H25.9188C25.8159 20.7527 26.3209 21.06 27.1806 21.06C27.6955 21.06 28.161 20.9663 28.6768 20.7564L28.4492 21.9697ZM27.6717 19.0649C27.6717 18.9592 27.8325 18.2078 26.9957 18.1912C26.5337 18.1912 26.2024 18.5023 26.0683 19.0649H27.6717Z" fill="#0C2D5A"/>
<path fill-rule="evenodd" clip-rule="evenodd" d="M23.5569 22.0865H22.344L22.373 21.5724C22.0031 21.9781 21.5103 22.1671 20.8418 22.1671C20.0506 22.1671 19.5085 21.6194 19.5085 20.8318C19.5085 19.6346 20.4508 18.9438 22.071 18.9438C22.2376 18.9438 22.4493 18.9568 22.6668 18.9815C22.7118 18.8212 22.724 18.7521 22.724 18.665C22.724 18.3373 22.469 18.217 21.7872 18.217C21.1151 18.2194 20.6615 18.3201 20.2406 18.4347L20.4479 17.3362C21.1757 17.1488 21.6521 17.0764 22.1914 17.0764C23.4459 17.0764 24.1085 17.5745 24.1085 18.5103C24.119 18.7601 24.0333 19.2614 23.99 19.4808C23.9409 19.7997 23.5932 21.65 23.5569 22.0865ZM22.4922 19.9023C22.3386 19.887 22.2717 19.8824 22.1664 19.8824C21.3392 19.8824 20.9198 20.1317 20.9198 20.6237C20.9198 20.9327 21.1244 21.1259 21.4436 21.1259C22.0379 21.1259 22.4671 20.6226 22.4922 19.9023Z" fill="#0C2D5A"/>
<path fill-rule="evenodd" clip-rule="evenodd" d="M18.8275 22.13H17.3753L18.2383 17.5279L16.2515 22.13H14.9279L14.6859 17.5545L13.8201 22.13H12.5029L13.6249 16.1435H15.894L16.083 19.4808L17.5206 16.1435H19.9721L18.8275 22.13Z" fill="#0C2D5A"/>
<path fill-rule="evenodd" clip-rule="evenodd" d="M44.0285 21.376C44.0285 21.1657 44.1972 20.9951 44.4053 20.9951C44.6135 20.9951 44.782 21.1657 44.782 21.376C44.782 21.587 44.6135 21.7579 44.4053 21.7579C44.1972 21.7579 44.0285 21.587 44.0285 21.376ZM44.4053 21.6665C44.5635 21.6665 44.6918 21.5363 44.6918 21.376C44.6918 21.216 44.5635 21.0865 44.4053 21.0865C44.2473 21.0865 44.1188 21.216 44.1188 21.376C44.1188 21.5363 44.2473 21.6665 44.4053 21.6665ZM44.3544 21.5435H44.2772V21.2091H44.4171C44.446 21.2091 44.4759 21.2091 44.5017 21.2257C44.5283 21.244 44.5436 21.2761 44.5436 21.3093C44.5436 21.3472 44.5216 21.3825 44.4862 21.3959L44.5471 21.5435H44.4613L44.411 21.4112H44.3544V21.5435ZM44.3544 21.3538H44.397C44.413 21.3538 44.43 21.3549 44.4442 21.3472C44.4567 21.3388 44.4635 21.3239 44.4635 21.3086C44.4635 21.2957 44.4556 21.2812 44.4449 21.275C44.4313 21.2662 44.4099 21.2685 44.3955 21.2685H44.3544V21.3538Z" fill="#FFFFFE"/>
<path fill-rule="evenodd" clip-rule="evenodd" d="M42.7948 18.8484C42.7948 19.9523 42.3475 20.6056 41.6408 20.6056C41.1259 20.6133 40.8138 20.1764 40.8138 19.5218C40.8138 18.7461 41.2694 17.8699 42.0013 17.8699C42.5921 17.8699 42.7948 18.344 42.7948 18.8484ZM44.353 18.8794C44.353 17.6572 43.5597 16.7032 42.0656 16.7032C40.3468 16.7032 39.2351 17.8628 39.2351 19.5711C39.2351 20.7937 39.8907 21.7941 41.5197 21.7941C43.1631 21.7941 44.353 20.9057 44.353 18.8794Z" fill="#FFFFFE"/>
<path fill-rule="evenodd" clip-rule="evenodd" d="M36.7398 16.757C36.5564 18.272 36.2315 19.8079 35.9778 21.3257L35.9166 21.6564H37.3745C37.9 18.7247 38.0764 17.8898 39.1776 18.1836L39.7073 16.7965C38.939 16.5112 38.4448 16.9188 37.9975 17.4978C38.0377 17.2373 38.1137 16.9856 38.0954 16.757H36.7398Z" fill="#FFFFFE"/>
<path fill-rule="evenodd" clip-rule="evenodd" d="M35.5297 21.5748C35.1317 21.6853 34.8216 21.7333 34.4861 21.7333C33.7431 21.7333 33.3377 21.3489 33.3377 20.6644C33.3141 20.4763 33.4957 19.6075 33.5368 19.3655C33.5781 19.1227 34.2217 15.5836 34.2217 15.5836H35.665L35.4469 16.7542H36.1873L35.986 17.9498H35.2425C35.2425 17.9498 34.8341 20.024 34.8341 20.1819C34.8341 20.4342 34.9849 20.5428 35.3304 20.5428C35.4956 20.5428 35.6232 20.5278 35.7224 20.4976L35.5297 21.5748Z" fill="#FFFFFE"/>
<path fill-rule="evenodd" clip-rule="evenodd" d="M29.655 18.3621C29.655 18.9811 29.9988 19.4082 30.7809 19.7267C31.3791 19.9747 31.473 20.0464 31.473 20.2673C31.473 20.5748 31.2088 20.7155 30.6227 20.712C30.1817 20.7086 29.7796 20.6543 29.3056 20.5213L29.0953 21.6493C29.5173 21.7488 30.1089 21.7812 30.6325 21.7935C32.1938 21.7935 32.915 21.2761 32.915 20.1572C32.915 19.4853 32.6142 19.0893 31.8727 18.7949C31.2528 18.5443 31.18 18.4896 31.18 18.2632C31.18 17.9966 31.426 17.8617 31.9046 17.8617C32.1949 17.8617 32.592 17.8889 32.9694 17.935L33.1809 16.8007C32.7967 16.746 32.2139 16.7032 31.8767 16.7032C30.2223 16.7032 29.6498 17.4566 29.655 18.3621Z" fill="#FFFFFE"/>
<path fill-rule="evenodd" clip-rule="evenodd" d="M28.8175 21.5963C28.3194 21.7301 27.8371 21.7952 27.3277 21.7941C25.7018 21.7928 24.855 21.043 24.855 19.6096C24.855 17.935 25.9328 16.7032 27.3959 16.7032C28.593 16.7032 29.3571 17.3939 29.3571 18.4758C29.3571 18.835 29.3053 19.1839 29.1788 19.6793H26.2877C26.1846 20.3787 26.6892 20.6866 27.5489 20.6866C28.0638 20.6866 28.5297 20.5929 29.0454 20.3826L28.8175 21.5963ZM28.04 18.6915C28.04 18.5861 28.201 17.8344 27.3644 17.8178C26.9025 17.8178 26.5711 18.1289 26.4367 18.6915H28.04Z" fill="#FFFFFE"/>
<path fill-rule="evenodd" clip-rule="evenodd" d="M23.926 21.7133H22.7127L22.742 21.199C22.372 21.6043 21.8796 21.7932 21.2109 21.7932C20.4198 21.7932 19.8773 21.2457 19.8773 20.458C19.8773 19.2612 20.8197 18.5706 22.4399 18.5706C22.6063 18.5706 22.818 18.5834 23.0359 18.6075C23.0809 18.4474 23.0929 18.3787 23.0929 18.2918C23.0929 17.9636 22.8381 17.843 22.1565 17.843C21.4841 17.8462 21.0306 17.9469 20.6099 18.0613L20.8166 16.9628C21.5446 16.7755 22.0208 16.7032 22.5604 16.7032C23.815 16.7032 24.4774 17.2011 24.4774 18.1369C24.4883 18.3868 24.402 18.8874 24.3592 19.1074C24.3097 19.4263 23.9621 21.2767 23.926 21.7133ZM22.8611 19.5291C22.7077 19.5131 22.6406 19.5092 22.5352 19.5092C21.7083 19.5092 21.2887 19.7579 21.2887 20.2496C21.2887 20.559 21.4937 20.7525 21.8123 20.7525C22.407 20.7525 22.8362 20.2488 22.8611 19.5291Z" fill="#FFFFFE"/>
<path fill-rule="evenodd" clip-rule="evenodd" d="M19.1964 21.757H17.7446L18.6074 17.1547L16.6204 21.757H15.2967L15.0548 17.1815L14.189 21.757H12.8716L13.9936 15.7703H16.2631L16.3829 19.4765L17.9802 15.7703H20.341L19.1964 21.757Z" fill="#FFFFFE"/>
</svg>
