<svg width="58" height="36" viewBox="0 0 58 36" fill="none" xmlns="http://www.w3.org/2000/svg">
<rect x="-0.00012207" width="57.5" height="36" rx="5" fill="#3C5B3F"/>
<path fill-rule="evenodd" clip-rule="evenodd" d="M33.1928 17.6695C33.1928 24.1146 28.0012 29.3387 21.5968 29.3387C15.1919 29.3387 10 24.1146 10 17.6695C10 11.2246 15.1919 6 21.5968 6C28.0012 6 33.1928 11.2246 33.1928 17.6695Z" fill="#D82332"/>
<path fill-rule="evenodd" clip-rule="evenodd" d="M37.2796 6C34.2828 6 31.5528 7.14392 29.4944 9.02051C29.0758 9.40299 28.6848 9.81608 28.3243 10.2559H30.6669C30.9869 10.648 31.2819 11.0601 31.5509 11.4918H27.4397C27.194 11.8885 26.9702 12.3007 26.7717 12.7278H32.2189C32.4051 13.1278 32.569 13.5398 32.7101 13.9632H26.2806C26.1466 14.3658 26.0339 14.7779 25.9436 15.1984H33.0465C33.2164 15.995 33.3069 16.8216 33.3069 17.6695C33.3069 18.965 33.0973 20.212 32.7101 21.3766H26.2806C26.4215 21.7998 26.5855 22.2122 26.7714 22.6127H32.2189C32.0199 23.0387 31.7972 23.4513 31.55 23.8485H27.4397C27.708 24.2789 28.0036 24.6916 28.3243 25.0831H30.6662C30.3062 25.5233 29.915 25.9364 29.495 26.3189C31.5531 28.1955 34.2828 29.3387 37.2796 29.3387C43.684 29.3387 48.8759 24.1146 48.8759 17.6695C48.8759 11.2252 43.684 6 37.2796 6Z" fill="#F1AB3E"/>
<path fill-rule="evenodd" clip-rule="evenodd" d="M47.2017 24.0805C47.2017 23.8725 47.3695 23.7037 47.5764 23.7037C47.7837 23.7037 47.9508 23.8725 47.9508 24.0805C47.9508 24.2887 47.7837 24.4576 47.5764 24.4576C47.3695 24.4576 47.2017 24.2887 47.2017 24.0805ZM47.5764 24.3673C47.7331 24.3673 47.861 24.2387 47.861 24.0805C47.861 23.9217 47.7331 23.7943 47.5764 23.7943C47.419 23.7943 47.2915 23.9217 47.2915 24.0805C47.2915 24.2387 47.419 24.3673 47.5764 24.3673ZM47.5257 24.2459H47.4487V23.9153H47.5882C47.6169 23.9153 47.6466 23.9153 47.6723 23.9311C47.6985 23.9499 47.7139 23.9815 47.7139 24.0143C47.7139 24.0517 47.6924 24.0868 47.6567 24.1L47.7175 24.2459H47.6323L47.5817 24.1152H47.5257V24.2459ZM47.5257 24.0582H47.5682C47.5839 24.0582 47.6008 24.0593 47.6151 24.0517C47.6276 24.0434 47.6343 24.0287 47.6343 24.0136C47.6343 24.001 47.6259 23.9863 47.6155 23.9798C47.6019 23.9719 47.5806 23.9735 47.5663 23.9735H47.5257V24.0582Z" fill="#F1AB3E"/>
<path fill-rule="evenodd" clip-rule="evenodd" d="M47.2017 20.3926C47.2017 20.1836 47.3699 20.0154 47.5757 20.0154C47.783 20.0154 47.9501 20.1836 47.9501 20.3926C47.9501 20.6 47.783 20.7693 47.5757 20.7693C47.3699 20.7693 47.2017 20.6 47.2017 20.3926ZM47.5757 20.679C47.7335 20.679 47.861 20.5504 47.861 20.3926C47.861 20.2345 47.7335 20.106 47.5757 20.106C47.4186 20.106 47.2915 20.2345 47.2915 20.3926C47.2915 20.5504 47.4186 20.679 47.5757 20.679ZM47.5253 20.5573H47.4487V20.2266H47.5878C47.6169 20.2266 47.6462 20.2277 47.6717 20.2436C47.6988 20.2615 47.7135 20.2932 47.7135 20.326C47.7135 20.3634 47.6921 20.3985 47.6571 20.4117L47.7175 20.5573H47.6323L47.5817 20.4265H47.5253V20.5573ZM47.5253 20.3699H47.5678C47.5832 20.3699 47.6012 20.3714 47.6147 20.3634C47.6272 20.3555 47.6336 20.3396 47.6336 20.3253C47.6336 20.3127 47.6263 20.2987 47.6155 20.291C47.6023 20.2836 47.5806 20.2856 47.5663 20.2856H47.5253V20.3699Z" fill="#FFFFFE"/>
<path fill-rule="evenodd" clip-rule="evenodd" d="M46.0154 15.0363L45.7356 16.7464C45.392 16.2907 45.0222 15.9606 44.534 15.9606C43.8986 15.9606 43.3206 16.4452 42.942 17.1589C42.4146 17.0488 41.8699 16.8616 41.8699 16.8616L41.8696 16.8662C41.9114 16.4673 41.9293 16.2246 41.9251 16.1417H40.7685C40.6115 17.6319 40.3311 19.1408 40.1125 20.6316L40.0546 20.9554H41.3145C41.4844 19.8445 41.6143 18.921 41.7103 18.1896C42.1408 17.7981 42.3563 17.4573 42.7904 17.4794C42.598 17.9482 42.4855 18.4878 42.4855 19.0414C42.4855 20.2443 43.0901 21.0386 44.0056 21.0386C44.4671 21.0386 44.821 20.8783 45.1664 20.5073L45.107 20.955H46.2982L47.257 15.0363H46.0154ZM44.4409 19.8434C44.0124 19.8434 43.7956 19.5236 43.7956 18.8944C43.7956 17.9482 44.2012 17.2775 44.772 17.2775C45.2047 17.2775 45.4391 17.6087 45.4391 18.2202C45.4391 19.1745 45.0268 19.8434 44.4409 19.8434Z" fill="#0C2D5A"/>
<path fill-rule="evenodd" clip-rule="evenodd" d="M38.7782 18.9199C38.6468 18.9044 38.5885 18.9001 38.498 18.9001C37.7845 18.9001 37.4233 19.1461 37.4233 19.6324C37.4233 19.9317 37.5996 20.1233 37.8745 20.1233C38.3869 20.1233 38.7571 19.6321 38.7782 18.9199ZM39.6945 21.064C39.527 21.064 38.6515 21.064 38.6515 21.064L38.6752 20.5656C38.3568 20.9593 37.9324 21.1476 37.3561 21.1476C36.6732 21.1476 36.2061 20.6109 36.2061 19.8323C36.2061 18.6598 37.0191 17.9771 38.416 17.9771C38.5588 17.9771 38.7413 17.9902 38.9284 18.0146C38.9675 17.8552 38.9779 17.7875 38.9779 17.7012C38.9779 17.3829 38.7593 17.2644 38.1708 17.2644C37.5551 17.257 37.0476 17.4113 36.8382 17.4801C36.8516 17.4005 37.0128 16.3978 37.0128 16.3978C37.6403 16.2127 38.0537 16.1428 38.5194 16.1428C39.6004 16.1428 40.1733 16.6316 40.172 17.5544C40.1744 17.8017 40.1337 18.1077 40.0703 18.5082C39.9611 19.2048 39.7267 20.7007 39.6945 21.064Z" fill="#0C2D5A"/>
<path fill-rule="evenodd" clip-rule="evenodd" d="M35.4573 16.318C35.807 16.318 36.1334 16.4094 36.5824 16.6374L36.7885 15.3529C36.6034 15.2799 35.9545 14.8519 35.4047 14.8519C34.5625 14.8519 33.8494 15.2731 33.3491 15.9666C32.6183 15.7232 32.3176 16.2152 31.9496 16.7058L31.6224 16.7825C31.6472 16.6211 31.6697 16.4607 31.6626 16.2984H30.5057C30.3482 17.7887 30.0684 19.2975 29.8492 20.7883L29.7921 21.1122H31.0516C31.2616 19.7375 31.3765 18.8577 31.4467 18.2617L31.921 17.9972C31.9923 17.7315 32.2135 17.6422 32.6582 17.6531C32.6003 17.967 32.5688 18.2976 32.5688 18.6397C32.5688 20.2148 33.4142 21.1953 34.769 21.1953C35.1179 21.1953 35.4179 21.1492 35.8821 21.022L36.1026 19.6732C35.6853 19.8795 35.3435 19.9767 35.0335 19.9767C34.3015 19.9767 33.8588 19.4329 33.8588 18.5346C33.8588 17.231 34.517 16.318 35.4573 16.318Z" fill="#0C2D5A"/>
<path fill-rule="evenodd" clip-rule="evenodd" d="M29.359 20.9528C28.9291 21.0852 28.5136 21.1479 28.0747 21.1476C26.6735 21.1466 25.9436 20.4099 25.9436 19.0003C25.9436 17.3544 26.8723 16.1428 28.133 16.1428C29.1656 16.1428 29.8243 16.821 29.8243 17.8857C29.8243 18.2384 29.7785 18.5827 29.6703 19.069H27.1782C27.0935 19.7674 27.5379 20.0588 28.2657 20.0588C28.7134 20.0588 29.1176 19.9655 29.5673 19.7552L29.359 20.9528ZM28.6556 18.0983C28.6624 17.9976 28.7881 17.2391 28.0731 17.2391C27.6747 17.2391 27.3897 17.5454 27.2735 18.0983H28.6556Z" fill="#0C2D5A"/>
<path fill-rule="evenodd" clip-rule="evenodd" d="M25.4611 21.0583C25.1167 21.1675 24.8481 21.2149 24.5569 21.2149C23.9132 21.2149 23.5618 20.8425 23.5618 20.1578C23.553 19.9443 23.6547 19.3857 23.7346 18.8745C23.8071 18.4243 24.2805 15.5895 24.2805 15.5895H25.5318L25.3856 16.3179H26.0279L25.8569 17.4746H25.2124C25.067 18.3908 24.8596 19.5304 24.8572 19.6817C24.8572 19.9306 24.9892 20.0383 25.2886 20.0383C25.4319 20.0383 25.543 20.0241 25.628 19.9929L25.4611 21.0583Z" fill="#0C2D5A"/>
<path fill-rule="evenodd" clip-rule="evenodd" d="M20.5558 17.7722C20.5558 18.3817 20.8493 18.8007 21.5148 19.1166C22.0244 19.3578 22.1032 19.4292 22.1032 19.6479C22.1032 19.948 21.8785 20.0833 21.3802 20.0833C21.0046 20.0833 20.6553 20.0247 20.2521 19.8939C20.2521 19.8939 20.0872 20.9545 20.0793 21.0046C20.3654 21.0677 20.6206 21.1253 21.3892 21.1476C22.7179 21.1476 23.3314 20.6388 23.3314 19.5387C23.3314 18.8771 23.0745 18.4891 22.4439 18.1977C21.9161 17.9533 21.8554 17.8993 21.8554 17.6743C21.8554 17.4141 22.0645 17.2802 22.4716 17.2802C22.7184 17.2802 23.0562 17.3079 23.3761 17.3533L23.5554 16.237C23.2293 16.1852 22.7353 16.1428 22.4472 16.1428C21.0388 16.1428 20.5515 16.883 20.5558 17.7722Z" fill="#0C2D5A"/>
<path fill-rule="evenodd" clip-rule="evenodd" d="M18.9871 18.9199C18.8551 18.9044 18.7968 18.9001 18.7061 18.9001C17.9925 18.9001 17.6313 19.1461 17.6313 19.6324C17.6313 19.9317 17.8076 20.1233 18.0827 20.1233C18.5956 20.1233 18.9653 19.6321 18.9871 18.9199ZM19.9026 21.064C19.7349 21.064 18.8597 21.064 18.8597 21.064L18.8835 20.5656C18.5654 20.9593 18.1408 21.1476 17.564 21.1476C16.8818 21.1476 16.4141 20.6109 16.4141 19.8323C16.4141 18.6598 17.2276 17.9771 18.6242 17.9771C18.7671 17.9771 18.95 17.9902 19.1373 18.0146C19.1764 17.8552 19.1866 17.7875 19.1866 17.7012C19.1866 17.3829 18.9673 17.2644 18.3794 17.2644C17.7631 17.257 17.2554 17.4113 17.0465 17.4801C17.0597 17.4005 17.2212 16.3978 17.2212 16.3978C17.8485 16.2127 18.2623 16.1428 18.7279 16.1428C19.809 16.1428 20.3815 16.6316 20.3804 17.5544C20.3826 17.8017 20.3419 18.1077 20.2787 18.5082C20.1693 19.2048 19.9347 20.7007 19.9026 21.064Z" fill="#0C2D5A"/>
<path fill-rule="evenodd" clip-rule="evenodd" d="M15.7813 21.1393H14.5225L15.2438 16.5894L13.6335 21.1393H12.7755L12.6694 16.6158L11.9114 21.1393H10.7331L11.7173 15.2207H13.5278L13.5782 18.8846L14.7998 15.2207H16.755L15.7813 21.1393Z" fill="#0C2D5A"/>
<path fill-rule="evenodd" clip-rule="evenodd" d="M46.7992 20.7704H45.6086L45.6676 20.3225C45.3222 20.6937 44.9681 20.854 44.5068 20.854C43.5918 20.854 42.9867 20.0606 42.9867 18.8564C42.9867 17.2553 43.9252 15.9058 45.035 15.9058C45.5234 15.9058 45.893 16.1064 46.2374 16.5623L46.5166 14.8519H47.7582L46.7992 20.7704ZM44.9421 19.6582C45.5287 19.6582 45.9403 18.9897 45.9403 18.0363C45.9403 17.4246 45.7059 17.0925 45.273 17.0925C44.7022 17.0925 44.2966 17.7632 44.2966 18.7098C44.2966 19.3399 44.514 19.6582 44.9421 19.6582Z" fill="#FFFFFE"/>
<path fill-rule="evenodd" clip-rule="evenodd" d="M41.1349 15.8256C40.9773 17.3155 40.6974 18.8246 40.4784 20.3152L40.4211 20.639H41.6803C42.1305 17.6954 42.239 17.121 42.9457 17.1927C43.058 16.5902 43.2673 16.0626 43.4234 15.7967C42.8962 15.686 42.6017 15.9859 42.2157 16.5557C42.2465 16.3092 42.3021 16.07 42.2916 15.8256H41.1349Z" fill="#FFFFFE"/>
<path fill-rule="evenodd" clip-rule="evenodd" d="M39.1447 18.5511C39.0133 18.5356 38.955 18.5313 38.8645 18.5313C38.151 18.5313 37.7898 18.7773 37.7898 19.2636C37.7898 19.5629 37.9661 19.7545 38.241 19.7545C38.7534 19.7545 39.1236 19.2633 39.1447 18.5511ZM40.061 20.6952C39.8935 20.6952 39.018 20.6952 39.018 20.6952L39.0417 20.1968C38.7234 20.5905 38.2989 20.7788 37.7226 20.7788C37.0398 20.7788 36.5726 20.2421 36.5726 19.4635C36.5726 18.291 37.3856 17.6083 38.7826 17.6083C38.9253 17.6083 39.1078 17.6214 39.295 17.6458C39.334 17.4864 39.3444 17.4187 39.3444 17.3324C39.3444 17.0141 39.1258 16.8956 38.5374 16.8956C37.9216 16.8882 37.4142 17.0425 37.2047 17.1113C37.2181 17.0317 37.3793 16.029 37.3793 16.029C38.0068 15.8438 38.4203 15.774 38.8859 15.774C39.967 15.774 40.5398 16.2628 40.5386 17.1856C40.5409 17.4329 40.5002 17.7389 40.4368 18.1394C40.3276 18.836 40.0932 20.3319 40.061 20.6952Z" fill="#FFFFFE"/>
<path fill-rule="evenodd" clip-rule="evenodd" d="M37.1267 14.9749L36.9205 16.2593C36.471 16.0319 36.1453 15.9399 35.7958 15.9399C34.8559 15.9399 34.1967 16.854 34.1967 18.1579C34.1967 19.0561 34.6398 19.5989 35.3718 19.5989C35.6817 19.5989 36.0242 19.5024 36.4409 19.2953L36.2197 20.6441C35.7562 20.7714 35.4562 20.8177 35.1073 20.8177C33.7517 20.8177 32.9075 19.8369 32.9075 18.2622C32.9075 16.1463 34.0747 14.6674 35.7429 14.6674C36.2926 14.6674 36.9419 14.9018 37.1267 14.9749Z" fill="#FFFFFE"/>
<path fill-rule="evenodd" clip-rule="evenodd" d="M30.8731 15.8256C30.7147 17.3155 30.4345 18.8246 30.2159 20.3152L30.1585 20.639H31.4181C31.8687 17.6954 31.9768 17.121 32.6824 17.1927C32.7955 16.5902 33.0053 16.0626 33.1609 15.7967C32.634 15.686 32.3391 15.9859 31.9539 16.5557C31.9844 16.3092 32.0402 16.07 32.0291 15.8256H30.8731Z" fill="#FFFFFE"/>
<path fill-rule="evenodd" clip-rule="evenodd" d="M29.7255 20.584C29.2956 20.7164 28.8801 20.7791 28.4412 20.7788C27.04 20.7778 26.3101 20.0411 26.3101 18.6314C26.3101 16.9856 27.2388 15.774 28.4995 15.774C29.5322 15.774 30.1908 16.4522 30.1908 17.5169C30.1908 17.8696 30.145 18.2139 30.0369 18.7002H27.5447C27.46 19.3986 27.9044 19.69 28.6322 19.69C29.0799 19.69 29.4841 19.5967 29.9339 19.3864L29.7255 20.584ZM29.0221 17.7295C29.0289 17.6288 29.1546 16.8703 28.4396 16.8703C28.0412 16.8703 27.7562 17.1766 27.64 17.7295H29.0221Z" fill="#FFFFFE"/>
<path fill-rule="evenodd" clip-rule="evenodd" d="M25.8276 20.6895C25.4832 20.7986 25.2146 20.846 24.9234 20.846C24.2798 20.846 23.9283 20.4737 23.9283 19.789C23.9195 19.5754 24.0212 19.0168 24.1011 18.5056C24.1737 18.0555 24.647 15.2207 24.647 15.2207H25.8983L25.7521 15.9491H26.3944L26.2234 17.1058H25.5789C25.4336 18.0219 25.2261 19.1616 25.2237 19.3128C25.2237 19.5618 25.3557 19.6695 25.6551 19.6695C25.7984 19.6695 25.9095 19.6553 25.9945 19.6241L25.8276 20.6895Z" fill="#FFFFFE"/>
<path fill-rule="evenodd" clip-rule="evenodd" d="M20.9223 17.4034C20.9223 18.0129 21.2159 18.4319 21.8813 18.7478C22.3909 18.989 22.4697 19.0604 22.4697 19.2791C22.4697 19.5792 22.245 19.7145 21.7468 19.7145C21.3711 19.7145 21.0218 19.6559 20.6186 19.5251C20.6186 19.5251 20.4537 20.5857 20.4458 20.6358C20.7319 20.6989 20.9871 20.7564 21.7557 20.7788C23.0844 20.7788 23.6979 20.27 23.6979 19.1699C23.6979 18.5083 23.441 18.1203 22.8104 17.8289C22.2826 17.5845 22.222 17.5305 22.222 17.3055C22.222 17.0453 22.4311 16.9114 22.8381 16.9114C23.0849 16.9114 23.4227 16.9391 23.7426 16.9844L23.9219 15.8682C23.5958 15.8164 23.1018 15.774 22.8137 15.774C21.4053 15.774 20.9181 16.5142 20.9223 17.4034Z" fill="#FFFFFE"/>
<path fill-rule="evenodd" clip-rule="evenodd" d="M19.3536 18.5511C19.2216 18.5356 19.1633 18.5313 19.0726 18.5313C18.359 18.5313 17.9978 18.7773 17.9978 19.2636C17.9978 19.5629 18.1741 19.7545 18.4492 19.7545C18.9621 19.7545 19.3318 19.2633 19.3536 18.5511ZM20.2691 20.6952C20.1015 20.6952 19.2262 20.6952 19.2262 20.6952L19.25 20.1968C18.9319 20.5905 18.5073 20.7788 17.9306 20.7788C17.2483 20.7788 16.7806 20.2421 16.7806 19.4635C16.7806 18.291 17.5941 17.6083 18.9907 17.6083C19.1337 17.6083 19.3166 17.6214 19.5038 17.6458C19.5429 17.4864 19.5531 17.4187 19.5531 17.3324C19.5531 17.0141 19.3338 16.8956 18.7459 16.8956C18.1296 16.8882 17.622 17.0425 17.413 17.1113C17.4262 17.0317 17.5877 16.029 17.5877 16.029C18.215 15.8438 18.6288 15.774 19.0944 15.774C20.1755 15.774 20.748 16.2628 20.7469 17.1856C20.7491 17.4329 20.7084 17.7389 20.6452 18.1394C20.5358 18.836 20.3012 20.3319 20.2691 20.6952Z" fill="#FFFFFE"/>
<path fill-rule="evenodd" clip-rule="evenodd" d="M16.1478 20.7704H14.889L15.6103 16.2206L14 20.7704H13.142L13.0359 16.247L12.2779 20.7704H11.0995L12.0838 14.8519H13.8943L13.9447 18.5158L15.1663 14.8519H17.1215L16.1478 20.7704Z" fill="#FFFFFE"/>
</svg>
