<svg width="46" height="46" viewBox="0 0 46 46" fill="none" xmlns="http://www.w3.org/2000/svg">
<path d="M7.64175 40.8677C7.47475 40.7005 7.24299 40.6045 7.00673 40.6045C6.77047 40.6045 6.5387 40.7005 6.37161 40.8677C6.20452 41.0349 6.1084 41.2666 6.1084 41.5028C6.1084 41.7391 6.20443 41.9708 6.37161 42.1378C6.5387 42.3049 6.77047 42.4011 7.00673 42.4011C7.24299 42.4011 7.47475 42.305 7.64175 42.1378C7.80884 41.9708 7.90505 41.7391 7.90505 41.5028C7.90505 41.2666 7.80893 41.0348 7.64175 40.8677Z" fill="white"/>
<path d="M45.73 0.26312C45.5615 0.0946836 45.333 0 45.0947 0L22.9964 0.00116782C22.5003 0.00116782 22.0981 0.403439 22.0981 0.899495V3.46844L13.583 5.7501C13.1037 5.87856 12.8193 6.37111 12.9478 6.85028L17.361 23.3204L13.5432 27.1382C13.0573 26.4287 12.2414 25.9621 11.3186 25.9621H2.69489C1.20888 25.9621 0 27.1711 0 28.657V43.2994C0 44.7854 1.20888 45.9943 2.69489 45.9943H11.3186C12.5811 45.9943 13.6431 45.1215 13.9341 43.9479L15.0022 44.8794C15.8268 45.5984 16.8832 45.9944 17.9773 45.9944H45.0948C45.5909 45.9944 45.9932 45.5922 45.9932 45.0961V0.898327C45.993 0.660091 45.8985 0.431556 45.73 0.26312ZM12.2168 43.2994C12.2168 43.7947 11.8138 44.1978 11.3185 44.1978H2.6948C2.19946 44.1978 1.79647 43.7948 1.79647 43.2994V28.6571C1.79647 28.1617 2.19946 27.7587 2.6948 27.7587H6.10835V38.107C6.10835 38.6031 6.51062 39.0053 7.00668 39.0053C7.50274 39.0053 7.90501 38.6031 7.90501 38.107V27.7587H11.3186C11.8139 27.7587 12.2169 28.1617 12.2169 28.6571V43.2994H12.2168ZM14.9156 7.253L22.0981 5.32843V8.65718L21.4961 8.81851C21.2658 8.88023 21.0697 9.0307 20.9506 9.23705C20.8315 9.44339 20.7991 9.68854 20.8609 9.9187C21.2061 11.207 20.4388 12.5359 19.1505 12.8811C18.9201 12.9429 18.7236 13.0937 18.6046 13.3004C18.4856 13.5072 18.4535 13.7528 18.5158 13.9831L22.0174 26.9494H20.2144L19.2853 23.3144C19.2557 23.1987 19.204 23.092 19.1347 22.9993L14.9156 7.253ZM22.0981 12.7768V20.357L20.4597 14.2901C21.1441 13.9367 21.7042 13.408 22.0981 12.7768ZM35.0038 44.1977H17.9771C17.3173 44.1977 16.6801 43.9589 16.1828 43.5253L14.0134 41.6333V29.2088L17.9354 25.2869L18.6467 28.0699C18.7484 28.4676 19.1065 28.7457 19.517 28.7457L37.1784 28.7468C37.8719 28.7468 38.4361 29.311 38.4361 30.0045C38.4361 30.698 37.8719 31.2621 37.1784 31.2621H28.1287C27.6326 31.2621 27.2304 31.6644 27.2304 32.1605C27.2304 32.6565 27.6326 33.0588 28.1287 33.0588H39.9902C40.6837 33.0588 41.2478 33.6229 41.2478 34.3164C41.2478 35.0099 40.6837 35.5741 39.9902 35.5741H28.1287C27.6326 35.5741 27.2304 35.9764 27.2304 36.4724C27.2304 36.9685 27.6326 37.3708 28.1287 37.3708H38.068C38.7615 37.3708 39.3257 37.9349 39.3257 38.6284C39.3257 39.3219 38.7615 39.8861 38.068 39.8861H28.1287C27.6326 39.8861 27.2304 40.2883 27.2304 40.7844C27.2304 41.2805 27.6326 41.6827 28.1287 41.6827H35.0038C35.6973 41.6827 36.2615 42.2469 36.2615 42.9404C36.2614 43.6335 35.6973 44.1977 35.0038 44.1977ZM44.1965 44.1977H44.1964H37.7861C37.9602 43.8138 38.0581 43.3883 38.0581 42.94C38.0581 42.4918 37.9602 42.0662 37.7861 41.6824H38.068C39.7521 41.6824 41.1223 40.3122 41.1223 38.6281C41.1223 38.1369 41.005 37.6728 40.798 37.2612C42.0913 36.906 43.0443 35.7206 43.0443 34.3163C43.0443 33.635 42.8199 33.0052 42.4414 32.4967V21.1113C42.4414 20.6153 42.0392 20.213 41.5431 20.213C41.0471 20.213 40.6448 20.6153 40.6448 21.1113V31.3335C40.4337 31.2873 40.2148 31.2621 39.99 31.2621H39.9605C40.1347 30.8783 40.2326 30.4527 40.2326 30.0045C40.2326 28.3203 38.8624 26.9503 37.1783 26.9503H35.7343C37.2676 26.2927 38.3445 24.7686 38.3445 22.9972C38.3445 20.6266 36.416 18.698 34.0454 18.698C31.6749 18.698 29.7463 20.6266 29.7463 22.9972C29.7463 24.7686 30.8233 26.2927 32.3566 26.9503H27.446V9.86929C29.0508 9.51957 30.3171 8.25338 30.6667 6.64852H37.424C37.7737 8.25338 39.0399 9.51957 40.6447 9.86929V12.6622C40.6447 13.1582 41.047 13.5605 41.543 13.5605C42.0391 13.5605 42.4414 13.1582 42.4414 12.6622V9.06726C42.4414 8.57121 42.0391 8.16893 41.543 8.16893C40.2093 8.16893 39.1244 7.08385 39.1244 5.75019C39.1244 5.25413 38.7221 4.85186 38.2261 4.85186H29.8648C29.3687 4.85186 28.9665 5.25413 28.9665 5.75019C28.9665 7.08394 27.8815 8.16893 26.5478 8.16893C26.0517 8.16893 25.6495 8.57121 25.6495 9.06726V26.9502H23.8949V1.79764L44.1965 1.79665V44.1977ZM34.0456 25.4997C32.6657 25.4997 31.5431 24.3771 31.5431 22.9973C31.5431 21.6174 32.6658 20.4947 34.0456 20.4947C35.4254 20.4947 36.5481 21.6173 36.5481 22.9972C36.5481 24.377 35.4255 25.4997 34.0456 25.4997Z" fill="white"/>
</svg>
