<svg width="33" height="27" viewBox="0 0 33 27" fill="none" xmlns="http://www.w3.org/2000/svg">
<path d="M6.95397 26.824C5.12997 26.824 3.64797 26.178 2.50797 24.886C1.36797 23.518 0.797974 21.77 0.797974 19.642C0.797974 15.994 1.89997 12.384 4.10397 8.81203C6.38397 5.16402 9.11997 2.50403 12.312 0.832031L14.82 5.16402C12.92 6.45603 11.324 7.82403 10.032 9.26803C8.81597 10.636 8.05597 12.384 7.75197 14.512C9.27197 14.588 10.526 15.272 11.514 16.564C12.578 17.78 13.11 19.148 13.11 20.668C13.11 22.264 12.502 23.708 11.286 25C10.146 26.216 8.70197 26.824 6.95397 26.824ZM24.738 26.824C23.066 26.824 21.622 26.178 20.406 24.886C19.19 23.518 18.582 21.77 18.582 19.642C18.582 15.994 19.684 12.384 21.888 8.81203C24.168 5.16402 26.942 2.50403 30.21 0.832031L32.49 5.16402C30.666 6.45603 29.108 7.82403 27.816 9.26803C26.6 10.636 25.916 12.384 25.764 14.512C27.208 14.588 28.424 15.272 29.412 16.564C30.476 17.78 31.008 19.148 31.008 20.668C31.008 22.264 30.362 23.708 29.07 25C27.854 26.216 26.41 26.824 24.738 26.824Z" fill="#3C5B3F"/>
</svg>
