<svg width="22" height="24" viewBox="0 0 22 24" fill="none" xmlns="http://www.w3.org/2000/svg">
<path d="M8.75042 8.54591C8.99616 8.36542 9.15961 8.09439 9.20483 7.79278C9.25006 7.49126 9.17296 7.18417 8.99088 6.93973L7.78323 5.31722C7.64148 5.12677 7.42892 5.00186 7.19365 4.97059C6.95837 4.93931 6.72021 5.00415 6.53374 5.15088C6.31112 5.32609 6.0618 5.52172 5.82593 5.70539C5.24531 6.15761 5.02617 6.93316 5.28316 7.62275C6.70058 11.4264 9.68046 14.4428 13.4594 15.9088C14.2366 16.2103 15.1188 15.8985 15.5315 15.1742L15.9955 14.3598C16.2235 13.9597 16.1041 13.4514 15.7219 13.1946L14.2441 12.2017C13.9858 12.0282 13.6681 11.9674 13.364 12.033C13.0599 12.0986 12.7949 12.285 12.6313 12.5498C12.5829 12.6278 12.5362 12.7037 12.4926 12.7744C12.4317 12.8731 12.3335 12.943 12.2204 12.9682C12.1072 12.9934 11.9886 12.9718 11.8916 12.9082C10.4747 11.9804 9.2643 10.768 8.33904 9.34925C8.21353 9.15681 8.26164 8.89952 8.44841 8.76565C8.54144 8.69881 8.64464 8.62361 8.75042 8.54591Z" fill="#F09939"/>
<path d="M16.493 10.6405C16.249 10.6405 16.0512 10.4425 16.0512 10.1986C16.0512 7.29005 13.6849 4.92376 10.7763 4.92376C10.5323 4.92376 10.3345 4.72584 10.3345 4.4819C10.3345 4.23786 10.5324 4.04004 10.7763 4.04004C14.1722 4.04004 16.9349 6.80287 16.9349 10.1986C16.9349 10.4426 16.7372 10.6405 16.493 10.6405Z" fill="#F09939"/>
<path d="M15.1083 10.6405C14.8642 10.6405 14.6664 10.4426 14.6664 10.1986C14.6664 8.05356 12.9213 6.30853 10.7763 6.30853C10.5323 6.30853 10.3345 6.11061 10.3345 5.86667C10.3345 5.62263 10.5324 5.4248 10.7763 5.4248C13.4087 5.4248 15.5502 7.56638 15.5502 10.1987C15.5501 10.4427 15.3523 10.6405 15.1083 10.6405Z" fill="#F09939"/>
<path d="M13.7482 10.6403C13.5042 10.6403 13.3064 10.4424 13.3064 10.1984C13.3064 8.80342 12.1713 7.66839 10.7763 7.66839C10.5323 7.66839 10.3345 7.47047 10.3345 7.22653C10.3345 6.98249 10.5324 6.78467 10.7763 6.78467C12.6587 6.78467 14.1902 8.31614 14.1902 10.1985C14.1902 10.4425 13.9923 10.6403 13.7482 10.6403Z" fill="#F09939"/>
<path d="M21.948 8.01426C21.948 3.58808 18.36 0 13.9338 0H8.2597C3.69795 0 0 3.69795 0 8.2597V11.8225C0 15.3419 2.20213 18.3453 5.30293 19.5349V22.3334C5.30293 22.665 5.51171 22.9657 5.82239 23.0817C5.91263 23.1154 6.00666 23.1317 6.0998 23.1317C6.3275 23.1317 6.55092 23.0345 6.70512 22.8568L9.11204 20.0823H13.9339C18.3601 20.0823 21.9481 16.4942 21.9481 12.068V8.01426H21.948ZM20.0823 12.068C20.0823 15.4583 17.3241 18.2164 13.9339 18.2164H9.65959L6.36605 22.0463C6.32302 22.0963 6.25339 22.1143 6.19154 22.0915C6.12968 22.0686 6.08854 22.0096 6.08854 21.9435C6.08854 21.1277 6.08854 19.2948 6.08854 17.8363C3.62862 16.9454 1.86586 14.5862 1.86586 11.8226V8.2598C1.86586 4.73417 4.73417 1.86586 8.2598 1.86586H13.934C17.3242 1.86586 20.0824 4.624 20.0824 8.01426V12.068H20.0823Z" fill="#F09939"/>
</svg>
