<svg width="21" height="21" viewBox="0 0 21 21" fill="none" xmlns="http://www.w3.org/2000/svg">
<path d="M6.86352 6.80304C7.33548 6.46034 7.64941 5.94573 7.73626 5.37307C7.82311 4.80059 7.67504 4.21752 7.32534 3.75341L5.00594 0.672763C4.73371 0.311157 4.32547 0.0739961 3.8736 0.0146111C3.42174 -0.0447739 2.96433 0.0783455 2.6062 0.356925C2.17863 0.689595 1.6998 1.06104 1.24678 1.40978C0.131661 2.2684 -0.289213 3.74092 0.204356 5.05023C2.92664 12.2721 8.64975 17.9994 15.9075 20.7829C17.4003 21.3554 19.0945 20.7632 19.8872 19.3881L20.7784 17.8418C21.2163 17.0821 20.9869 16.117 20.2528 15.6295L17.4146 13.7443C16.9186 13.4148 16.3083 13.2995 15.7242 13.4239C15.1402 13.5485 14.6313 13.9024 14.317 14.4051C14.2242 14.5533 14.1345 14.6975 14.0507 14.8315C13.9338 15.019 13.7452 15.1517 13.5279 15.1996C13.3105 15.2474 13.0827 15.2064 12.8964 15.0857C10.1752 13.324 7.85047 11.022 6.07343 8.32832C5.83238 7.96293 5.92479 7.47443 6.28349 7.22024C6.46217 7.09334 6.66036 6.95055 6.86352 6.80304Z" fill="#F09939"/>
</svg>
