<svg width="52" height="51" viewBox="0 0 52 51" fill="none" xmlns="http://www.w3.org/2000/svg">
<path d="M50.5779 43.1263C50.5417 43.1021 50.5034 43.0811 50.4635 43.0634C49.9793 42.8492 49.5327 42.5963 49.1362 42.3118C48.7941 42.0662 48.3175 42.1445 48.0718 42.4868C47.8263 42.829 47.9046 43.3055 48.2468 43.5512C48.4794 43.7182 48.7252 43.8757 48.9827 44.0228C47.3354 44.9627 46.193 46.3093 45.6335 47.9741C45.0741 46.3096 43.9319 44.9631 42.285 44.0232C43.9321 43.0833 45.0743 41.7368 45.6336 40.0721C45.6414 40.095 45.6493 40.1179 45.6571 40.1407C45.7956 40.5385 46.2303 40.7486 46.6283 40.6102C47.0261 40.4717 47.2362 40.0369 47.0978 39.639C47.0398 39.4728 46.9889 39.3 46.9462 39.1257L46.6291 37.8305C46.5165 37.3705 46.1071 37.0493 45.6335 37.0493C45.16 37.0493 44.7506 37.3705 44.6379 37.8306L44.3209 39.1257C43.7805 41.3333 42.1098 42.4856 40.8035 43.0635C40.7636 43.0812 40.7253 43.1022 40.6889 43.1265C40.3883 43.3269 40.209 43.6621 40.209 44.0233C40.209 44.3846 40.3884 44.7198 40.6889 44.9202C40.7252 44.9444 40.7635 44.9654 40.8035 44.9831C42.1098 45.561 43.7804 46.7134 44.3209 48.9209L44.638 50.2162C44.7506 50.6761 45.16 50.9973 45.6335 50.9973C46.1071 50.9973 46.5165 50.6761 46.6291 50.2161L46.9462 48.9209C47.4866 46.7134 49.1573 45.5611 50.4636 44.9831C50.5034 44.9655 50.5417 44.9444 50.578 44.9203C50.8787 44.72 51.0581 44.3847 51.0581 44.0233C51.0581 43.662 50.8786 43.3266 50.5779 43.1263Z" fill="white"/>
<path d="M44.1945 10.5269C44.1581 10.5026 44.1198 10.4816 44.0798 10.4639C43.2347 10.0901 42.7102 9.50824 42.5208 8.73458L42.361 8.08157V8.08147C42.2626 7.67991 41.9052 7.39941 41.4918 7.39941C41.4918 7.39941 41.4917 7.39941 41.4916 7.39941C41.0782 7.39952 40.7208 7.68012 40.6226 8.08157L40.4627 8.73458C40.2733 9.50824 39.7488 10.0901 38.9037 10.4639C38.8638 10.4816 38.8254 10.5026 38.7891 10.5269C38.5322 10.6982 38.3787 10.985 38.3788 11.2938C38.3788 11.6027 38.5324 11.8893 38.7894 12.0606C38.8256 12.0847 38.8638 12.1058 38.9037 12.1234C39.7489 12.4973 40.2733 13.0791 40.4627 13.8528L40.6226 14.5057C40.7209 14.9073 41.0783 15.1878 41.4917 15.1879H41.4919C41.9054 15.1879 42.2627 14.9075 42.3612 14.5058L42.521 13.8528C42.7104 13.0792 43.2349 12.4974 44.08 12.1235C44.1198 12.1059 44.1581 12.0849 44.1944 12.0607C44.4514 11.8894 44.6048 11.6028 44.6049 11.2939C44.6048 10.9849 44.4514 10.6982 44.1945 10.5269ZM41.4917 12.3908C41.2372 11.9721 40.9018 11.6042 40.4913 11.2937C40.9019 10.9833 41.2373 10.6153 41.4918 10.1966C41.7463 10.6153 42.0818 10.9833 42.4923 11.2937C42.0817 11.6042 41.7462 11.972 41.4917 12.3908Z" fill="white"/>
<path d="M2.97562 8.83565L3.20463 9.77099C3.30923 10.1982 3.68956 10.4967 4.1294 10.4967C4.56935 10.4967 4.94968 10.1982 5.05418 9.77099L5.28319 8.83565C5.65306 7.32509 6.8034 6.53346 7.70339 6.13525C7.74331 6.11758 7.78159 6.09656 7.81785 6.07229C8.09398 5.88827 8.25881 5.58025 8.25881 5.24846C8.25881 4.91657 8.09408 4.60855 7.81795 4.42443C7.78159 4.40016 7.74331 4.37913 7.70329 4.36146C6.8034 3.96336 5.65306 3.17172 5.28319 1.66117L5.05418 0.725827C4.94958 0.298476 4.56925 0 4.1293 0C3.68946 0 3.30913 0.298476 3.20453 0.725725L2.97551 1.66106C2.60585 3.17162 1.45541 3.96326 0.555516 4.36136C0.515604 4.37903 0.477216 4.40005 0.44096 4.42433C0.164725 4.60855 0 4.91657 0 5.24846C0 5.58035 0.164928 5.88837 0.441061 6.07239C0.477317 6.09656 0.515604 6.11758 0.555414 6.13525C1.45541 6.53336 2.60585 7.32509 2.97562 8.83565ZM4.1293 2.97186C4.54965 3.89196 5.22855 4.66116 6.13901 5.24836C5.22866 5.83556 4.54965 6.60485 4.1293 7.52496C3.70896 6.60485 3.02995 5.83566 2.11959 5.24836C3.02995 4.66116 3.70896 3.89186 4.1293 2.97186Z" fill="white"/>
<path d="M35.5079 7H9.49235C8.29693 7 7.32439 7.97255 7.32439 9.16796V41.832C7.32439 43.0275 8.29693 44 9.49235 44H35.5079C36.7033 44 37.6758 43.0275 37.6758 41.832V9.16796C37.6758 7.97255 36.7034 7 35.5079 7ZM36.2305 41.832C36.2305 42.2305 35.9064 42.5547 35.5079 42.5547H9.49242C9.09395 42.5547 8.76977 42.2305 8.76977 41.832V9.16796C8.76977 8.76949 9.09395 8.44531 9.49242 8.44531H35.5079C35.9064 8.44531 36.2305 8.76949 36.2305 9.16796V41.832Z" fill="white"/>
<path d="M34.4239 9.5293H10.5764C10.1774 9.5293 9.85376 9.85283 9.85376 10.252V40.7481C9.85376 41.1473 10.1774 41.4708 10.5764 41.4708H34.4239C34.823 41.4708 35.1466 41.1473 35.1466 40.7481V10.252C35.1466 9.85283 34.823 9.5293 34.4239 9.5293ZM12.6152 40.0255C12.7762 39.1783 13.1426 37.8678 13.6256 36.4428C14.3667 34.2571 14.9754 32.9709 15.168 32.7589C15.7633 32.1636 17.4999 31.0616 19.1829 30.8214C19.5332 32.3296 20.887 33.4571 22.5001 33.4571C24.1132 33.4571 25.4671 32.3295 25.8172 30.8214C27.5002 31.0615 29.2364 32.1632 29.8291 32.7557C30.0247 32.9709 30.6335 34.257 31.3745 36.4428C31.4967 36.8031 31.6113 37.1561 31.7171 37.4962H30.4432C30.0442 37.4962 29.7206 37.8197 29.7206 38.2189C29.7206 38.618 30.0442 38.9415 30.4432 38.9415H32.1341C32.2419 39.3526 32.3268 39.7191 32.385 40.0255H12.6152ZM24.2258 21.1491C25.2721 22.2075 26.4168 22.8953 27.5484 23.1485C27.2104 26.1128 26.0461 28.9112 22.8973 29.1269C22.893 29.1272 22.8889 29.1275 22.8846 29.1278C22.8315 29.1313 22.7775 29.1338 22.7233 29.1359C22.7114 29.1363 22.6996 29.137 22.6877 29.1373C22.6259 29.1393 22.5635 29.1404 22.5002 29.1404C22.4369 29.1404 22.3745 29.1392 22.3127 29.1373C22.3007 29.137 22.289 29.1363 22.2771 29.1359C22.2228 29.1339 22.1689 29.1313 22.1157 29.1278C22.1115 29.1276 22.1074 29.1272 22.1031 29.1269C19.2417 28.931 18.0191 26.6024 17.566 23.9547C19.1742 23.6755 22.2134 22.9365 24.2258 21.1491ZM17.3923 22.5191C17.3519 21.9929 17.335 21.467 17.335 20.9545C17.335 18.1065 19.652 15.7894 22.5002 15.7894C25.3482 15.7894 27.6654 18.1064 27.6654 20.9545C27.6654 21.1948 27.6615 21.438 27.6535 21.6829C26.7043 21.4047 25.6971 20.6894 24.7999 19.6384C24.6645 19.4797 24.467 19.3872 24.2583 19.3849C24.0532 19.3821 23.8503 19.4706 23.7113 19.6262C22.3123 21.193 19.6537 22.1216 17.3923 22.5191ZM24.4437 30.311C24.3161 31.2698 23.4933 32.0118 22.5001 32.0118C21.507 32.0118 20.684 31.2697 20.5565 30.3109C20.999 30.4461 21.4709 30.5319 21.9719 30.567C21.9854 30.568 21.999 30.5688 22.0124 30.5697C22.0762 30.5738 22.1404 30.5771 22.2051 30.5795C22.2245 30.5803 22.2438 30.5811 22.2632 30.5818C22.3416 30.5842 22.4204 30.5858 22.5001 30.5858C22.5799 30.5858 22.6586 30.5842 22.737 30.5818C22.7564 30.5812 22.7757 30.5803 22.795 30.5795C22.8598 30.5771 22.9241 30.5738 22.988 30.5696C23.0014 30.5688 23.0149 30.568 23.0283 30.567C23.5293 30.532 24.0013 30.4462 24.4437 30.311ZM33.7013 39.2636C33.6094 38.8585 33.4969 38.431 33.3798 38.0179C33.3781 38.0117 33.3765 38.0054 33.3745 37.9992C33.1251 37.1206 32.8563 36.3105 32.7257 35.9265C32.3661 34.8699 31.4639 32.3465 30.8543 31.7369C30.2025 31.0851 28.2668 29.7633 26.1786 29.4149C28.092 27.9252 29.1107 25.0453 29.1107 20.9545C29.1107 17.3095 26.1453 14.344 22.5003 14.344C18.8552 14.344 15.8897 17.3095 15.8897 20.9545C15.8897 25.0453 16.9084 27.9253 18.8218 29.4149C16.7336 29.7632 14.7978 31.0852 14.1461 31.7369C13.5365 32.3465 12.6343 34.8698 12.2747 35.9265C12.0816 36.4937 11.5878 37.9898 11.2991 39.2636V10.9746H33.7013V39.2636Z" fill="white"/>
<path d="M15.3484 12.0586H13.1057C12.7067 12.0586 12.3831 12.3821 12.3831 12.7812C12.3831 13.1804 12.7066 13.5039 13.1057 13.5039H15.3484C15.7474 13.5039 16.0711 13.1804 16.0711 12.7812C16.0711 12.3821 15.7474 12.0586 15.3484 12.0586Z" fill="white"/>
<path d="M17.4444 12.0586H17.4249C17.0259 12.0586 16.7023 12.3821 16.7023 12.7812C16.7023 13.1804 17.0259 13.5039 17.4249 13.5039H17.4444C17.8435 13.5039 18.1671 13.1804 18.1671 12.7812C18.1671 12.3821 17.8435 12.0586 17.4444 12.0586Z" fill="white"/>
<path d="M28.3671 37.4961H28.3477C27.9486 37.4961 27.6251 37.8196 27.6251 38.2187C27.6251 38.6179 27.9486 38.9414 28.3477 38.9414H28.3671C28.7661 38.9414 29.0897 38.6179 29.0897 38.2187C29.0897 37.8196 28.7661 37.4961 28.3671 37.4961Z" fill="white"/>
</svg>
