<svg width="30" height="30" viewBox="0 0 30 30" fill="none" xmlns="http://www.w3.org/2000/svg">
<g filter="url(#filter0_d)">
<path d="M24.2889 5.75395H21.9556V1.50971C21.9556 1.10473 21.6272 0.776367 21.2222 0.776367H8.77778C8.3728 0.776367 8.04443 1.10469 8.04443 1.50971V5.75395H5.7111C4.76759 5.75395 4 6.52159 4 7.4651V14.8429C4 15.7864 4.76759 16.554 5.7111 16.554H8.04456V20.4906C8.04456 20.8955 8.37289 21.2239 8.77791 21.2239H21.2221C21.6271 21.2239 21.9554 20.8956 21.9554 20.4906V16.554H24.2889C25.2324 16.554 26 15.7864 26 14.8429V7.4651C26 6.52163 25.2324 5.75395 24.2889 5.75395ZM9.51109 2.24306H20.4889V5.75395H9.51109V2.24306ZM20.4887 19.7572H9.51126C9.51126 19.6139 9.51126 13.9348 9.51126 13.7576H20.4888C20.4887 13.9393 20.4887 19.6194 20.4887 19.7572ZM24.5333 14.843C24.5333 14.9778 24.4237 15.0874 24.2889 15.0874H21.9554V13.0243C21.9554 12.6193 21.6271 12.291 21.2221 12.291H8.77791C8.37293 12.291 8.04456 12.6193 8.04456 13.0243V15.0874H5.7111C5.57631 15.0874 5.46665 14.9778 5.46665 14.843V7.46514C5.46665 7.33035 5.57631 7.22069 5.7111 7.22069C6.27373 7.22069 23.7395 7.22069 24.2889 7.22069C24.4237 7.22069 24.5333 7.33035 24.5333 7.46514V14.843Z" fill="#333333"/>
<path d="M21.2211 8.59326H19.3544C18.9495 8.59326 18.6211 8.92159 18.6211 9.32661C18.6211 9.73163 18.9494 10.06 19.3544 10.06H21.2211C21.6261 10.06 21.9545 9.73163 21.9545 9.32661C21.9545 8.92159 21.6262 8.59326 21.2211 8.59326Z" fill="#333333"/>
<path d="M18.1788 17.1804H11.8232C11.4182 17.1804 11.0898 17.5087 11.0898 17.9138C11.0898 18.3188 11.4182 18.6471 11.8232 18.6471H18.1787C18.5837 18.6471 18.9121 18.3188 18.9121 17.9138C18.9121 17.5087 18.5838 17.1804 18.1788 17.1804Z" fill="#333333"/>
<path d="M18.1788 14.8674H11.8232C11.4182 14.8674 11.0898 15.1958 11.0898 15.6008C11.0898 16.0058 11.4182 16.3341 11.8232 16.3341H18.1787C18.5837 16.3341 18.9121 16.0058 18.9121 15.6008C18.9121 15.1958 18.5838 14.8674 18.1788 14.8674Z" fill="#333333"/>
</g>
<defs>
<filter id="filter0_d" x="0" y="0" width="30" height="30" filterUnits="userSpaceOnUse" color-interpolation-filters="sRGB">
<feFlood flood-opacity="0" result="BackgroundImageFix"/>
<feColorMatrix in="SourceAlpha" type="matrix" values="0 0 0 0 0 0 0 0 0 0 0 0 0 0 0 0 0 0 127 0"/>
<feOffset dy="4"/>
<feGaussianBlur stdDeviation="2"/>
<feColorMatrix type="matrix" values="0 0 0 0 0 0 0 0 0 0 0 0 0 0 0 0 0 0 0.25 0"/>
<feBlend mode="normal" in2="BackgroundImageFix" result="effect1_dropShadow"/>
<feBlend mode="normal" in="SourceGraphic" in2="effect1_dropShadow" result="shape"/>
</filter>
</defs>
</svg>
