<svg width="52" height="52" viewBox="0 0 52 52" fill="none" xmlns="http://www.w3.org/2000/svg">
<path d="M48.6451 0H3.35482C2.89165 0 2.51611 0.375535 2.51611 0.83871V46.129C2.51611 46.5922 2.89165 46.9677 3.35482 46.9677V51.1613C3.35482 51.6245 3.73036 52 4.19353 52H10.0645C10.5277 52 10.9032 51.6245 10.9032 51.1613V46.9677H41.0968V51.1613C41.0968 51.6245 41.4723 52 41.9355 52H47.8064C48.2696 52 48.6451 51.6245 48.6451 51.1613V46.9677C49.1083 46.9677 49.4839 46.5922 49.4839 46.129V0.83871C49.4839 0.375535 49.1083 0 48.6451 0ZM4.19353 1.67742H47.8064V45.2903H4.19353V1.67742ZM9.22579 50.3226H5.03224V46.9677H9.22579V50.3226ZM46.9677 50.3226H42.7742V46.9677H46.9677V50.3226Z" fill="#F09939"/>
<path d="M41.0968 42.7741C43.4118 42.7713 45.2874 40.8956 45.2903 38.5806V8.38703C45.2874 6.07198 43.4118 4.19635 41.0968 4.19348H10.9032C8.58815 4.19635 6.71252 6.07198 6.70966 8.38703V38.5806C6.71252 40.8956 8.58815 42.7713 10.9032 42.7741H41.0968ZM8.38708 38.5806V8.38703C8.38708 6.99751 9.51368 5.8709 10.9032 5.8709H41.0968C42.4863 5.8709 43.6129 6.99751 43.6129 8.38703V38.5806C43.6129 39.9701 42.4863 41.0967 41.0968 41.0967H10.9032C9.51368 41.0967 8.38708 39.9701 8.38708 38.5806Z" fill="#F09939"/>
<path d="M18.882 30.6018C19.8657 31.5826 21.4575 31.5826 22.4412 30.6018L24.7059 28.3375C25.5544 28.5714 26.4504 28.5714 27.299 28.3375L29.5637 30.6018C30.5494 31.5785 32.1375 31.5785 33.1233 30.6018C34.1065 29.6194 34.1065 28.0251 33.1233 27.0426L30.8586 24.7779C31.0924 23.929 31.0924 23.033 30.8586 22.184L33.1233 19.9193C34.1 18.9336 34.1 17.3446 33.1233 16.3589C32.1404 15.3756 30.5465 15.3756 29.5637 16.3589L27.299 18.6236C26.4504 18.3898 25.5544 18.3898 24.7059 18.6236L22.4412 16.3589C21.4583 15.3761 19.8649 15.3761 18.882 16.3589C17.8987 17.3418 17.8987 18.9357 18.882 19.9185L21.1463 22.1832C20.9128 23.0321 20.9128 23.9286 21.1463 24.7779L18.882 27.0426C17.8983 28.0251 17.8983 29.6194 18.882 30.6018ZM31.9324 28.2286C32.09 28.3859 32.1785 28.5992 32.1785 28.8224C32.1785 29.0452 32.09 29.2586 31.9324 29.4162C31.6015 29.7369 31.0752 29.7369 30.7447 29.4162L28.9105 27.582C29.3691 27.2544 29.7705 26.853 30.0981 26.3943L31.9324 28.2286ZM30.7447 17.5515C30.902 17.3942 31.1154 17.3057 31.3377 17.3057C31.5605 17.3057 31.7739 17.3942 31.9311 17.5515C32.253 17.8824 32.253 18.4086 31.9311 18.7391L30.0981 20.5733C29.7705 20.1147 29.3691 19.7133 28.9105 19.3857L30.7447 17.5515ZM29.3548 23.4838C29.3548 25.3365 27.8527 26.8387 26 26.8387C24.1473 26.8387 22.6451 25.3365 22.6451 23.4838C22.6451 21.6312 24.1473 20.129 26 20.129C27.8527 20.129 29.3548 21.6312 29.3548 23.4838ZM20.0676 18.7391C19.7399 18.4115 19.7399 17.8795 20.0676 17.5515C20.3956 17.2238 20.9276 17.2238 21.2552 17.5515L23.0895 19.3857C22.6308 19.7133 22.2295 20.1147 21.9018 20.5733L20.0676 18.7391ZM20.0676 28.2286L21.9018 26.3943C22.2295 26.853 22.6308 27.2544 23.0895 27.582L21.2552 29.4162C20.9276 29.7439 20.3956 29.7439 20.0676 29.4162C19.7399 29.0882 19.7399 28.5562 20.0676 28.2286Z" fill="#F09939"/>
<path d="M26 36.9032C33.4112 36.9032 39.4193 30.895 39.4193 23.4838C39.4193 16.0726 33.4112 10.0645 26 10.0645C18.5888 10.0645 12.5806 16.0726 12.5806 23.4838C12.5892 30.8913 18.5925 36.8946 26 36.9032ZM26 11.7419C32.4848 11.7419 37.7419 16.999 37.7419 23.4838C37.7419 29.9687 32.4848 35.2257 26 35.2257C19.5151 35.2257 14.258 29.9687 14.258 23.4838C14.265 17.0018 19.518 11.7488 26 11.7419Z" fill="#F09939"/>
<path d="M37.7419 37.7419H31.0323C30.5691 37.7419 30.1935 38.1175 30.1935 38.5807C30.1935 39.0438 30.5691 39.4194 31.0323 39.4194H37.7419C38.2051 39.4194 38.5806 39.0438 38.5806 38.5807C38.5806 38.1175 38.2051 37.7419 37.7419 37.7419Z" fill="#F09939"/>
<path d="M40.258 39.4194H41.0967C41.5599 39.4194 41.9354 39.0438 41.9354 38.5807C41.9354 38.1175 41.5599 37.7419 41.0967 37.7419H40.258C39.7948 37.7419 39.4193 38.1175 39.4193 38.5807C39.4193 39.0438 39.7948 39.4194 40.258 39.4194Z" fill="#F09939"/>
</svg>
