<svg width="44" height="44" viewBox="0 0 44 44" fill="none" xmlns="http://www.w3.org/2000/svg">
<path d="M36.6094 20.8828C36.6094 20.4081 36.2247 20.0234 35.75 20.0234C35.2753 20.0234 34.8906 20.4081 34.8906 20.8828C34.8906 23.7261 32.5777 26.0391 29.7344 26.0391C29.2597 26.0391 28.875 26.4238 28.875 26.8984C28.875 27.3731 29.2597 27.7578 29.7344 27.7578C33.5254 27.7578 36.6094 24.6738 36.6094 20.8828Z" fill="#F09939"/>
<path d="M18.7055 29.2594C18.2513 29.9445 14.2656 36.028 14.2656 38.5859C14.2656 41.5206 16.6269 44 19.4219 44C22.2169 44 24.5781 41.5206 24.5781 38.5859C24.5781 36.028 20.5924 29.9445 20.1382 29.2594C19.9788 29.0193 19.7099 28.875 19.4219 28.875C19.1339 28.875 18.865 29.0193 18.7055 29.2594ZM22.8594 38.5859C22.8594 40.5544 21.2531 42.2812 19.4219 42.2812C17.5907 42.2812 15.9844 40.5544 15.9844 38.5859C15.9844 37.2616 17.872 33.8053 19.4219 31.3239C20.9718 33.8053 22.8594 37.2616 22.8594 38.5859Z" fill="#F09939"/>
<path d="M9.96875 14.2656C9.68643 14.2656 9.42224 14.4043 9.26178 14.6366C8.71829 15.4231 3.95312 22.4092 3.95312 25.4375C3.95312 28.7545 6.65176 31.4531 9.96875 31.4531C13.2857 31.4531 15.9844 28.7545 15.9844 25.4375C15.9844 22.4092 11.2192 15.4231 10.6757 14.6366C10.5153 14.4043 10.2511 14.2656 9.96875 14.2656ZM9.96875 29.7344C7.59943 29.7344 5.67188 27.8068 5.67188 25.4375C5.67188 23.7755 8.0751 19.5562 9.96875 16.6658C11.8624 19.5558 14.2656 23.7745 14.2656 25.4375C14.2656 27.8068 12.3381 29.7344 9.96875 29.7344Z" fill="#F09939"/>
<path d="M21.1406 20.0234C21.1406 20.4981 20.7559 20.8828 20.2812 20.8828C19.8066 20.8828 19.4219 20.4981 19.4219 20.0234C19.4219 19.5488 19.8066 19.1641 20.2812 19.1641C20.7559 19.1641 21.1406 19.5488 21.1406 20.0234Z" fill="#F09939"/>
<path d="M30.4588 0.39679C30.3007 0.149719 30.0278 0 29.7344 0C29.441 0 29.1681 0.149719 29.01 0.39679C28.7626 0.784515 22.9212 9.96237 20.4827 16.4329C20.3152 16.877 20.5397 17.3728 20.9839 17.54C21.4277 17.7075 21.9235 17.4832 22.091 17.0391C23.9689 12.0554 28.0727 5.18277 29.7367 2.47977C32.6747 7.23083 38.3281 17.1452 38.3281 20.8828C38.3281 25.6215 34.473 29.4766 29.7344 29.4766C25.8978 29.4766 22.4952 26.9001 21.4595 23.2108C21.3313 22.754 20.857 22.4874 20.3998 22.6157C19.9429 22.7439 19.6767 23.2186 19.8046 23.6754C21.0477 28.1029 25.131 31.1953 29.7344 31.1953C35.4207 31.1953 40.0469 26.5691 40.0469 20.8828C40.0469 16.1458 32.9101 4.2294 30.4588 0.39679Z" fill="#F09939"/>
</svg>
