<svg width="52" height="52" viewBox="0 0 52 52" fill="none" xmlns="http://www.w3.org/2000/svg">
<g clip-path="url(#clip0)">
<path d="M12.4466 28.2751C11.1704 28.2751 10.1321 29.3133 10.1321 30.5894C10.1321 31.8656 11.1704 32.9038 12.4466 32.9038C13.7228 32.9038 14.7609 31.8656 14.7609 30.5894C14.7609 29.3133 13.7227 28.2751 12.4466 28.2751ZM12.4466 31.3776C12.0121 31.3776 11.6586 31.024 11.6586 30.5897C11.6586 30.1553 12.0121 29.8017 12.4466 29.8017C12.8811 29.8017 13.2345 30.1553 13.2345 30.5897C13.2345 31.024 12.881 31.3776 12.4466 31.3776Z" fill="#F09939"/>
<path d="M33.386 42.9928C33.2839 42.678 32.9908 42.4653 32.6602 42.4653H28.1266L26.7257 38.1536C26.6247 37.8428 26.3267 37.6262 25.9998 37.6262C25.673 37.6262 25.375 37.8426 25.274 38.1536L23.873 42.4653H19.3396C19.009 42.4653 18.7159 42.6781 18.6137 42.9927C18.5115 43.3071 18.6234 43.6517 18.891 43.8459L22.5586 46.5107L21.1576 50.8223C21.0598 51.1231 21.1626 51.4618 21.411 51.6575C21.6764 51.8666 22.0587 51.8742 22.3321 51.6756L25.9997 49.0108L29.6673 51.6756C29.9542 51.884 30.3574 51.864 30.6224 51.6288C30.8472 51.4295 30.9346 51.1081 30.8417 50.8224L29.4408 46.5108L33.1084 43.846C33.3762 43.6518 33.4881 43.3072 33.386 42.9928ZM28.0953 45.6016C27.8277 45.7959 27.7158 46.1404 27.818 46.4548L28.6644 49.0599L26.4483 47.45C26.1839 47.2577 25.8156 47.2577 25.5512 47.45L23.3351 49.0599L24.1816 46.4548C24.2837 46.1404 24.1718 45.7958 23.9043 45.6016L21.6883 43.9916H24.4274C24.758 43.9916 25.0511 43.7788 25.1533 43.4642L25.9997 40.8592L26.8461 43.4642C26.9483 43.7788 27.2414 43.9916 27.572 43.9916H30.3112L28.0953 45.6016Z" fill="#F09939"/>
<path d="M51.9625 42.9927C51.8603 42.6781 51.5672 42.4653 51.2366 42.4653H46.7032L45.3022 38.1536C45.2013 37.8428 44.9032 37.6262 44.5763 37.6262C44.2495 37.6262 43.9515 37.8426 43.8505 38.1536L42.4495 42.4653H37.9161C37.5855 42.4653 37.2924 42.6781 37.1902 42.9927C37.088 43.3071 37.2 43.6517 37.4675 43.8459L41.1351 46.5107L39.7341 50.8223C39.6363 51.1231 39.7391 51.4618 39.9875 51.6575C40.2529 51.8666 40.6352 51.8742 40.9086 51.6756L44.5762 49.0108L48.2439 51.6756C48.5308 51.884 48.9339 51.864 49.1991 51.6288C49.4238 51.4295 49.5113 51.1081 49.4183 50.8224L48.0174 46.5108L51.685 43.846C51.9528 43.6517 52.0648 43.3071 51.9625 42.9927ZM46.6718 45.6017C46.4043 45.796 46.2924 46.1405 46.3945 46.4549L47.2408 49.06L45.025 47.45C44.7573 47.2557 44.3952 47.2556 44.1277 47.45L41.9117 49.06L42.7581 46.4549C42.8602 46.1405 42.7483 45.7959 42.4808 45.6017L40.2648 43.9917H43.0041C43.3346 43.9917 43.6278 43.7789 43.7299 43.4643L44.5763 40.8593L45.4228 43.4643C45.5249 43.7789 45.8181 43.9917 46.1486 43.9917H48.8878L46.6718 45.6017Z" fill="#F09939"/>
<path d="M14.8097 42.9928C14.7074 42.678 14.4143 42.4653 14.0837 42.4653H9.5503L8.14934 38.1536C8.04717 37.8391 7.75406 37.6262 7.42348 37.6262C7.09289 37.6262 6.79978 37.8391 6.69761 38.1536L5.29666 42.4653H0.763212C0.432626 42.4653 0.139517 42.6781 0.0373449 42.9927C-0.0648269 43.3071 0.0470949 43.6517 0.314611 43.8459L3.98224 46.5107L2.58128 50.8223C2.47911 51.1368 2.59103 51.4814 2.85855 51.6755C3.12596 51.8699 3.48824 51.8699 3.75575 51.6755L7.42338 49.0108L11.091 51.6755C11.3779 51.884 11.781 51.8639 12.0461 51.6288C12.2709 51.4295 12.3583 51.1081 12.2654 50.8224L10.8644 46.5108L14.532 43.846C14.8 43.6518 14.9119 43.3072 14.8097 42.9928ZM9.51892 45.6016C9.2514 45.7959 9.13948 46.1404 9.24165 46.4548L10.0881 49.0599L7.87198 47.4499C7.60751 47.2577 7.23924 47.2577 6.97477 47.4499L4.75888 49.0598L5.6052 46.4547C5.70738 46.1403 5.59545 45.7957 5.32794 45.6015L3.11195 43.9915H5.85109C6.18167 43.9915 6.47478 43.7787 6.57695 43.4641L7.42338 40.8591L8.2698 43.4641C8.37197 43.7787 8.66508 43.9915 8.99566 43.9915H11.7348L9.51892 45.6016Z" fill="#F09939"/>
<path d="M45.8217 19.2053C46.61 18.5709 47.1153 17.5983 47.1153 16.51C47.1153 14.603 45.5638 13.0515 43.6569 13.0515H31.3804C31.762 12.2195 32.2024 10.9521 32.4542 9.19032C33.039 5.09644 32.1553 2.92341 31.311 1.82135C30.5964 0.888604 29.6364 0.324526 28.5348 0.19026C27.6053 0.0761038 26.7566 0.814362 26.7318 1.74813C26.5889 3.21611 26.0661 7.24337 25.3174 8.74101C23.3939 12.588 18.808 14.8816 17.3916 15.5161C16.896 15.0902 16.2523 14.8319 15.549 14.8319H9.34418C7.78296 14.8319 6.51282 16.102 6.51282 17.6633V33.175C6.51282 34.7363 7.78296 36.0064 9.34418 36.0064H15.5488C16.3842 36.0064 17.1361 35.6425 17.6546 35.0652C18.4601 35.5737 19.7601 36.1402 21.5554 36.1402H41.5006C43.4076 36.1402 44.959 34.5888 44.959 32.6818C44.959 31.8077 44.633 31.0082 44.0961 30.3986C45.2446 29.8354 46.037 28.654 46.037 27.2911C46.037 26.417 45.711 25.6176 45.1741 25.0079C46.3226 24.4448 47.115 23.2633 47.115 21.9005C47.1153 20.8123 46.6099 19.8397 45.8217 19.2053ZM15.5488 34.4799H9.34418C8.62461 34.4799 8.0392 33.8945 8.0392 33.1749V17.6632C8.0392 16.9436 8.62461 16.3582 9.34418 16.3582H15.5488C15.9132 16.3582 16.2428 16.5087 16.4798 16.7504V33.7703C16.4798 33.8616 16.4963 33.9512 16.5276 34.0353C16.2882 34.3071 15.9387 34.4799 15.5488 34.4799ZM40.4502 19.9684H43.6572C44.7226 19.9684 45.5892 20.8353 45.5892 21.9005C45.5892 22.9657 44.7225 23.8325 43.6572 23.8325H40.4502C40.0287 23.8325 39.687 24.1741 39.687 24.5957C39.687 25.0173 40.0287 25.359 40.4502 25.359H42.579C43.6444 25.359 44.511 26.2258 44.511 27.291C44.511 28.3562 43.6443 29.223 42.579 29.223H39.8651C39.4436 29.223 39.1019 29.5647 39.1019 29.9863C39.1019 30.4078 39.4436 30.7495 39.8651 30.7495H41.5008C42.5661 30.7495 43.4328 31.6163 43.4328 32.6816C43.4328 33.7469 42.5661 34.6137 41.5008 34.6137H21.5556C19.9804 34.6137 18.9125 34.0859 18.3327 33.6897C18.3635 33.5226 18.3805 33.3506 18.3805 33.1747V17.6632C18.3805 17.3648 18.3338 17.0773 18.2479 16.8071C20.0362 15.9864 24.6145 13.5597 26.6826 9.42361C27.717 7.35489 28.2328 2.08684 28.2542 1.8636C28.2564 1.83943 28.2577 1.81496 28.2577 1.79068C28.2577 1.76468 28.2676 1.74254 28.2872 1.72528C28.3146 1.70121 28.341 1.70425 28.3499 1.70537C28.8276 1.76367 29.519 1.99218 30.0994 2.74964C30.7657 3.61942 31.453 5.40539 30.9432 8.9745C30.511 11.9997 29.4864 13.3232 29.48 13.3314C29.0799 13.8204 29.4401 14.578 30.0705 14.578H43.6571C44.7225 14.578 45.5891 15.4448 45.5891 16.5101C45.5891 17.5755 44.7224 18.4422 43.6571 18.4422H40.4501C40.0286 18.4422 39.6869 18.7838 39.6869 19.2054C39.6869 19.627 40.0286 19.9684 40.4502 19.9684Z" fill="#F09939"/>
</g>
<defs>
<clipPath id="clip0">
<rect width="52" height="52" fill="white"/>
</clipPath>
</defs>
</svg>
