<svg width="44" height="44" viewBox="0 0 44 44" fill="none" xmlns="http://www.w3.org/2000/svg">
<path d="M22 0C9.86941 0 0 9.86941 0 22C0 34.1306 9.86941 44 22 44C34.1306 44 44 34.1306 44 22C44 9.86941 34.1306 0 22 0ZM22 41.25C11.3854 41.25 2.75001 32.6146 2.75001 22C2.75001 11.3854 11.3854 2.75001 22 2.75001C32.6146 2.75001 41.25 11.3854 41.25 22C41.25 32.6146 32.6146 41.25 22 41.25Z" fill="#F09939"/>
<path d="M23.375 8.25H20.6249V22.5693L29.2778 31.2221L31.2221 29.2778L23.375 21.4306V8.25Z" fill="#F09939"/>
</svg>
