<svg width="44" height="44" viewBox="0 0 44 44" fill="none" xmlns="http://www.w3.org/2000/svg">
<g clip-path="url(#clip0)">
<path d="M40.9969 11.0299C40.7753 10.6487 40.2865 10.5194 39.9054 10.741L36.0068 12.9946C35.6257 13.2162 35.4963 13.7049 35.718 14.0861C35.9396 14.4672 36.4283 14.5966 36.8095 14.375L40.708 12.1214C41.0892 11.8997 41.2185 11.411 40.9969 11.0299Z" fill="#F09939"/>
<path d="M40.708 31.8831L36.8095 29.6295C36.4283 29.4079 35.9396 29.5373 35.718 29.9184C35.4963 30.2996 35.6257 30.7883 36.0068 31.0099L39.9054 33.2635C40.2865 33.4851 40.7753 33.3558 40.9969 32.9747C41.2185 32.5934 41.0892 32.1047 40.708 31.8831Z" fill="#F09939"/>
<path d="M22.062 37.7752C21.6199 37.7423 21.235 38.0741 21.2021 38.5162C21.1992 38.5558 21.1992 38.5955 21.2021 38.6351V43.1378C21.1693 43.58 21.501 43.9649 21.9431 43.9977C22.3853 44.0306 22.7702 43.6988 22.803 43.2567C22.806 43.2171 22.806 43.1774 22.803 43.1378V38.6351C22.8358 38.1931 22.504 37.808 22.062 37.7752Z" fill="#F09939"/>
<path d="M7.99327 12.9946L4.09469 10.741C3.71354 10.5194 3.22478 10.6487 3.00317 11.0299C2.78156 11.411 2.91089 11.8998 3.29204 12.1214L7.19062 14.375C7.57177 14.5966 8.06052 14.4672 8.28213 14.0861C8.50374 13.7048 8.37441 13.2162 7.99327 12.9946Z" fill="#F09939"/>
<path d="M22.0621 0.00224433C21.62 -0.0306113 21.2351 0.301143 21.2022 0.743261C21.1992 0.782842 21.1992 0.822533 21.2022 0.862114V5.36488C21.2046 5.80468 21.5607 6.16069 22.0005 6.16312C22.4438 6.16312 22.8031 5.8038 22.8031 5.36047V0.862224C22.8359 0.420106 22.5041 0.0351 22.0621 0.00224433Z" fill="#F09939"/>
<path d="M14.3706 7.19076L12.1215 3.29219C11.8999 2.91104 11.4111 2.78172 11.03 3.00333C10.6488 3.22494 10.5195 3.71369 10.7411 4.09484L12.9903 7.99341C13.2119 8.37456 13.7006 8.50389 14.0818 8.28228C14.4629 8.06056 14.5922 7.57191 14.3706 7.19076Z" fill="#F09939"/>
<path d="M22.1186 14.8776C22.079 14.8746 22.0393 14.8746 21.9997 14.8776C18.0661 14.8776 14.8773 18.0664 14.8773 22C14.8773 22.4433 15.2366 22.8026 15.6799 22.8026C16.1215 22.8002 16.4782 22.4416 16.4782 22C16.4758 18.953 18.9439 16.4809 21.9909 16.4785C21.9939 16.4785 21.9967 16.4785 21.9997 16.4785C22.4418 16.5113 22.8267 16.1796 22.8596 15.7375C22.8924 15.2954 22.5607 14.9103 22.1186 14.8776Z" fill="#F09939"/>
<path d="M43.8789 21.9383C43.8494 21.542 43.5343 21.2268 43.1378 21.1973H38.6351C38.1929 21.1645 37.808 21.4962 37.7752 21.9383C37.7423 22.3804 38.0741 22.7653 38.5162 22.7982C38.5558 22.8012 38.5956 22.8012 38.6352 22.7982H43.1379C43.58 22.7655 43.9117 22.3804 43.8789 21.9383Z" fill="#F09939"/>
<path d="M5.48341 21.2018C5.44383 21.1988 5.40414 21.1988 5.36456 21.2018H0.861791C0.419673 21.2347 0.087919 21.6197 0.120775 22.0617C0.150212 22.4581 0.465318 22.7733 0.861791 22.8027H5.36456C5.80668 22.8356 6.19157 22.5038 6.22443 22.0617C6.25728 21.6196 5.92553 21.2346 5.48341 21.2018Z" fill="#F09939"/>
<path d="M22.0034 10.2206C15.4977 10.2197 10.2232 15.4928 10.2222 21.9984C10.2218 25.1238 11.4634 28.1213 13.6737 30.3309C15.8798 32.5425 18.8764 33.7836 22.0001 33.7796C28.5057 33.7805 33.7804 28.5074 33.7812 22.0017C33.7821 15.4961 28.509 10.2215 22.0034 10.2206ZM29.1974 29.2107C25.2225 33.1857 18.7777 33.1857 14.8027 29.2107C12.8906 27.2986 11.8179 24.7042 11.8214 22.0001C11.8176 19.2998 12.8906 16.7093 14.8027 14.8027V14.816C18.7777 10.841 25.2225 10.841 29.1974 14.816C33.1725 18.7909 33.1725 25.2357 29.1974 29.2107Z" fill="#F09939" stroke="#F09939"/>
<path d="M33.2611 39.9088C33.2604 39.9075 33.2598 39.9063 33.259 39.9052L31.0054 36.0067C30.7838 35.6255 30.295 35.4962 29.9139 35.7178C29.5327 35.9394 29.4034 36.4282 29.625 36.8093L31.8786 40.7079C32.0993 41.0886 32.5867 41.2188 32.9679 40.9989C33.3499 40.7788 33.4813 40.2907 33.2611 39.9088Z" fill="#F09939"/>
<path d="M32.9966 3.00333C32.6154 2.78172 32.1267 2.91104 31.905 3.29219L29.6514 7.19077C29.4283 7.57103 29.5557 8.06012 29.9359 8.28316C29.9367 8.2836 29.9373 8.28404 29.9381 8.28449C30.3189 8.50654 30.8077 8.37787 31.0297 7.99694C31.0304 7.99573 31.0312 7.99452 31.0318 7.99341L33.2854 4.09484C33.507 3.71358 33.3777 3.22494 32.9966 3.00333Z" fill="#F09939"/>
<path d="M14.0862 35.7178C13.705 35.4962 13.2163 35.6255 12.9947 36.0067L10.7411 39.9052C10.5195 40.2864 10.6488 40.7751 11.03 40.9967C11.4111 41.2183 11.8999 41.089 12.1215 40.7079L14.3751 36.8093C14.5967 36.4281 14.4673 35.9394 14.0862 35.7178Z" fill="#F09939"/>
<path d="M8.28213 29.9141C8.06052 29.533 7.57177 29.4037 7.19062 29.6253L3.29204 31.8789C2.91089 32.1005 2.78156 32.5892 3.00317 32.9704C3.22478 33.3515 3.71354 33.4809 4.09469 33.2593L7.99327 31.0057C8.37441 30.7839 8.50374 30.2953 8.28213 29.9141Z" fill="#F09939"/>
</g>
<defs>
<clipPath id="clip0">
<rect width="44" height="44" fill="white"/>
</clipPath>
</defs>
</svg>
