<svg width="37" height="47" viewBox="0 0 37 47" fill="none" xmlns="http://www.w3.org/2000/svg">
<path d="M36.1332 9.51621L18.4685 0.103565C18.2065 -0.0363 17.8924 -0.0343371 17.6323 0.108472L0.4564 9.52112C0.174708 9.67571 0 9.97114 0 10.2926V22.5879C0.0103058 32.695 5.99848 41.8387 15.259 45.8879L17.6431 46.9268C17.8659 47.024 18.1196 47.0245 18.3429 46.9278L21.0293 45.7677C30.4615 41.8063 36.5979 32.5742 36.5989 22.344V10.2926C36.5989 9.9677 36.4198 9.66884 36.1332 9.51621ZM34.84 22.344C34.8381 31.869 29.1233 40.4636 20.3407 44.1496L20.3348 44.1526L17.9954 45.1626L15.9627 44.2758C7.34265 40.5068 1.76818 31.9961 1.75837 22.5879V10.8133L18.0607 1.87862L34.84 10.8197V22.344Z" fill="#F09939"/>
<path d="M11.572 22.0176C11.2565 21.6481 10.7014 21.6044 10.3319 21.92C9.96237 22.235 9.91869 22.7906 10.2342 23.1596L14.8797 28.5996C15.1899 28.9628 15.7331 29.0123 16.1032 28.711L26.9223 19.9089C27.2992 19.6026 27.3561 19.0486 27.0494 18.6717C26.7432 18.2953 26.1891 18.2378 25.8122 18.5446L15.6595 26.8039L11.572 22.0176Z" fill="#F09939"/>
</svg>
