<svg width="44" height="44" viewBox="0 0 44 44" fill="none" xmlns="http://www.w3.org/2000/svg">
<path d="M35.3125 10.5782C34.4597 10.5782 33.6297 10.6984 32.831 10.9366C30.9588 5.90943 26.142 2.50562 20.6729 2.50562C17.5344 2.50562 14.5054 3.64094 12.1437 5.7024C10.088 7.49669 8.65623 9.88352 8.03945 12.5114C7.93461 12.5072 7.82959 12.5044 7.72458 12.5044C3.46517 12.5044 0 15.9695 0 20.2288C0 24.4881 3.46517 27.9533 7.72449 27.9533H35.3124C40.1027 27.9533 43.9999 24.0561 43.9999 19.2657C44 14.4754 40.1027 10.5782 35.3125 10.5782ZM35.3125 25.3752H7.72449C4.88675 25.3752 2.57812 23.0666 2.57812 20.2288C2.57812 17.391 4.88675 15.0824 7.72458 15.0824C8.08998 15.0824 8.4541 15.1206 8.80713 15.1961C9.50366 15.3453 10.1884 14.9013 10.3372 14.2051C10.3421 14.1826 10.3446 14.1603 10.3482 14.1378C10.3625 14.0857 10.375 14.0328 10.383 13.9778C10.7371 11.53 11.9645 9.28084 13.8391 7.64459C15.7312 5.99313 18.1583 5.08357 20.673 5.08357C25.3968 5.08357 29.5115 8.25191 30.7205 12.8012C30.7377 12.9455 30.7782 13.0892 30.8471 13.2267C31.1664 13.8629 31.941 14.1201 32.5774 13.8008C33.43 13.373 34.3503 13.1561 35.3127 13.1561C38.6814 13.1561 41.4221 15.8968 41.4221 19.2656C41.4219 22.6345 38.6812 25.3752 35.3125 25.3752Z" fill="#F09939"/>
<path d="M9.41739 29.7563C8.70548 29.7563 8.12833 30.3335 8.12833 31.0454V36.0902C8.12833 36.8021 8.70548 37.3793 9.41739 37.3793C10.1293 37.3793 10.7065 36.8021 10.7065 36.0902V31.0454C10.7065 30.3335 10.1293 29.7563 9.41739 29.7563Z" fill="#F09939"/>
<path d="M20.7611 29.7563C20.0492 29.7563 19.4721 30.3335 19.4721 31.0454V34.3715C19.4721 35.0834 20.0492 35.6605 20.7611 35.6605C21.4731 35.6605 22.0502 35.0834 22.0502 34.3715V31.0454C22.0501 30.3335 21.4731 29.7563 20.7611 29.7563Z" fill="#F09939"/>
<path d="M26.5492 29.7472C25.8373 29.7472 25.2601 30.3243 25.2601 31.0363V36.081C25.2601 36.7929 25.8373 37.3701 26.5492 37.3701C27.2611 37.3701 27.8383 36.7929 27.8383 36.081V31.0363C27.8383 30.3243 27.2611 29.7472 26.5492 29.7472Z" fill="#F09939"/>
<path d="M15.1747 33.4425C14.4627 33.4425 13.8856 34.0197 13.8856 34.7316V40.2055C13.8856 40.9174 14.4627 41.4946 15.1747 41.4946C15.8866 41.4946 16.4637 40.9174 16.4637 40.2055V34.7316C16.4637 34.0197 15.8866 33.4425 15.1747 33.4425Z" fill="#F09939"/>
<path d="M32.4085 33.4425C31.6966 33.4425 31.1194 34.0197 31.1194 34.7316V40.2055C31.1194 40.9174 31.6966 41.4946 32.4085 41.4946C33.1204 41.4946 33.6976 40.9174 33.6976 40.2055V34.7316C33.6976 34.0197 33.1204 33.4425 32.4085 33.4425Z" fill="#F09939"/>
</svg>
