<svg width="19" height="19" viewBox="0 0 19 19" fill="none" xmlns="http://www.w3.org/2000/svg">
<path d="M3.09061 18.3318C1.74246 18.3318 0.647461 17.2443 0.647461 15.8962C0.647461 14.5575 1.74246 13.4569 3.09061 13.4569C4.44247 13.4569 5.53559 14.5575 5.53748 15.8962C5.53753 17.2425 4.44436 18.3318 3.09061 18.3318ZM9.22937 18.3525C9.22937 16.05 8.335 13.8881 6.71501 12.2718C5.09501 10.6481 2.94065 9.75183 0.651237 9.75183V6.23433C7.32808 6.23433 12.7637 11.6699 12.7637 18.3524L9.22937 18.3525ZM15.4712 18.3487C15.4712 10.1719 8.82437 3.5175 0.655013 3.5175V0C10.7688 0 19 8.23501 19 18.3487H15.4712Z" fill="#444444"/>
</svg>
