<svg width="47" height="47" viewBox="0 0 47 47" fill="none" xmlns="http://www.w3.org/2000/svg">
<path d="M-0.000488281 47H46.5554L-0.000488281 0.444092V47ZM1.51565 4.10404L42.8955 45.4839H37.9029V42.4516H36.3867V45.4839H34.8706V43.9677H33.3545V45.4839H31.8383V43.9677H30.3222V45.4839H28.8061V42.4516H27.2899V45.4839H25.7738V43.9677H24.2577V45.4839H22.7415V43.9677H21.2254V45.4839H19.7092V42.4516H18.1931V45.4839H16.677V43.9677H15.1608V45.4839H13.6447V43.9677H12.1286V45.4839H10.6124V42.4516H9.09631V45.4839H7.58018V43.9677H6.06405V45.4839H4.54791V43.9677H3.03178V45.4839H1.51565V4.10404Z" fill="white"/>
<path d="M6.82219 16.3152V40.1776H29.8325L6.82219 16.3152ZM8.33832 20.0722L26.2636 38.6615H8.33832V20.0722Z" fill="white"/>
<path d="M41.4391 32.4066C45.0256 28.8217 46.9996 24.0535 46.9996 18.9835C46.9996 8.51536 38.4842 0 28.0161 0C22.9461 0 18.1779 1.97401 14.593 5.56042L11.0566 9.0968L37.9028 35.943L41.4391 32.4066ZM36.6087 29.7867L35.2495 31.1459L34.0472 29.9436L35.4064 28.5844L34.3345 27.5125L32.9753 28.8717L31.773 27.6694L33.1322 26.3102L32.0603 25.2383L30.7011 26.5975L29.4988 25.3952L30.858 24.036L29.7861 22.9641L28.4269 24.3233L27.2246 23.121L28.5838 21.7618L27.5119 20.6899L26.1527 22.0491L24.9504 20.8468L26.3096 19.4876L25.2377 18.4157L23.8785 19.7749L22.6762 18.5726L24.0354 17.2134L22.9635 16.1415L21.6043 17.5007L20.402 16.2984L21.7612 14.9392L20.6893 13.8673L19.3301 15.2265L18.1278 14.0242L19.487 12.665L18.4151 11.5931L17.0559 12.9523L15.8536 11.75L17.2128 10.3908L16.1409 9.31892L14.7817 10.6781L13.2004 9.0968L15.6649 6.63233C18.9647 3.33246 23.3509 1.51613 28.0161 1.51613C37.6473 1.51613 45.4834 9.35227 45.4834 18.9835C45.4834 23.6487 43.6671 28.0348 40.3672 31.3347L37.9028 33.7992L36.3214 32.2178L37.6806 30.8586L36.6087 29.7867Z" fill="white"/>
<path d="M38.4388 26.3102C40.5167 24.2324 41.628 21.3578 41.4877 18.4226C41.1534 11.396 35.6029 5.84622 28.5771 5.51191C25.6419 5.36637 22.7665 6.483 20.6894 8.56086L20.1535 9.09681L37.9028 26.8462L38.4388 26.3102ZM22.32 9.11955C24.0348 7.67544 26.2468 6.92419 28.5043 7.02577C34.7455 7.32294 39.676 12.2534 39.9731 18.4946C40.0815 20.7506 39.3242 22.9641 37.8794 24.6789L22.32 9.11955Z" fill="white"/>
</svg>
