<svg width="47" height="47" viewBox="0 0 47 47" fill="none" xmlns="http://www.w3.org/2000/svg">
<path d="M47 26.1488C47 24.2529 45.458 22.7101 43.5621 22.7101C42.6441 22.7101 41.7809 23.068 41.1309 23.7176L37.9032 26.9453V0H8.02482L0 8.02482V47H37.9032V36.6699L45.9932 28.5799C46.6421 27.931 47 27.0675 47 26.1488ZM28.4252 39.3202L30.3977 41.2927L27.6368 42.0985L28.4252 39.3202ZM31.8387 40.589L31.0162 39.7666L41.839 28.943L42.6622 29.7662L31.8387 40.589ZM29.9435 38.6946L29.1203 37.8714L39.9446 27.0479L40.7678 27.8711L29.9435 38.6946ZM7.58065 2.58808V7.58065H2.58808L7.58065 2.58808ZM36.3871 45.4839H1.51613V9.09677H9.09677V1.51613H36.3871V28.4615L27.3729 37.475L25.4285 44.3216L32.2374 42.3358L36.3871 38.186V45.4839ZM44.9212 27.508L43.7349 28.6943L41.0165 25.9759L42.2029 24.7896C42.566 24.4265 43.049 24.2262 43.5621 24.2262C44.6211 24.2262 45.4839 25.089 45.4839 26.1488C45.4839 26.6625 45.2836 27.1456 44.9212 27.508Z" fill="white"/>
<path d="M15.3581 31.3286L12.0957 34.9179C11.1336 33.953 9.80481 33.3548 8.33865 33.3548C5.41336 33.3548 3.0322 35.736 3.0322 38.6613C3.0322 41.5865 5.41336 43.9677 8.33865 43.9677C11.2639 43.9677 13.6451 41.5865 13.6451 38.6613C13.6451 37.757 13.4171 36.9056 13.0158 36.1598L16.4804 32.3487L15.3581 31.3286ZM12.129 38.6613C12.129 40.7511 10.4285 42.4516 8.33865 42.4516C6.24879 42.4516 4.54833 40.7511 4.54833 38.6613C4.54833 36.5714 6.24879 34.8709 8.33865 34.8709C9.41282 34.8709 10.3793 35.3251 11.07 36.0458L8.2165 39.185L6.48531 38.0313L5.64434 39.2927L8.46154 41.1712L11.8954 37.3939C12.0372 37.7918 12.129 38.2141 12.129 38.6613Z" fill="white"/>
<path d="M12.0957 21.2729C11.1336 20.3079 9.80481 19.7098 8.33865 19.7098C5.41336 19.7098 3.0322 22.091 3.0322 25.0162C3.0322 27.9415 5.41336 30.3227 8.33865 30.3227C11.2639 30.3227 13.6451 27.9415 13.6451 25.0162C13.6451 24.112 13.4171 23.2606 13.0158 22.5148L16.4804 18.7037L15.3581 17.6836L12.0957 21.2729ZM12.129 25.0162C12.129 27.1061 10.4285 28.8066 8.33865 28.8066C6.24879 28.8066 4.54833 27.1061 4.54833 25.0162C4.54833 22.9264 6.24879 21.2259 8.33865 21.2259C9.41282 21.2259 10.3793 21.6801 11.07 22.4008L8.2165 25.54L6.48531 24.3862L5.64434 25.6477L8.46154 27.5262L11.8954 23.7489C12.0372 24.1468 12.129 24.5691 12.129 25.0162Z" fill="white"/>
<path d="M33.3546 24.2581H34.8708V25.7742H33.3546V24.2581Z" fill="white"/>
<path d="M16.6776 24.2581H31.8388V25.7742H16.6776V24.2581Z" fill="white"/>
<path d="M16.6776 21.2258H34.8711V22.742H16.6776V21.2258Z" fill="white"/>
<path d="M16.6776 27.2903H34.8711V28.8064H16.6776V27.2903Z" fill="white"/>
<path d="M16.6776 37.9033H25.0163V39.4194H16.6776V37.9033Z" fill="white"/>
<path d="M16.6776 40.9355H25.0163V42.4517H16.6776V40.9355Z" fill="white"/>
<path d="M16.6776 34.8708H25.0163V36.387H16.6776V34.8708Z" fill="white"/>
<path d="M14.4035 16.6774H31.0809C33.1708 16.6774 34.8712 14.9769 34.8712 12.8871V6.82255C34.8712 4.73269 33.1708 3.03223 31.0809 3.03223H14.4035C12.3136 3.03223 10.6132 4.73269 10.6132 6.82255V12.8871C10.6132 14.9769 12.3136 16.6774 14.4035 16.6774ZM12.1293 6.82255C12.1293 5.56886 13.1498 4.54836 14.4035 4.54836H31.0809C32.3346 4.54836 33.3551 5.56886 33.3551 6.82255V12.8871C33.3551 14.1408 32.3346 15.1613 31.0809 15.1613H14.4035C13.1498 15.1613 12.1293 14.1408 12.1293 12.8871V6.82255Z" fill="white"/>
<path d="M31.8391 7.58057H27.2907V12.129H31.8391V7.58057ZM30.323 10.6128H28.8069V9.0967H30.323V10.6128Z" fill="white"/>
<path d="M25.0162 7.58057H20.4678V12.129H25.0162V7.58057ZM23.5001 10.6128H21.9839V9.0967H23.5001V10.6128Z" fill="white"/>
<path d="M18.1938 7.58057H13.6454V12.129H18.1938V7.58057ZM16.6776 10.6128H15.1615V9.0967H16.6776V10.6128Z" fill="white"/>
</svg>
