<svg width="102" height="28" viewBox="0 0 102 28" fill="none" xmlns="http://www.w3.org/2000/svg">
<path d="M0.680054 21.0001H2.64005V12.4321C2.64005 9.94007 4.65605 7.92407 7.14805 7.92407C9.64005 7.92407 11.6561 9.94007 11.6561 12.4321V21.0001H13.6161V12.0121C13.6161 8.68007 10.9001 5.96407 7.56805 5.96407C5.49605 5.96407 3.28405 7.00007 2.64005 8.28807V6.38407H0.680054V21.0001Z" fill="white"/>
<path d="M29.5028 21.0001H31.4628V6.38407H29.5028V8.90407C28.3268 7.28007 26.2548 5.96407 23.7908 5.96407C19.5068 5.96407 16.0068 9.38007 16.0068 13.6081C16.0068 17.9201 19.5068 21.4201 23.7908 21.4201C26.1428 21.4201 28.4108 20.1041 29.5028 18.3681V21.0001ZM23.7908 19.4601C20.3748 19.4601 18.0788 16.9121 18.0788 13.6361C18.0788 10.4721 20.6268 7.92407 23.7908 7.92407C26.9548 7.92407 29.5028 10.4721 29.5028 13.6361C29.5028 16.8561 26.9548 19.4601 23.7908 19.4601Z" fill="white"/>
<path d="M36.3164 21.0001H38.2764V8.17607H41.1604V6.38407H38.2764V1.37207H36.3164V6.38407H33.4324V8.17607H36.3164V21.0001Z" fill="white"/>
<path d="M56.0536 6.38407V8.90407C54.8776 7.28007 52.8056 5.96407 50.3416 5.96407C46.0576 5.96407 42.5576 9.38007 42.5576 13.6081C42.5576 17.9201 46.0576 21.4201 50.3416 21.4201C52.6936 21.4201 54.9616 20.1041 56.0536 18.3681V19.4601C56.0536 22.2881 53.6456 24.5841 50.6776 24.5841C48.0176 24.5841 45.7496 23.1561 45.3576 21.4201H43.0616C43.9016 24.2481 47.3176 26.5441 50.6776 26.5441C54.7376 26.5441 58.0136 23.3801 58.0136 19.4601V6.38407H56.0536ZM50.3416 19.4601C46.9256 19.4601 44.6296 16.9121 44.6296 13.6361C44.6296 10.4721 47.1776 7.92407 50.3416 7.92407C53.5056 7.92407 56.0536 10.4721 56.0536 13.6361C56.0536 16.8561 53.5056 19.4601 50.3416 19.4601Z" fill="white"/>
<path d="M61.3832 21.0001H63.3432V11.9281C63.3432 9.63207 65.2752 7.75607 67.6272 7.75607V5.96407C65.7512 5.96407 64.2672 6.66407 63.3432 8.09207V6.38407H61.3832V21.0001Z" fill="white"/>
<path d="M82.5223 21.0001H84.4823V6.38407H82.5223V8.90407C81.3463 7.28007 79.2743 5.96407 76.8103 5.96407C72.5263 5.96407 69.0263 9.38007 69.0263 13.6081C69.0263 17.9201 72.5263 21.4201 76.8103 21.4201C79.1623 21.4201 81.4303 20.1041 82.5223 18.3681V21.0001ZM76.8103 19.4601C73.3943 19.4601 71.0983 16.9121 71.0983 13.6361C71.0983 10.4721 73.6463 7.92407 76.8103 7.92407C79.9743 7.92407 82.5223 10.4721 82.5223 13.6361C82.5223 16.8561 79.9743 19.4601 76.8103 19.4601Z" fill="white"/>
<path d="M87.8519 21.0001H89.8119V12.4321C89.8119 9.94007 91.8279 7.92407 94.3199 7.92407C96.8119 7.92407 98.8279 9.94007 98.8279 12.4321V21.0001H100.788V12.0121C100.788 8.68007 98.0719 5.96407 94.7399 5.96407C92.6679 5.96407 90.4559 7.00007 89.8119 8.28807V6.38407H87.8519V21.0001Z" fill="white"/>
<path d="M0.680054 21.0001H2.64005V12.4321C2.64005 9.94007 4.65605 7.92407 7.14805 7.92407C9.64005 7.92407 11.6561 9.94007 11.6561 12.4321V21.0001H13.6161V12.0121C13.6161 8.68007 10.9001 5.96407 7.56805 5.96407C5.49605 5.96407 3.28405 7.00007 2.64005 8.28807V6.38407H0.680054V21.0001Z" stroke="white"/>
<path d="M29.5028 21.0001H31.4628V6.38407H29.5028V8.90407C28.3268 7.28007 26.2548 5.96407 23.7908 5.96407C19.5068 5.96407 16.0068 9.38007 16.0068 13.6081C16.0068 17.9201 19.5068 21.4201 23.7908 21.4201C26.1428 21.4201 28.4108 20.1041 29.5028 18.3681V21.0001ZM23.7908 19.4601C20.3748 19.4601 18.0788 16.9121 18.0788 13.6361C18.0788 10.4721 20.6268 7.92407 23.7908 7.92407C26.9548 7.92407 29.5028 10.4721 29.5028 13.6361C29.5028 16.8561 26.9548 19.4601 23.7908 19.4601Z" stroke="white"/>
<path d="M36.3164 21.0001H38.2764V8.17607H41.1604V6.38407H38.2764V1.37207H36.3164V6.38407H33.4324V8.17607H36.3164V21.0001Z" stroke="white"/>
<path d="M56.0536 6.38407V8.90407C54.8776 7.28007 52.8056 5.96407 50.3416 5.96407C46.0576 5.96407 42.5576 9.38007 42.5576 13.6081C42.5576 17.9201 46.0576 21.4201 50.3416 21.4201C52.6936 21.4201 54.9616 20.1041 56.0536 18.3681V19.4601C56.0536 22.2881 53.6456 24.5841 50.6776 24.5841C48.0176 24.5841 45.7496 23.1561 45.3576 21.4201H43.0616C43.9016 24.2481 47.3176 26.5441 50.6776 26.5441C54.7376 26.5441 58.0136 23.3801 58.0136 19.4601V6.38407H56.0536ZM50.3416 19.4601C46.9256 19.4601 44.6296 16.9121 44.6296 13.6361C44.6296 10.4721 47.1776 7.92407 50.3416 7.92407C53.5056 7.92407 56.0536 10.4721 56.0536 13.6361C56.0536 16.8561 53.5056 19.4601 50.3416 19.4601Z" stroke="white"/>
<path d="M61.3832 21.0001H63.3432V11.9281C63.3432 9.63207 65.2752 7.75607 67.6272 7.75607V5.96407C65.7512 5.96407 64.2672 6.66407 63.3432 8.09207V6.38407H61.3832V21.0001Z" stroke="white"/>
<path d="M82.5223 21.0001H84.4823V6.38407H82.5223V8.90407C81.3463 7.28007 79.2743 5.96407 76.8103 5.96407C72.5263 5.96407 69.0263 9.38007 69.0263 13.6081C69.0263 17.9201 72.5263 21.4201 76.8103 21.4201C79.1623 21.4201 81.4303 20.1041 82.5223 18.3681V21.0001ZM76.8103 19.4601C73.3943 19.4601 71.0983 16.9121 71.0983 13.6361C71.0983 10.4721 73.6463 7.92407 76.8103 7.92407C79.9743 7.92407 82.5223 10.4721 82.5223 13.6361C82.5223 16.8561 79.9743 19.4601 76.8103 19.4601Z" stroke="white"/>
<path d="M87.8519 21.0001H89.8119V12.4321C89.8119 9.94007 91.8279 7.92407 94.3199 7.92407C96.8119 7.92407 98.8279 9.94007 98.8279 12.4321V21.0001H100.788V12.0121C100.788 8.68007 98.0719 5.96407 94.7399 5.96407C92.6679 5.96407 90.4559 7.00007 89.8119 8.28807V6.38407H87.8519V21.0001Z" stroke="white"/>
</svg>
