<svg width="19" height="20" viewBox="0 0 19 20" fill="none" xmlns="http://www.w3.org/2000/svg">
<path d="M17.4818 11.91C18.7853 6.05254 13.6538 0.731292 7.6275 1.75279C4.356 -0.277458 0 2.01679 0 5.90929C0 6.81454 0.24975 7.66204 0.684 8.39254C-0.52725 14.2635 4.64625 19.5083 10.6673 18.417C14.9235 20.6678 19.6268 16.179 17.4818 11.91ZM11.7533 15.4425C10.1723 16.0928 7.5705 16.0965 5.99625 15.2723C3.7515 14.0753 3.3525 11.3805 5.289 11.3805C6.7485 11.3805 6.2865 13.0823 7.76025 13.776C8.43675 14.0888 9.891 14.121 10.7363 13.551C11.571 12.9923 11.4945 12.1133 11.0408 11.6933C9.8385 10.5833 6.39825 11.0243 4.8255 9.08104C4.14225 8.23804 4.01325 6.75079 4.85325 5.67229C6.31725 3.78829 10.6133 3.67354 12.4605 5.09629C14.166 6.41629 13.7055 8.16829 12.3293 8.16829C10.674 8.16829 11.544 6.00229 8.87175 6.00229C6.9345 6.00229 6.1725 7.38004 7.53675 8.05054C9.38625 8.96929 14.0993 8.66254 14.0993 12.2528C14.0955 13.7468 13.1798 14.8605 11.7533 15.4425Z" fill="#F09939"/>
</svg>
