<svg width="34" height="34" viewBox="0 0 34 34" fill="none" xmlns="http://www.w3.org/2000/svg">
<path d="M14.5 27C19.1944 27 23 23.4183 23 19C23 14.5817 19.1944 11 14.5 11C9.80558 11 6 14.5817 6 19C6 23.4183 9.80558 27 14.5 27Z" fill="#F09939"/>
<path d="M24.75 30.5H1.125V9.125H11.25V17.5625C11.25 17.7117 11.3093 17.8548 11.4148 17.9602C11.5202 18.0657 11.6633 18.125 11.8125 18.125H17.4375C17.5867 18.125 17.7298 18.0657 17.8352 17.9602C17.9407 17.8548 18 17.7117 18 17.5625V9.125H28.125V14.4237C28.125 14.5729 28.1843 14.716 28.2898 14.8215C28.3952 14.927 28.5383 14.9862 28.6875 14.9862C28.8367 14.9862 28.9798 14.927 29.0852 14.8215C29.1907 14.716 29.25 14.5729 29.25 14.4237V8.5625C29.25 8.55462 29.2461 8.54844 29.2455 8.54056C29.2428 8.48289 29.2312 8.42597 29.2112 8.37181C29.2061 8.35944 29.2033 8.34706 29.1982 8.33469C29.1932 8.32231 29.1943 8.32063 29.1909 8.31388L25.2534 0.438875C25.2071 0.344844 25.1354 0.26563 25.0465 0.210171C24.9575 0.154711 24.8548 0.125211 24.75 0.125H4.5C4.39547 0.124951 4.29299 0.154031 4.20407 0.208975C4.11514 0.26392 4.04329 0.342557 3.99656 0.436063L0.0590625 8.31106C0.0556875 8.31781 0.055125 8.32512 0.05175 8.33187C0.048375 8.33862 0.043875 8.35662 0.0388125 8.369C0.0187816 8.42316 0.00720846 8.48007 0.00449994 8.53775C0.00449994 8.54562 0 8.55181 0 8.55969V31.0625C0 31.2117 0.0592632 31.3548 0.164752 31.4602C0.270242 31.5657 0.413316 31.625 0.5625 31.625H24.75C24.8992 31.625 25.0423 31.5657 25.1477 31.4602C25.2532 31.3548 25.3125 31.2117 25.3125 31.0625C25.3125 30.9133 25.2532 30.7702 25.1477 30.6648C25.0423 30.5593 24.8992 30.5 24.75 30.5ZM16.875 17H12.375V9.125H16.875V17ZM27.7774 8H17.9252L16.9611 1.25H24.4024L27.7774 8ZM15.8248 1.25L16.7889 8H12.4611L13.4252 1.25H15.8248ZM4.84762 1.25H12.2889L11.3248 8H1.47263L4.84762 1.25Z" fill="#111111"/>
<path d="M8.5625 24.875H4.0625C3.91332 24.875 3.77024 24.9343 3.66475 25.0398C3.55926 25.1452 3.5 25.2883 3.5 25.4375C3.5 25.5867 3.55926 25.7298 3.66475 25.8352C3.77024 25.9407 3.91332 26 4.0625 26H8.5625C8.71168 26 8.85476 25.9407 8.96025 25.8352C9.06574 25.7298 9.125 25.5867 9.125 25.4375C9.125 25.2883 9.06574 25.1452 8.96025 25.0398C8.85476 24.9343 8.71168 24.875 8.5625 24.875Z" fill="#111111"/>
<path d="M8.5625 27.125H4.0625C3.91332 27.125 3.77024 27.1843 3.66475 27.2898C3.55926 27.3952 3.5 27.5383 3.5 27.6875C3.5 27.8367 3.55926 27.9798 3.66475 28.0852C3.77024 28.1907 3.91332 28.25 4.0625 28.25H8.5625C8.71168 28.25 8.85476 28.1907 8.96025 28.0852C9.06574 27.9798 9.125 27.8367 9.125 27.6875C9.125 27.5383 9.06574 27.3952 8.96025 27.2898C8.85476 27.1843 8.71168 27.125 8.5625 27.125Z" fill="#111111"/>
<path d="M8.5625 22.625H4.0625C3.91332 22.625 3.77024 22.6843 3.66475 22.7898C3.55926 22.8952 3.5 23.0383 3.5 23.1875C3.5 23.3367 3.55926 23.4798 3.66475 23.5852C3.77024 23.6907 3.91332 23.75 4.0625 23.75H8.5625C8.71168 23.75 8.85476 23.6907 8.96025 23.5852C9.06574 23.4798 9.125 23.3367 9.125 23.1875C9.125 23.0383 9.06574 22.8952 8.96025 22.7898C8.85476 22.6843 8.71168 22.625 8.5625 22.625Z" fill="#111111"/>
<path d="M27.125 15.875C25.3354 15.8769 23.6196 16.5887 22.3542 17.8542C21.0887 19.1196 20.3769 20.8354 20.375 22.625C20.375 22.7742 20.4343 22.9173 20.5398 23.0227C20.6452 23.1282 20.7883 23.1875 20.9375 23.1875H26.5625V31.0625C26.5625 31.8084 26.8588 32.5238 27.3863 33.0512C27.9137 33.5787 28.6291 33.875 29.375 33.875C30.1209 33.875 30.8363 33.5787 31.3637 33.0512C31.8912 32.5238 32.1875 31.8084 32.1875 31.0625V29.9375C32.1875 29.7883 32.1282 29.6452 32.0227 29.5398C31.9173 29.4343 31.7742 29.375 31.625 29.375C31.4758 29.375 31.3327 29.4343 31.2273 29.5398C31.1218 29.6452 31.0625 29.7883 31.0625 29.9375V31.0625C31.0625 31.5101 30.8847 31.9393 30.5682 32.2557C30.2518 32.5722 29.8226 32.75 29.375 32.75C28.9274 32.75 28.4982 32.5722 28.1818 32.2557C27.8653 31.9393 27.6875 31.5101 27.6875 31.0625V23.1875H33.3125C33.4617 23.1875 33.6048 23.1282 33.7102 23.0227C33.8157 22.9173 33.875 22.7742 33.875 22.625C33.8731 20.8354 33.1613 19.1196 31.8958 17.8542C30.6304 16.5887 28.9146 15.8769 27.125 15.875ZM25.0612 17.3938C23.8549 18.6482 23.183 20.3222 23.1875 22.0625H21.5281C21.6333 21.0355 22.0184 20.057 22.6414 19.2338C23.2644 18.4105 24.1014 17.7741 25.0612 17.3938ZM24.3125 22.0625C24.3106 21.1907 24.5132 20.3305 24.9039 19.5512C25.2947 18.7718 25.8627 18.0949 26.5625 17.5749V22.0625H24.3125ZM27.6875 17.5749C28.3873 18.0949 28.9553 18.7718 29.3461 19.5512C29.7368 20.3305 29.9394 21.1907 29.9375 22.0625H27.6875V17.5749ZM31.0625 22.0625C31.0668 20.3222 30.395 18.6482 29.1888 17.3938C30.1486 17.7741 30.9856 18.4105 31.6086 19.2338C32.2316 20.057 32.6167 21.0355 32.7219 22.0625H31.0625Z" fill="#111111"/>
<path d="M11.9375 22.625H10.8125C10.6633 22.625 10.5202 22.6843 10.4148 22.7898C10.3093 22.8952 10.25 23.0383 10.25 23.1875C10.25 23.3367 10.3093 23.4798 10.4148 23.5852C10.5202 23.6907 10.6633 23.75 10.8125 23.75H11.9375C12.0867 23.75 12.2298 23.6907 12.3352 23.5852C12.4407 23.4798 12.5 23.3367 12.5 23.1875C12.5 23.0383 12.4407 22.8952 12.3352 22.7898C12.2298 22.6843 12.0867 22.625 11.9375 22.625Z" fill="#111111"/>
<path d="M11.9375 24.875H10.8125C10.6633 24.875 10.5202 24.9343 10.4148 25.0398C10.3093 25.1452 10.25 25.2883 10.25 25.4375C10.25 25.5867 10.3093 25.7298 10.4148 25.8352C10.5202 25.9407 10.6633 26 10.8125 26H11.9375C12.0867 26 12.2298 25.9407 12.3352 25.8352C12.4407 25.7298 12.5 25.5867 12.5 25.4375C12.5 25.2883 12.4407 25.1452 12.3352 25.0398C12.2298 24.9343 12.0867 24.875 11.9375 24.875Z" fill="#111111"/>
<path d="M11.9375 27.125H10.8125C10.6633 27.125 10.5202 27.1843 10.4148 27.2898C10.3093 27.3952 10.25 27.5383 10.25 27.6875C10.25 27.8367 10.3093 27.9798 10.4148 28.0852C10.5202 28.1907 10.6633 28.25 10.8125 28.25H11.9375C12.0867 28.25 12.2298 28.1907 12.3352 28.0852C12.4407 27.9798 12.5 27.8367 12.5 27.6875C12.5 27.5383 12.4407 27.3952 12.3352 27.2898C12.2298 27.1843 12.0867 27.125 11.9375 27.125Z" fill="#111111"/>
</svg>
