<svg width="19" height="16" viewBox="0 0 19 16" fill="none" xmlns="http://www.w3.org/2000/svg">
<path d="M16.4626 4.63245L16.4738 5.11059C16.4738 9.99307 12.7594 15.6181 5.96628 15.6181C3.8813 15.6181 1.94064 15.0069 0.305664 13.9587C0.594444 13.9924 0.888774 14.0112 1.18693 14.0112C2.91757 14.0112 4.50943 13.4205 5.77317 12.4305C4.15694 12.4006 2.79378 11.3318 2.32317 9.86558C2.55003 9.90869 2.77879 9.92935 3.01878 9.92935C3.35629 9.92935 3.68251 9.88624 3.99189 9.80186C2.30251 9.46059 1.0294 7.97001 1.0294 6.18126V6.13439C1.52813 6.41188 2.09626 6.57687 2.70188 6.59753C1.71187 5.93566 1.05938 4.80503 1.05938 3.52439C1.05938 2.84753 1.24127 2.21378 1.55811 1.66818C3.37874 3.90316 6.10124 5.37315 9.17061 5.52692C9.10684 5.25689 9.07501 4.97378 9.07501 4.68506C9.07501 2.64695 10.7287 0.993164 12.7688 0.993164C13.83 0.993164 14.79 1.44126 15.465 2.15938C16.305 1.99248 17.0963 1.68501 17.8106 1.26313C17.535 2.12565 16.95 2.84938 16.1869 3.30685C16.9313 3.21872 17.6456 3.01807 18.3075 2.72559C17.8125 3.46432 17.1844 4.11497 16.4626 4.63245Z" fill="#444444"/>
</svg>
