<svg width="58" height="36" viewBox="0 0 58 36" fill="none" xmlns="http://www.w3.org/2000/svg">
<rect width="57.5" height="36" rx="5" fill="#3C5B3F"/>
<path fill-rule="evenodd" clip-rule="evenodd" d="M45.8518 24.7424H46.6403V24.9898C46.8216 24.8141 47.0982 24.6607 47.3795 24.6607C47.8643 24.6607 48.1273 24.9265 48.1273 25.5482C48.1273 26.0126 48.1225 26.5121 48.1184 27.0127H47.3293C47.3337 26.5755 47.3385 26.1339 47.3385 25.6657C47.3385 25.4808 47.2886 25.3365 47.0529 25.3365C46.926 25.3365 46.7445 25.4449 46.6403 25.5436L46.6362 27.0127H45.8334L45.8518 24.7424Z" fill="white"/>
<path fill-rule="evenodd" clip-rule="evenodd" d="M44.1448 24.6607C44.9879 24.6607 45.423 25.1923 45.423 25.877C45.423 26.5617 44.9879 27.0933 44.1448 27.0933C43.3015 27.0933 42.8661 26.5617 42.8661 25.877C42.8661 25.1923 43.3015 24.6607 44.1448 24.6607ZM44.1448 26.4989C44.5208 26.4989 44.6342 26.1746 44.6342 25.877C44.6342 25.5799 44.5208 25.2552 44.1448 25.2552C43.7683 25.2552 43.6552 25.5799 43.6552 25.877C43.6552 26.1746 43.7683 26.4989 44.1448 26.4989Z" fill="white"/>
<path fill-rule="evenodd" clip-rule="evenodd" d="M41.0794 24.7424H41.8683V25.0616H41.8775C41.9952 24.8683 42.149 24.6788 42.4577 24.6788C42.5437 24.6788 42.634 24.688 42.7159 24.706L42.6115 25.4808C42.5345 25.4579 42.4485 25.4357 42.3305 25.4357C42.0676 25.4357 41.8636 25.6563 41.8636 25.7015L41.8498 27.0127H41.061L41.0794 24.7424Z" fill="white"/>
<path fill-rule="evenodd" clip-rule="evenodd" d="M38.9306 24.7423H39.287L39.284 23.9717H40.0457L40.0275 24.7423H40.6756L40.6623 25.3096H40.014C40.014 25.625 39.9912 25.9582 39.9912 26.1517C39.9912 26.3503 40.0414 26.445 40.218 26.445C40.327 26.445 40.4173 26.3908 40.5082 26.3366L40.6802 26.8685C40.4491 27.0079 40.1681 27.0933 39.9006 27.0933C39.2615 27.0933 39.2298 26.6927 39.2298 26.1703C39.2298 25.8907 39.2523 25.6115 39.2523 25.3096H38.9127L38.9306 24.7423Z" fill="white"/>
<path fill-rule="evenodd" clip-rule="evenodd" d="M38.6389 26.8593C38.4214 26.9944 38.0633 27.0933 37.8005 27.0933C37.0751 27.0933 36.554 26.6792 36.554 25.9314C36.554 25.1654 37.0705 24.6607 37.8504 24.6607C38.1222 24.6607 38.4487 24.7464 38.6254 24.8591L38.3715 25.3724C38.2535 25.3228 38.1265 25.2824 37.9996 25.2824C37.6054 25.2824 37.3426 25.5169 37.3426 25.8908C37.3426 26.2153 37.5962 26.4717 37.932 26.4717C38.0815 26.4717 38.231 26.4045 38.3579 26.341L38.6389 26.8593Z" fill="white"/>
<path fill-rule="evenodd" clip-rule="evenodd" d="M36.1184 26.7556C35.8512 26.9811 35.4432 27.0933 35.0803 27.0933C34.2511 27.0933 33.8746 26.5081 33.8746 25.9269C33.8746 25.2419 34.3913 24.6607 35.1029 24.6607C35.9738 24.6607 36.2456 25.2737 36.2456 26.0528H34.6634C34.6634 26.2285 34.7768 26.5259 35.2121 26.5259C35.4886 26.5259 35.6426 26.445 35.8556 26.3008L36.1184 26.7556ZM35.5385 25.5937C35.5385 25.3592 35.4251 25.1475 35.1622 25.1475C34.9127 25.1475 34.7225 25.3683 34.6726 25.5937H35.5385Z" fill="white"/>
<path fill-rule="evenodd" clip-rule="evenodd" d="M32.6165 23.6337H33.4053L33.4082 27.0127H32.6194L32.6165 23.6337Z" fill="white"/>
<path fill-rule="evenodd" clip-rule="evenodd" d="M29.9054 23.8949H32.0727V24.544H30.7262L30.717 25.143H32.0591V25.7646H30.7124L30.7175 26.3636H32.0453V27.0127H29.9064L29.9054 23.8949Z" fill="white"/>
<g clip-path="url(#clip0)">
<path fill-rule="evenodd" clip-rule="evenodd" d="M48.843 21.7807C48.843 21.0061 49.4758 20.3782 50.256 20.3782C51.0375 20.3782 51.669 21.0061 51.669 21.7807C51.669 22.5547 51.0375 23.1832 50.256 23.1832C49.4758 23.1832 48.843 22.5547 48.843 21.7807ZM50.256 22.8456C50.8508 22.8456 51.3308 22.3688 51.3308 21.7807C51.3308 21.1906 50.8508 20.7151 50.256 20.7151C49.664 20.7151 49.1833 21.1906 49.1833 21.7807C49.1833 22.3688 49.664 22.8456 50.256 22.8456ZM50.0658 22.3955H49.7767V21.1639H50.3009C50.4102 21.1639 50.5209 21.1653 50.6177 21.2256C50.718 21.2956 50.7747 21.4116 50.7747 21.5337C50.7747 21.6744 50.6938 21.8048 50.561 21.8528L50.7879 22.3955H50.4663L50.2781 21.9077H50.0658V22.3955ZM50.0658 21.697H50.2249C50.285 21.697 50.3494 21.7025 50.4019 21.6744C50.4497 21.6435 50.4745 21.5859 50.4745 21.531C50.4745 21.4857 50.4455 21.4308 50.4047 21.4068C50.3535 21.3773 50.2733 21.3835 50.2193 21.3835H50.0658V21.697Z" fill="white"/>
</g>
<path fill-rule="evenodd" clip-rule="evenodd" d="M45.2441 21.7464H48.38L45.646 8.80731H42.9008C41.6327 8.80731 41.3233 9.77112 41.3233 9.77112L36.2303 21.7464H39.7899L40.5017 19.8248H44.8439L45.2441 21.7464ZM41.4861 17.1698L43.2804 12.3266L44.2904 17.1698H41.4861Z" fill="white"/>
<path fill-rule="evenodd" clip-rule="evenodd" d="M36.4968 11.9187L36.9845 9.13996C36.9845 9.13996 35.4801 8.57587 33.9127 8.57587C32.2176 8.57587 28.1926 9.30656 28.1926 12.8594C28.1926 16.2027 32.9172 16.2445 32.9172 17.9989C32.9172 19.7545 28.6798 19.4411 27.2807 18.3338L26.7735 21.2384C26.7735 21.2384 28.298 21.9696 30.629 21.9696C32.959 21.9696 36.4762 20.7788 36.4762 17.5399C36.4762 14.1756 31.7093 13.8617 31.7093 12.3992C31.7093 10.9362 35.0358 11.1242 36.4968 11.9187Z" fill="white"/>
<path fill-rule="evenodd" clip-rule="evenodd" d="M24.6687 21.7464H21.2535L23.3878 8.80731H26.8041L24.6687 21.7464Z" fill="white"/>
<path fill-rule="evenodd" clip-rule="evenodd" d="M15.1243 17.707L18.3801 8.80734H22.0562L16.6221 21.7464H13.0636L10.0971 10.5051C8.17019 9.36374 6.52418 9.02616 6.52362 9.02616C6.52418 9.02616 9.11164 9.55508 11.5932 11.536C13.966 13.4306 14.7386 15.7909 14.7386 15.7909V15.7904L15.1243 17.707Z" fill="white"/>
<path fill-rule="evenodd" clip-rule="evenodd" d="M14.7386 15.7909L13.5892 9.97235C13.5892 9.97235 13.451 8.80731 11.9694 8.80731H6.58661L6.52362 9.02613C6.52418 9.02613 9.11164 9.55504 11.5932 11.536C13.966 13.4306 14.7386 15.7909 14.7386 15.7909Z" fill="#F9A533"/>
<defs>
<clipPath id="clip0">
<rect width="2" height="1.5" fill="white" transform="translate(48.6203 20.2218)"/>
</clipPath>
</defs>
</svg>
