<svg width="47" height="40" viewBox="0 0 47 40" fill="none" xmlns="http://www.w3.org/2000/svg">
<path d="M46 7.39286C46.4536 7.39286 46.8214 7.02547 46.8214 6.57143V0.821429C46.8214 0.367384 46.4536 0 46 0H31.2143C30.9761 0 30.7498 0.1035 30.5939 0.283187C30.438 0.462875 30.3676 0.701911 30.4013 0.937867L31.2227 6.68787C31.2804 7.09201 31.6271 7.39286 32.0357 7.39286H37.7857V12.3214H32.0357C31.6213 12.3214 31.272 12.6303 31.2207 13.041L30.4892 18.8929H28.75C28.513 18.8929 28.288 18.9947 28.1319 19.1736L23.8214 24.0997V22.1786C23.8214 21.7742 23.5274 21.43 23.1279 21.3676L16.2023 20.2741C16.3405 20.1271 16.4286 19.9322 16.4286 19.7143V13.9643H21.3571C21.7716 13.9643 22.1209 13.6554 22.1722 13.2447L22.9936 6.67329C23.023 6.4398 22.9503 6.20487 22.7942 6.02744C22.6386 5.85104 22.4139 5.75 22.1786 5.75H16.4286V0.821429C16.4286 0.367384 16.0608 0 15.6071 0H0.821429C0.367795 0 0 0.367384 0 0.821429V6.57143C0 7.02547 0.367795 7.39286 0.821429 7.39286H6.57143V12.3214H0.821429C0.367795 12.3214 0 12.6888 0 13.1429V19.7143C0 20.1683 0.367795 20.5357 0.821429 20.5357H6.57143V25.4643H0.821429C0.367795 25.4643 0 25.8317 0 26.2857V32.8571C0 33.3112 0.367795 33.6786 0.821429 33.6786H6.57143V37.7857H0.821429C0.367795 37.7857 0 38.1531 0 38.6072C0 39.0612 0.367795 39.4286 0.821429 39.4286H46C46.4536 39.4286 46.8214 39.0612 46.8214 38.6072C46.8214 38.1531 46.4536 37.7857 46 37.7857H39.4286V33.6786H46C46.4536 33.6786 46.8214 33.3112 46.8214 32.8571V26.2857C46.8214 25.8317 46.4536 25.4643 46 25.4643H39.4286V20.5357H46C46.4536 20.5357 46.8214 20.1683 46.8214 19.7143V13.1429C46.8214 12.6888 46.4536 12.3214 46 12.3214H39.4286V7.39286H46ZM16.4286 32.0357V27.1071H30.3929V32.0357H16.4286ZM1.64286 1.64286H14.7857V5.75H1.64286V1.64286ZM8.21429 7.39286H21.2481L20.632 12.3214H8.21429V7.39286ZM1.64286 13.9643H14.7857V18.8929H1.64286V13.9643ZM8.21429 20.6754L22.1786 22.8805V25.4643H8.21429V20.6754ZM1.64286 27.1071H14.7857V32.0357H1.64286V27.1071ZM8.21429 33.6786H22.1786V37.7857H8.21429V33.6786ZM37.7857 37.7857H23.8214V33.6786H37.7857V37.7857ZM45.1786 32.0357H32.0357V27.1071H45.1786V32.0357ZM37.7857 25.4643H24.8098L29.1227 20.5357H31.2143H37.7857V25.4643ZM45.1786 18.8929H32.1448L32.7608 13.9643H45.1786V18.8929ZM32.1612 1.64286H45.1786V5.75H32.7481L32.1612 1.64286Z" fill="white"/>
</svg>
